<mxfile host="app.diagrams.net" modified="2023-03-04T03:08:40.503Z" agent="5.0 (Macintosh; Intel Mac OS X 10_15_7) AppleWebKit/537.36 (KHTML, like Gecko) Chrome/109.0.0.0 Safari/537.36" etag="-OiWCkSp1IC4XdO3difY" version="21.0.2" type="github">
  <diagram name="页-1" id="96BttOFGxMpu3FB7Xp25">
    <mxGraphModel dx="1590" dy="1038" grid="1" gridSize="10" guides="1" tooltips="1" connect="1" arrows="1" fold="1" page="1" pageScale="1" pageWidth="827" pageHeight="1169" math="0" shadow="0">
      <root>
        <mxCell id="0" />
        <mxCell id="1" parent="0" />
        <UserObject label="" tags="背景" id="lNSCyG1_joTPWja6P2LO-1">
          <mxCell style="vsdxID=1;fillColor=none;gradientColor=none;shape=stencil(nZBLDoAgDERP0z3SIyjew0SURgSD+Lu9kMZoXLhwN9O+tukAlrNpJg1SzDH4QW/URgNYgZTkjA4UkwJUgGXng+6DX1zLfmoymdXo17xh5zmRJ6Q42BWCfc2oJfdAr+Yv+AP9Cb7OJ3H/2JG1HNGz/84klThPVCc=);strokeColor=#4bacc6;strokeWidth=0;points=[];labelBackgroundColor=none;rounded=0;html=1;whiteSpace=wrap;" vertex="1" parent="1">
            <mxGeometry x="1163" y="482" width="220" height="171" as="geometry" />
          </mxCell>
        </UserObject>
        <UserObject label="" tags="背景" id="lNSCyG1_joTPWja6P2LO-2">
          <mxCell style="vsdxID=2;fillColor=none;gradientColor=none;shape=stencil(nZBLDoAgDERP0z3SIyjew0SURgSD+Lu9kMZoXLhwN9O+tukAlrNpJg1SzDH4QW/URgNYgZTkjA4UkwJUgGXng+6DX1zLfmoymdXo17xh5zmRJ6Q42BWCfc2oJfdAr+Yv+AP9Cb7OJ3H/2JG1HNGz/84klThPVCc=);strokeColor=#4bacc6;strokeWidth=0;points=[];labelBackgroundColor=none;rounded=0;html=1;whiteSpace=wrap;" vertex="1" parent="1">
            <mxGeometry x="913" y="479" width="163" height="179" as="geometry" />
          </mxCell>
        </UserObject>
        <UserObject label="" tags="背景" id="lNSCyG1_joTPWja6P2LO-3">
          <mxCell style="vsdxID=3;fillColor=none;gradientColor=none;shape=stencil(nZBLDoAgDERP0z3SIyjew0SURgSD+Lu9kMZoXLhwN9O+tukAlrNpJg1SzDH4QW/URgNYgZTkjA4UkwJUgGXng+6DX1zLfmoymdXo17xh5zmRJ6Q42BWCfc2oJfdAr+Yv+AP9Cb7OJ3H/2JG1HNGz/84klThPVCc=);strokeColor=#4bacc6;strokeWidth=0;points=[];labelBackgroundColor=none;rounded=0;html=1;whiteSpace=wrap;" vertex="1" parent="1">
            <mxGeometry x="1103" y="191" width="205" height="188" as="geometry" />
          </mxCell>
        </UserObject>
        <UserObject label="" tags="背景" id="lNSCyG1_joTPWja6P2LO-4">
          <mxCell style="vsdxID=4;fillColor=none;gradientColor=none;shape=stencil(nZBLDoAgDERP0z3SIyjew0SURgSD+Lu9kMZoXLhwN9O+tukAlrNpJg1SzDH4QW/URgNYgZTkjA4UkwJUgGXng+6DX1zLfmoymdXo17xh5zmRJ6Q42BWCfc2oJfdAr+Yv+AP9Cb7OJ3H/2JG1HNGz/84klThPVCc=);strokeColor=#4bacc6;strokeWidth=0;points=[];labelBackgroundColor=none;rounded=0;html=1;whiteSpace=wrap;" vertex="1" parent="1">
            <mxGeometry x="850" y="200" width="181" height="171" as="geometry" />
          </mxCell>
        </UserObject>
        <UserObject label="" tags="背景" id="lNSCyG1_joTPWja6P2LO-5">
          <mxCell style="vsdxID=5;fillColor=none;gradientColor=none;shape=stencil(UzV2Ls5ILEhVNTIoLinKz04tz0wpyVA1dlE1MsrMy0gtyiwBslSNXVWNndPyi1LTi/JL81Ig/IJEkEoQKze/DGRCBUSfAUiHkUElMs8NojAnMw+nQkMDPEoNDQz1zChRrgsTIMIlpKhFcURyTn5xKpwHZCCCKC0zJwcSwsjy6EEKFIJEh7ErAA==);dashed=1;strokeColor=#000000;strokeWidth=2;points=[];labelBackgroundColor=none;rounded=0;html=1;whiteSpace=wrap;" vertex="1" parent="1">
            <mxGeometry x="832" y="179" width="702" height="213" as="geometry" />
          </mxCell>
        </UserObject>
        <UserObject label="" BpmnName="协同效益" tags="流程图" id="lNSCyG1_joTPWja6P2LO-6">
          <mxCell style="vsdxID=6;fillColor=none;gradientColor=none;fillOpacity=85;strokeOpacity=65;strokeColor=none;points=[[0.25,0,0],[0.5,0,0],[0.75,0,0],[1,0.25,0],[1,0.5,0],[1,0.75,0],[0.75,0.75,0],[0.5,0.75,0],[0.25,0.75,0]];labelBackgroundColor=none;rounded=1;html=1;whiteSpace=wrap;" vertex="1" parent="1">
            <mxGeometry x="725" y="177" width="59" height="216" as="geometry" />
          </mxCell>
        </UserObject>
        <mxCell id="lNSCyG1_joTPWja6P2LO-7" style="vsdxID=7;fillColor=#eeb300;gradientColor=none;fillOpacity=85;shape=stencil(nZFLDsIwDERP4y0KyQKxLuUCnCAihliEpEpL+ZyetANS6YJFs7JnXmxpTKZqvW2YtGq7nC58F9d5MjvSWqLnLF2pyNRkqlPKfM7pFh36xhZSq1Fhhz/rgdbK5uNBXgxts9r+PjAYck39sPwBVMF6foYp9HugQeIE/ZqL4D/oQnC2vhRjPAhOQkC6U38eZ5FwClO/AQ==);strokeColor=#1f477d;points=[[0,0.75,0],[0,0.5,0],[0,0.25,0],[0.25,0,0],[0.5,0,0],[0.75,0,0],[1,0.25,0],[1,0.5,0],[1,0.75,0],[0.75,1,0],[0.5,1,0],[0.25,1,0]];labelBackgroundColor=none;rounded=1;html=1;whiteSpace=wrap;" vertex="1" parent="lNSCyG1_joTPWja6P2LO-6">
          <mxGeometry width="59" height="216" as="geometry" />
        </mxCell>
        <mxCell id="lNSCyG1_joTPWja6P2LO-8" value="&lt;div style=&quot;font-size: 1px&quot;&gt;&lt;/div&gt;" style="verticalAlign=middle;align=center;vsdxID=11;fillColor=none;gradientColor=none;strokeOpacity=65;strokeColor=none;strokeWidth=2;spacingTop=-3;spacingBottom=-3;spacingLeft=-3;spacingRight=-3;points=[[0,0.75,0],[0,0.5,0],[0,0.25,0],[0.25,0,0],[0.5,0,0],[0.75,0,0],[1,0.25,0],[1,0.5,0],[1,0.75,0],[0.75,1,0],[0.5,1,0],[0.25,1,0]];labelBackgroundColor=none;rounded=0;html=1;whiteSpace=wrap;" vertex="1" parent="lNSCyG1_joTPWja6P2LO-6">
          <mxGeometry x="30" y="197" width="16" height="16" as="geometry" />
        </mxCell>
        <mxCell id="lNSCyG1_joTPWja6P2LO-9" value="&lt;div style=&quot;font-size: 1px&quot;&gt;&lt;/div&gt;" style="verticalAlign=middle;align=center;vsdxID=19;fillColor=none;gradientColor=none;strokeOpacity=65;strokeColor=none;spacingTop=-1;spacingBottom=-1;spacingLeft=-1;spacingRight=-1;points=[[0,0.75,0],[0,0.5,0],[0,0.25,0],[0.25,0,0],[0.5,0,0],[0.75,0,0],[1,0.25,0],[1,0.5,0],[1,0.75,0],[0.75,1,0],[0.5,1,0],[0.25,1,0]];labelBackgroundColor=none;rounded=0;html=1;whiteSpace=wrap;" vertex="1" parent="lNSCyG1_joTPWja6P2LO-6">
          <mxGeometry x="4" y="4" width="14" height="14" as="geometry" />
        </mxCell>
        <mxCell id="lNSCyG1_joTPWja6P2LO-10" value="&lt;div style=&quot;font-size: 1px&quot;&gt;&lt;font style=&quot;font-size:33.87px;font-family:Microsoft YaHei;color:#000000;direction:ltr;letter-spacing:0px;line-height:120%;opacity:1&quot;&gt;&lt;b&gt;协同效益&lt;br/&gt;&lt;/b&gt;&lt;/font&gt;&lt;/div&gt;" style="text;vsdxID=6;fillColor=none;gradientColor=none;fillOpacity=85;strokeOpacity=65;strokeColor=none;points=[[0.25,0,0],[0.5,0,0],[0.75,0,0],[1,0.25,0],[1,0.5,0],[1,0.75,0],[0.75,0.75,0],[0.5,0.75,0],[0.25,0.75,0]];labelBackgroundColor=none;rounded=1;html=1;whiteSpace=wrap;verticalAlign=middle;align=center;;html=1;" vertex="1" parent="lNSCyG1_joTPWja6P2LO-6">
          <mxGeometry y="108" width="59.59" as="geometry" />
        </mxCell>
        <UserObject label="" BpmnName="利益分配" tags="流程图" id="lNSCyG1_joTPWja6P2LO-11">
          <mxCell style="vsdxID=29;fillColor=none;gradientColor=none;fillOpacity=85;strokeOpacity=65;strokeColor=none;points=[[0.25,0,0],[0.5,0,0],[0.75,0,0],[1,0.25,0],[1,0.5,0],[1,0.75,0],[0.75,0.75,0],[0.5,0.75,0],[0.25,0.75,0]];labelBackgroundColor=none;rounded=1;html=1;whiteSpace=wrap;" vertex="1" parent="1">
            <mxGeometry x="725" y="753" width="59" height="254" as="geometry" />
          </mxCell>
        </UserObject>
        <mxCell id="lNSCyG1_joTPWja6P2LO-12" style="vsdxID=30;fillColor=#eeb300;gradientColor=none;fillOpacity=85;shape=stencil(nZFLDsIwDERP4y0KyQKxLuUCnCAihliEpEpL+ZyetANS6YJFs7JnXmxpTKZqvW2YtGq7nC58F9d5MjvSWqLnLF2pyNRkqlPKfM7pFh36xhZSq1Fhhz/rgdbK5uNBXgxts9r+PjAYck39sPwBVMF6foYp9HugQeIE/ZqL4D/oQnC2vhRjPAhOQkC6U38eZ5FwClO/AQ==);strokeColor=#1f477d;points=[[0,0.75,0],[0,0.5,0],[0,0.25,0],[0.25,0,0],[0.5,0,0],[0.75,0,0],[1,0.25,0],[1,0.5,0],[1,0.75,0],[0.75,1,0],[0.5,1,0],[0.25,1,0]];labelBackgroundColor=none;rounded=1;html=1;whiteSpace=wrap;" vertex="1" parent="lNSCyG1_joTPWja6P2LO-11">
          <mxGeometry width="59" height="254" as="geometry" />
        </mxCell>
        <mxCell id="lNSCyG1_joTPWja6P2LO-13" value="&lt;div style=&quot;font-size: 1px&quot;&gt;&lt;/div&gt;" style="verticalAlign=middle;align=center;vsdxID=34;fillColor=none;gradientColor=none;strokeOpacity=65;strokeColor=none;strokeWidth=2;spacingTop=-3;spacingBottom=-3;spacingLeft=-3;spacingRight=-3;points=[[0,0.75,0],[0,0.5,0],[0,0.25,0],[0.25,0,0],[0.5,0,0],[0.75,0,0],[1,0.25,0],[1,0.5,0],[1,0.75,0],[0.75,1,0],[0.5,1,0],[0.25,1,0]];labelBackgroundColor=none;rounded=0;html=1;whiteSpace=wrap;" vertex="1" parent="lNSCyG1_joTPWja6P2LO-11">
          <mxGeometry x="30" y="235" width="16" height="16" as="geometry" />
        </mxCell>
        <mxCell id="lNSCyG1_joTPWja6P2LO-14" value="&lt;div style=&quot;font-size: 1px&quot;&gt;&lt;/div&gt;" style="verticalAlign=middle;align=center;vsdxID=42;fillColor=none;gradientColor=none;strokeOpacity=65;strokeColor=none;spacingTop=-1;spacingBottom=-1;spacingLeft=-1;spacingRight=-1;points=[[0,0.75,0],[0,0.5,0],[0,0.25,0],[0.25,0,0],[0.5,0,0],[0.75,0,0],[1,0.25,0],[1,0.5,0],[1,0.75,0],[0.75,1,0],[0.5,1,0],[0.25,1,0]];labelBackgroundColor=none;rounded=0;html=1;whiteSpace=wrap;" vertex="1" parent="lNSCyG1_joTPWja6P2LO-11">
          <mxGeometry x="4" y="4" width="14" height="14" as="geometry" />
        </mxCell>
        <mxCell id="lNSCyG1_joTPWja6P2LO-15" value="&lt;div style=&quot;font-size: 1px&quot;&gt;&lt;font style=&quot;font-size:33.87px;font-family:Microsoft YaHei;color:#000000;direction:ltr;letter-spacing:0px;line-height:120%;opacity:1&quot;&gt;&lt;b&gt;利益分配&lt;br/&gt;&lt;/b&gt;&lt;/font&gt;&lt;/div&gt;" style="text;vsdxID=29;fillColor=none;gradientColor=none;fillOpacity=85;strokeOpacity=65;strokeColor=none;points=[[0.25,0,0],[0.5,0,0],[0.75,0,0],[1,0.25,0],[1,0.5,0],[1,0.75,0],[0.75,0.75,0],[0.5,0.75,0],[0.25,0.75,0]];labelBackgroundColor=none;rounded=1;html=1;whiteSpace=wrap;verticalAlign=middle;align=center;;html=1;" vertex="1" parent="lNSCyG1_joTPWja6P2LO-11">
          <mxGeometry y="126.74" width="59.59" as="geometry" />
        </mxCell>
        <UserObject label="" tags="流程图" id="lNSCyG1_joTPWja6P2LO-16">
          <mxCell style="vsdxID=52;fillColor=none;gradientColor=none;points=[[0.25,0,0],[0.5,0,0],[0.75,0,0],[1,0.25,0],[1,0.5,0],[1,0.75,0],[0.75,0.75,0],[0.5,0.75,0],[0.25,0.75,0]];labelBackgroundColor=none;rounded=1;strokeColor=none;html=1;whiteSpace=wrap;" vertex="1" parent="1">
            <mxGeometry x="860" y="207" width="158" height="60" as="geometry" />
          </mxCell>
        </UserObject>
        <mxCell id="lNSCyG1_joTPWja6P2LO-17" style="vsdxID=53;fillColor=#9dbb61;gradientColor=none;shape=stencil(nZFLDsIwDERP4y0KyQKxLuUCnCAihliEpEpL+ZyetANS6YJFs7JnXmxpTKZqvW2YtGq7nC58F9d5MjvSWqLnLF2pyNRkqlPKfM7pFh36xhZSq1Fhhz/rgdbK5uNBXgxts9r+PjAYck39sPwBVMF6foYp9HugQeIE/ZqL4D/oQnC2vhRjPAhOQkC6U38eZ5FwClO/AQ==);points=[[0,0.75,0],[0,0.5,0],[0,0.25,0],[0.25,0,0],[0.5,0,0],[0.75,0,0],[1,0.25,0],[1,0.5,0],[1,0.75,0],[0.75,1,0],[0.5,1,0],[0.25,1,0]];labelBackgroundColor=none;rounded=1;html=1;whiteSpace=wrap;" vertex="1" parent="lNSCyG1_joTPWja6P2LO-16">
          <mxGeometry width="158" height="60" as="geometry" />
        </mxCell>
        <mxCell id="lNSCyG1_joTPWja6P2LO-18" value="&lt;div style=&quot;font-size: 1px&quot;&gt;&lt;/div&gt;" style="verticalAlign=middle;align=center;vsdxID=57;fillColor=none;gradientColor=none;strokeColor=none;strokeWidth=2;spacingTop=-3;spacingBottom=-3;spacingLeft=-3;spacingRight=-3;points=[[0,0.75,0],[0,0.5,0],[0,0.25,0],[0.25,0,0],[0.5,0,0],[0.75,0,0],[1,0.25,0],[1,0.5,0],[1,0.75,0],[0.75,1,0],[0.5,1,0],[0.25,1,0]];labelBackgroundColor=none;rounded=0;html=1;whiteSpace=wrap;" vertex="1" parent="lNSCyG1_joTPWja6P2LO-16">
          <mxGeometry x="80" y="41" width="16" height="16" as="geometry" />
        </mxCell>
        <mxCell id="lNSCyG1_joTPWja6P2LO-19" value="&lt;div style=&quot;font-size: 1px&quot;&gt;&lt;/div&gt;" style="verticalAlign=middle;align=center;vsdxID=65;fillColor=none;gradientColor=none;strokeColor=none;spacingTop=-1;spacingBottom=-1;spacingLeft=-1;spacingRight=-1;points=[[0,0.75,0],[0,0.5,0],[0,0.25,0],[0.25,0,0],[0.5,0,0],[0.75,0,0],[1,0.25,0],[1,0.5,0],[1,0.75,0],[0.75,1,0],[0.5,1,0],[0.25,1,0]];labelBackgroundColor=none;rounded=0;html=1;whiteSpace=wrap;" vertex="1" parent="lNSCyG1_joTPWja6P2LO-16">
          <mxGeometry x="4" y="4" width="14" height="14" as="geometry" />
        </mxCell>
        <mxCell id="lNSCyG1_joTPWja6P2LO-20" value="&lt;div style=&quot;font-size: 1px&quot;&gt;&lt;p style=&quot;align:center;margin-left:0;margin-right:0;margin-top:0px;margin-bottom:0px;text-indent:0;valign:middle;direction:ltr;&quot;&gt;&lt;font style=&quot;font-size:19.76px;font-family:Microsoft YaHei;color:#000000;direction:ltr;letter-spacing:0px;line-height:120%;opacity:1&quot;&gt;送端电网&lt;br/&gt;情况分析&lt;br/&gt;&lt;/font&gt;&lt;/p&gt;&lt;/div&gt;" style="text;vsdxID=52;fillColor=none;gradientColor=none;points=[[0.25,0,0],[0.5,0,0],[0.75,0,0],[1,0.25,0],[1,0.5,0],[1,0.75,0],[0.75,0.75,0],[0.5,0.75,0],[0.25,0.75,0]];labelBackgroundColor=none;rounded=1;strokeColor=none;html=1;whiteSpace=wrap;verticalAlign=middle;align=center;;html=1;" vertex="1" parent="lNSCyG1_joTPWja6P2LO-16">
          <mxGeometry y="30" width="158.06" as="geometry" />
        </mxCell>
        <UserObject label="" BpmnName="储能配置模式" tags="流程图" id="lNSCyG1_joTPWja6P2LO-21">
          <mxCell style="vsdxID=75;fillColor=none;gradientColor=none;points=[[0.25,0,0],[0.5,0,0],[0.75,0,0],[1,0.25,0],[1,0.5,0],[1,0.75,0],[0.75,0.75,0],[0.5,0.75,0],[0.25,0.75,0]];labelBackgroundColor=none;rounded=1;strokeColor=none;html=1;whiteSpace=wrap;" vertex="1" parent="1">
            <mxGeometry x="1109" y="194" width="193" height="59" as="geometry" />
          </mxCell>
        </UserObject>
        <mxCell id="lNSCyG1_joTPWja6P2LO-22" style="vsdxID=76;fillColor=#9dbb61;gradientColor=none;shape=stencil(nZFLDsIwDERP4y0KyQKxLuUCnCAihliEpEpL+ZyetANS6YJFs7JnXmxpTKZqvW2YtGq7nC58F9d5MjvSWqLnLF2pyNRkqlPKfM7pFh36xhZSq1Fhhz/rgdbK5uNBXgxts9r+PjAYck39sPwBVMF6foYp9HugQeIE/ZqL4D/oQnC2vhRjPAhOQkC6U38eZ5FwClO/AQ==);points=[[0,0.75,0],[0,0.5,0],[0,0.25,0],[0.25,0,0],[0.5,0,0],[0.75,0,0],[1,0.25,0],[1,0.5,0],[1,0.75,0],[0.75,1,0],[0.5,1,0],[0.25,1,0]];labelBackgroundColor=none;rounded=1;html=1;whiteSpace=wrap;" vertex="1" parent="lNSCyG1_joTPWja6P2LO-21">
          <mxGeometry width="193" height="59" as="geometry" />
        </mxCell>
        <mxCell id="lNSCyG1_joTPWja6P2LO-23" value="&lt;div style=&quot;font-size: 1px&quot;&gt;&lt;/div&gt;" style="verticalAlign=middle;align=center;vsdxID=80;fillColor=none;gradientColor=none;strokeColor=none;strokeWidth=2;spacingTop=-3;spacingBottom=-3;spacingLeft=-3;spacingRight=-3;points=[[0,0.75,0],[0,0.5,0],[0,0.25,0],[0.25,0,0],[0.5,0,0],[0.75,0,0],[1,0.25,0],[1,0.5,0],[1,0.75,0],[0.75,1,0],[0.5,1,0],[0.25,1,0]];labelBackgroundColor=none;rounded=0;html=1;whiteSpace=wrap;" vertex="1" parent="lNSCyG1_joTPWja6P2LO-21">
          <mxGeometry x="97" y="40" width="16" height="16" as="geometry" />
        </mxCell>
        <mxCell id="lNSCyG1_joTPWja6P2LO-24" value="&lt;div style=&quot;font-size: 1px&quot;&gt;&lt;/div&gt;" style="verticalAlign=middle;align=center;vsdxID=88;fillColor=none;gradientColor=none;strokeColor=none;spacingTop=-1;spacingBottom=-1;spacingLeft=-1;spacingRight=-1;points=[[0,0.75,0],[0,0.5,0],[0,0.25,0],[0.25,0,0],[0.5,0,0],[0.75,0,0],[1,0.25,0],[1,0.5,0],[1,0.75,0],[0.75,1,0],[0.5,1,0],[0.25,1,0]];labelBackgroundColor=none;rounded=0;html=1;whiteSpace=wrap;" vertex="1" parent="lNSCyG1_joTPWja6P2LO-21">
          <mxGeometry x="4" y="4" width="14" height="14" as="geometry" />
        </mxCell>
        <mxCell id="lNSCyG1_joTPWja6P2LO-25" value="&lt;div style=&quot;font-size: 1px&quot;&gt;&lt;font style=&quot;font-size:19.76px;font-family:Microsoft YaHei;color:#000000;direction:ltr;letter-spacing:0px;line-height:120%;opacity:1&quot;&gt;储能配置模式&lt;br/&gt;&lt;/font&gt;&lt;/div&gt;" style="text;vsdxID=75;fillColor=none;gradientColor=none;points=[[0.25,0,0],[0.5,0,0],[0.75,0,0],[1,0.25,0],[1,0.5,0],[1,0.75,0],[0.75,0.75,0],[0.5,0.75,0],[0.25,0.75,0]];labelBackgroundColor=none;rounded=1;strokeColor=none;html=1;whiteSpace=wrap;verticalAlign=middle;align=center;;html=1;" vertex="1" parent="lNSCyG1_joTPWja6P2LO-21">
          <mxGeometry y="29.4" width="193.02" as="geometry" />
        </mxCell>
        <UserObject label="" tags="背景" id="lNSCyG1_joTPWja6P2LO-26">
          <mxCell style="vsdxID=98;fillColor=none;gradientColor=none;shape=stencil(UzV2Ls5ILEhVNTIoLinKz04tz0wpyVA1dlE1MsrMy0gtyiwBslSNXVWNndPyi1LTi/JL81Ig/IJEkEoQKze/DGRCBUSfAUiHkUElMs8NojAnMw+nQkMDPEoNDQz1zChRrgsTIMIlpKhFcURyTn5xKpwHZCCCKC0zJwcSwsjy6EEKFIJEh7ErAA==);dashed=1;strokeColor=#000000;strokeWidth=2;points=[];labelBackgroundColor=none;rounded=0;html=1;whiteSpace=wrap;" vertex="1" parent="1">
            <mxGeometry x="838" y="457" width="702" height="230" as="geometry" />
          </mxCell>
        </UserObject>
        <UserObject label="" BpmnName="合作博弈模型" tags="流程图" id="lNSCyG1_joTPWja6P2LO-27">
          <mxCell style="vsdxID=122;fillColor=none;gradientColor=none;points=[[0.25,0,0],[0.5,0,0],[0.75,0,0],[1,0.25,0],[1,0.5,0],[1,0.75,0],[0.75,0.75,0],[0.5,0.75,0],[0.25,0.75,0]];labelBackgroundColor=none;rounded=1;strokeColor=none;html=1;whiteSpace=wrap;" vertex="1" parent="1">
            <mxGeometry x="1184" y="485" width="181" height="35" as="geometry" />
          </mxCell>
        </UserObject>
        <mxCell id="lNSCyG1_joTPWja6P2LO-28" style="vsdxID=123;fillColor=#00b0f0;gradientColor=none;shape=stencil(nZFLDsIwDERP4y0KyQKxLuUCnCAihliEpEpL+ZyetANS6YJFs7JnXmxpTKZqvW2YtGq7nC58F9d5MjvSWqLnLF2pyNRkqlPKfM7pFh36xhZSq1Fhhz/rgdbK5uNBXgxts9r+PjAYck39sPwBVMF6foYp9HugQeIE/ZqL4D/oQnC2vhRjPAhOQkC6U38eZ5FwClO/AQ==);points=[[0,0.75,0],[0,0.5,0],[0,0.25,0],[0.25,0,0],[0.5,0,0],[0.75,0,0],[1,0.25,0],[1,0.5,0],[1,0.75,0],[0.75,1,0],[0.5,1,0],[0.25,1,0]];labelBackgroundColor=none;rounded=1;html=1;whiteSpace=wrap;" vertex="1" parent="lNSCyG1_joTPWja6P2LO-27">
          <mxGeometry width="181" height="35" as="geometry" />
        </mxCell>
        <mxCell id="lNSCyG1_joTPWja6P2LO-29" value="&lt;div style=&quot;font-size: 1px&quot;&gt;&lt;/div&gt;" style="verticalAlign=middle;align=center;vsdxID=127;fillColor=none;gradientColor=none;strokeColor=none;strokeWidth=2;spacingTop=-3;spacingBottom=-3;spacingLeft=-3;spacingRight=-3;points=[[0,0.75,0],[0,0.5,0],[0,0.25,0],[0.25,0,0],[0.5,0,0],[0.75,0,0],[1,0.25,0],[1,0.5,0],[1,0.75,0],[0.75,1,0],[0.5,1,0],[0.25,1,0]];labelBackgroundColor=none;rounded=0;html=1;whiteSpace=wrap;" vertex="1" parent="lNSCyG1_joTPWja6P2LO-27">
          <mxGeometry x="91" y="16" width="16" height="16" as="geometry" />
        </mxCell>
        <mxCell id="lNSCyG1_joTPWja6P2LO-30" value="&lt;div style=&quot;font-size: 1px&quot;&gt;&lt;/div&gt;" style="verticalAlign=middle;align=center;vsdxID=135;fillColor=none;gradientColor=none;strokeColor=none;spacingTop=-1;spacingBottom=-1;spacingLeft=-1;spacingRight=-1;points=[[0,0.75,0],[0,0.5,0],[0,0.25,0],[0.25,0,0],[0.5,0,0],[0.75,0,0],[1,0.25,0],[1,0.5,0],[1,0.75,0],[0.75,1,0],[0.5,1,0],[0.25,1,0]];labelBackgroundColor=none;rounded=0;html=1;whiteSpace=wrap;" vertex="1" parent="lNSCyG1_joTPWja6P2LO-27">
          <mxGeometry x="4" y="4" width="14" height="14" as="geometry" />
        </mxCell>
        <mxCell id="lNSCyG1_joTPWja6P2LO-31" value="&lt;div style=&quot;font-size: 1px&quot;&gt;&lt;font style=&quot;font-size:19.76px;font-family:Microsoft YaHei;color:#000000;direction:ltr;letter-spacing:0px;line-height:120%;opacity:1&quot;&gt;合作博弈模型&lt;br/&gt;&lt;/font&gt;&lt;/div&gt;" style="text;vsdxID=122;fillColor=none;gradientColor=none;points=[[0.25,0,0],[0.5,0,0],[0.75,0,0],[1,0.25,0],[1,0.5,0],[1,0.75,0],[0.75,0.75,0],[0.5,0.75,0],[0.25,0.75,0]];labelBackgroundColor=none;rounded=1;strokeColor=none;html=1;whiteSpace=wrap;verticalAlign=middle;align=center;;html=1;" vertex="1" parent="lNSCyG1_joTPWja6P2LO-27">
          <mxGeometry y="17.18" width="181.19" as="geometry" />
        </mxCell>
        <UserObject label="" tags="背景" id="lNSCyG1_joTPWja6P2LO-32">
          <mxCell style="vsdxID=145;fillColor=none;gradientColor=none;shape=stencil(UzV2Ls5ILEhVNTIoLinKz04tz0wpyVA1dlE1MsrMy0gtyiwBslSNXVWNndPyi1LTi/JL81Ig/IJEkEoQKze/DGRCBUSfAUiHkUElMs8NojAnMw+nQkMDPEoNDQz1zChRrgsTIMIlpKhFcURyTn5xKpwHZCCCKC0zJwcSwsjy6EEKFIJEh7ErAA==);dashed=1;strokeColor=#000000;strokeWidth=2;points=[];labelBackgroundColor=none;rounded=0;html=1;whiteSpace=wrap;" vertex="1" parent="1">
            <mxGeometry x="836" y="753" width="718" height="254" as="geometry" />
          </mxCell>
        </UserObject>
        <UserObject label="" tags="连接线" id="lNSCyG1_joTPWja6P2LO-33">
          <mxCell style="vsdxID=147;edgeStyle=none;startArrow=none;endArrow=block;startSize=5;endSize=5;strokeWidth=4;strokeColor=#000000;spacingTop=0;spacingBottom=0;spacingLeft=0;spacingRight=0;verticalAlign=middle;html=1;labelBackgroundColor=#ffffff;rounded=0;" edge="1" parent="1">
            <mxGeometry relative="1" as="geometry">
              <mxPoint x="10" y="-1" as="offset" />
              <Array as="points" />
              <mxPoint x="1115" y="393" as="sourcePoint" />
              <mxPoint x="1115" y="462" as="targetPoint" />
            </mxGeometry>
          </mxCell>
        </UserObject>
        <UserObject label="&lt;div style=&quot;font-size: 1px&quot;&gt;&lt;/div&gt;" tags="背景" id="lNSCyG1_joTPWja6P2LO-34">
          <mxCell style="verticalAlign=middle;align=center;vsdxID=148;fillColor=#FFFFFF;gradientColor=none;shape=stencil(UzV2Ls5ILEhVNTIoLinKz04tz0wpyVA1dlE1MsrMy0gtyiwBslSNXVWNndPyi1LTi/JL81Ig/IJEkEoQKze/DGRCBUSfAUiHkUElhGdoAOG7QZTmZOYhKTUy1TM2RFGua2hKogbzgVQP8x15qvGGDbpiS9LcPaiUG+INFryBAmQgElpaZk4OJJ0iy6MnTKAQJFEbuwIA);strokeColor=#4bacc6;flipH=1;flipV=1;points=[];labelBackgroundColor=none;rounded=0;html=1;whiteSpace=wrap;" vertex="1" parent="1">
            <mxGeometry x="1037" y="292" width="63" height="1" as="geometry" />
          </mxCell>
        </UserObject>
        <UserObject label="&lt;div style=&quot;font-size: 1px&quot;&gt;&lt;/div&gt;" tags="背景" id="lNSCyG1_joTPWja6P2LO-35">
          <mxCell style="verticalAlign=middle;align=center;vsdxID=150;fillColor=#FFFFFF;gradientColor=none;shape=stencil(UzV2Ls5ILEhVNTIoLinKz04tz0wpyVA1dlE1MsrMy0gtyiwBslSNXVWNndPyi1LTi/JL81Ig/IJEkEoQKze/DGRCBUSfX6IfSI+RQSUq3w2iOCczb1TxqGKsioEMRKpKy8zJgSRKZHn0VAgUgqRgY1cA);flipH=1;flipV=1;points=[];labelBackgroundColor=none;rounded=0;html=1;whiteSpace=wrap;" vertex="1" parent="1">
            <mxGeometry x="822" y="572" as="geometry" />
          </mxCell>
        </UserObject>
        <UserObject label="&lt;div style=&quot;font-size: 1px&quot;&gt;&lt;/div&gt;" tags="背景" id="lNSCyG1_joTPWja6P2LO-36">
          <mxCell style="verticalAlign=middle;align=center;vsdxID=151;fillColor=#FFFFFF;gradientColor=none;shape=stencil(UzV2Ls5ILEhVNTIoLinKz04tz0wpyVA1dlE1MsrMy0gtyiwBslSNXVWNndPyi1LTi/JL81Ig/IJEkEoQKze/DGRCBUSfX6IfSI+RQSUq3w2iOCczb1TxqGKsioEMRKpKy8zJgSRKZHn0VAgUgqRgY1cA);flipH=1;flipV=1;points=[];labelBackgroundColor=none;rounded=0;html=1;whiteSpace=wrap;" vertex="1" parent="1">
            <mxGeometry x="822" y="572" as="geometry" />
          </mxCell>
        </UserObject>
        <UserObject label="" tags="连接线" id="lNSCyG1_joTPWja6P2LO-37">
          <mxCell style="vsdxID=152;edgeStyle=none;startArrow=none;endArrow=block;startSize=5;endSize=5;strokeWidth=4;strokeColor=#000000;spacingTop=0;spacingBottom=0;spacingLeft=0;spacingRight=0;verticalAlign=middle;html=1;labelBackgroundColor=#ffffff;rounded=0;" edge="1" parent="1">
            <mxGeometry relative="1" as="geometry">
              <mxPoint x="10" y="-1" as="offset" />
              <Array as="points" />
              <mxPoint x="1115" y="687" as="sourcePoint" />
              <mxPoint x="1115" y="757" as="targetPoint" />
            </mxGeometry>
          </mxCell>
        </UserObject>
        <UserObject label="" tags="背景" id="lNSCyG1_joTPWja6P2LO-38">
          <mxCell style="vsdxID=154;fillColor=none;gradientColor=none;shape=stencil(nZBLDoAgDERP0z3SIyjew0SURgSD+Lu9kMZoXLhwN9O+tukAlrNpJg1SzDH4QW/URgNYgZTkjA4UkwJUgGXng+6DX1zLfmoymdXo17xh5zmRJ6Q42BWCfc2oJfdAr+Yv+AP9Cb7OJ3H/2JG1HNGz/84klThPVCc=);strokeColor=#5880b3;strokeWidth=0;points=[];labelBackgroundColor=none;rounded=0;html=1;whiteSpace=wrap;" vertex="1" parent="1">
            <mxGeometry x="866" y="768" width="163" height="219" as="geometry" />
          </mxCell>
        </UserObject>
        <UserObject label="" tags="流程图" id="lNSCyG1_joTPWja6P2LO-39">
          <mxCell style="vsdxID=155;fillColor=none;gradientColor=none;points=[[0.25,0,0],[0.5,0,0],[0.75,0,0],[1,0.25,0],[1,0.5,0],[1,0.75,0],[0.75,0.75,0],[0.5,0.75,0],[0.25,0.75,0]];labelBackgroundColor=none;rounded=1;strokeColor=none;html=1;whiteSpace=wrap;" vertex="1" parent="1">
            <mxGeometry x="875" y="771" width="143" height="64" as="geometry" />
          </mxCell>
        </UserObject>
        <mxCell id="lNSCyG1_joTPWja6P2LO-40" style="vsdxID=156;fillColor=#ea700d;gradientColor=none;shape=stencil(nZFLDsIwDERP4y0KyQKxLuUCnCAihliEpEpL+ZyetANS6YJFs7JnXmxpTKZqvW2YtGq7nC58F9d5MjvSWqLnLF2pyNRkqlPKfM7pFh36xhZSq1Fhhz/rgdbK5uNBXgxts9r+PjAYck39sPwBVMF6foYp9HugQeIE/ZqL4D/oQnC2vhRjPAhOQkC6U38eZ5FwClO/AQ==);points=[[0,0.75,0],[0,0.5,0],[0,0.25,0],[0.25,0,0],[0.5,0,0],[0.75,0,0],[1,0.25,0],[1,0.5,0],[1,0.75,0],[0.75,1,0],[0.5,1,0],[0.25,1,0]];labelBackgroundColor=none;rounded=1;html=1;whiteSpace=wrap;" vertex="1" parent="lNSCyG1_joTPWja6P2LO-39">
          <mxGeometry width="143" height="64" as="geometry" />
        </mxCell>
        <mxCell id="lNSCyG1_joTPWja6P2LO-41" value="&lt;div style=&quot;font-size: 1px&quot;&gt;&lt;/div&gt;" style="verticalAlign=middle;align=center;vsdxID=160;fillColor=none;gradientColor=none;strokeColor=none;strokeWidth=2;spacingTop=-3;spacingBottom=-3;spacingLeft=-3;spacingRight=-3;points=[[0,0.75,0],[0,0.5,0],[0,0.25,0],[0.25,0,0],[0.5,0,0],[0.75,0,0],[1,0.25,0],[1,0.5,0],[1,0.75,0],[0.75,1,0],[0.5,1,0],[0.25,1,0]];labelBackgroundColor=none;rounded=0;html=1;whiteSpace=wrap;" vertex="1" parent="lNSCyG1_joTPWja6P2LO-39">
          <mxGeometry x="72" y="45" width="16" height="16" as="geometry" />
        </mxCell>
        <mxCell id="lNSCyG1_joTPWja6P2LO-42" value="&lt;div style=&quot;font-size: 1px&quot;&gt;&lt;/div&gt;" style="verticalAlign=middle;align=center;vsdxID=168;fillColor=none;gradientColor=none;strokeColor=none;spacingTop=-1;spacingBottom=-1;spacingLeft=-1;spacingRight=-1;points=[[0,0.75,0],[0,0.5,0],[0,0.25,0],[0.25,0,0],[0.5,0,0],[0.75,0,0],[1,0.25,0],[1,0.5,0],[1,0.75,0],[0.75,1,0],[0.5,1,0],[0.25,1,0]];labelBackgroundColor=none;rounded=0;html=1;whiteSpace=wrap;" vertex="1" parent="lNSCyG1_joTPWja6P2LO-39">
          <mxGeometry x="4" y="4" width="14" height="14" as="geometry" />
        </mxCell>
        <mxCell id="lNSCyG1_joTPWja6P2LO-43" value="&lt;div style=&quot;font-size: 1px&quot;&gt;&lt;font style=&quot;font-size:19.76px;font-family:Microsoft YaHei;color:#000000;direction:ltr;letter-spacing:0px;line-height:120%;opacity:1&quot;&gt;运行效益&lt;br/&gt;研究&lt;br/&gt;&lt;/font&gt;&lt;/div&gt;" style="text;vsdxID=155;fillColor=none;gradientColor=none;points=[[0.25,0,0],[0.5,0,0],[0.75,0,0],[1,0.25,0],[1,0.5,0],[1,0.75,0],[0.75,0.75,0],[0.5,0.75,0],[0.25,0.75,0]];labelBackgroundColor=none;rounded=1;strokeColor=none;html=1;whiteSpace=wrap;verticalAlign=middle;align=center;;html=1;" vertex="1" parent="lNSCyG1_joTPWja6P2LO-39">
          <mxGeometry y="31.75" width="143.08" as="geometry" />
        </mxCell>
        <UserObject label="" tags="背景" id="lNSCyG1_joTPWja6P2LO-44">
          <mxCell style="vsdxID=178;fillColor=none;gradientColor=none;shape=stencil(nZBLDoAgDERP0z3SIyjew0SURgSD+Lu9kMZoXLhwN9O+tukAlrNpJg1SzDH4QW/URgNYgZTkjA4UkwJUgGXng+6DX1zLfmoymdXo17xh5zmRJ6Q42BWCfc2oJfdAr+Yv+AP9Cb7OJ3H/2JG1HNGz/84klThPVCc=);strokeColor=#5880b3;strokeWidth=0;points=[];labelBackgroundColor=none;rounded=0;html=1;whiteSpace=wrap;" vertex="1" parent="1">
            <mxGeometry x="1113" y="768" width="163" height="219" as="geometry" />
          </mxCell>
        </UserObject>
        <UserObject label="" BpmnName="各主体贡献度量化" tags="流程图" id="lNSCyG1_joTPWja6P2LO-45">
          <mxCell style="vsdxID=179;fillColor=none;gradientColor=none;points=[[0.25,0,0],[0.5,0,0],[0.75,0,0],[1,0.25,0],[1,0.5,0],[1,0.75,0],[0.75,0.75,0],[0.5,0.75,0],[0.25,0.75,0]];labelBackgroundColor=none;rounded=1;strokeColor=none;html=1;whiteSpace=wrap;" vertex="1" parent="1">
            <mxGeometry x="1122" y="771" width="143" height="64" as="geometry" />
          </mxCell>
        </UserObject>
        <mxCell id="lNSCyG1_joTPWja6P2LO-46" style="vsdxID=180;fillColor=#ea700d;gradientColor=none;shape=stencil(nZFLDsIwDERP4y0KyQKxLuUCnCAihliEpEpL+ZyetANS6YJFs7JnXmxpTKZqvW2YtGq7nC58F9d5MjvSWqLnLF2pyNRkqlPKfM7pFh36xhZSq1Fhhz/rgdbK5uNBXgxts9r+PjAYck39sPwBVMF6foYp9HugQeIE/ZqL4D/oQnC2vhRjPAhOQkC6U38eZ5FwClO/AQ==);points=[[0,0.75,0],[0,0.5,0],[0,0.25,0],[0.25,0,0],[0.5,0,0],[0.75,0,0],[1,0.25,0],[1,0.5,0],[1,0.75,0],[0.75,1,0],[0.5,1,0],[0.25,1,0]];labelBackgroundColor=none;rounded=1;html=1;whiteSpace=wrap;" vertex="1" parent="lNSCyG1_joTPWja6P2LO-45">
          <mxGeometry width="143" height="64" as="geometry" />
        </mxCell>
        <mxCell id="lNSCyG1_joTPWja6P2LO-47" value="&lt;div style=&quot;font-size: 1px&quot;&gt;&lt;/div&gt;" style="verticalAlign=middle;align=center;vsdxID=184;fillColor=none;gradientColor=none;strokeColor=none;strokeWidth=2;spacingTop=-3;spacingBottom=-3;spacingLeft=-3;spacingRight=-3;points=[[0,0.75,0],[0,0.5,0],[0,0.25,0],[0.25,0,0],[0.5,0,0],[0.75,0,0],[1,0.25,0],[1,0.5,0],[1,0.75,0],[0.75,1,0],[0.5,1,0],[0.25,1,0]];labelBackgroundColor=none;rounded=0;html=1;whiteSpace=wrap;" vertex="1" parent="lNSCyG1_joTPWja6P2LO-45">
          <mxGeometry x="72" y="45" width="16" height="16" as="geometry" />
        </mxCell>
        <mxCell id="lNSCyG1_joTPWja6P2LO-48" value="&lt;div style=&quot;font-size: 1px&quot;&gt;&lt;/div&gt;" style="verticalAlign=middle;align=center;vsdxID=192;fillColor=none;gradientColor=none;strokeColor=none;spacingTop=-1;spacingBottom=-1;spacingLeft=-1;spacingRight=-1;points=[[0,0.75,0],[0,0.5,0],[0,0.25,0],[0.25,0,0],[0.5,0,0],[0.75,0,0],[1,0.25,0],[1,0.5,0],[1,0.75,0],[0.75,1,0],[0.5,1,0],[0.25,1,0]];labelBackgroundColor=none;rounded=0;html=1;whiteSpace=wrap;" vertex="1" parent="lNSCyG1_joTPWja6P2LO-45">
          <mxGeometry x="4" y="4" width="14" height="14" as="geometry" />
        </mxCell>
        <mxCell id="lNSCyG1_joTPWja6P2LO-49" value="&lt;div style=&quot;font-size: 1px&quot;&gt;&lt;font style=&quot;font-size:19.76px;font-family:Microsoft YaHei;color:#000000;direction:ltr;letter-spacing:0px;line-height:120%;opacity:1&quot;&gt;各主体贡献度量化&lt;br/&gt;&lt;/font&gt;&lt;/div&gt;" style="text;vsdxID=179;fillColor=none;gradientColor=none;points=[[0.25,0,0],[0.5,0,0],[0.75,0,0],[1,0.25,0],[1,0.5,0],[1,0.75,0],[0.75,0.75,0],[0.5,0.75,0],[0.25,0.75,0]];labelBackgroundColor=none;rounded=1;strokeColor=none;html=1;whiteSpace=wrap;verticalAlign=middle;align=center;;html=1;" vertex="1" parent="lNSCyG1_joTPWja6P2LO-45">
          <mxGeometry y="31.75" width="143.08" as="geometry" />
        </mxCell>
        <UserObject label="" tags="背景" id="lNSCyG1_joTPWja6P2LO-50">
          <mxCell style="vsdxID=202;fillColor=none;gradientColor=none;shape=stencil(nZBLDoAgDERP0z3SIyjew0SURgSD+Lu9kMZoXLhwN9O+tukAlrNpJg1SzDH4QW/URgNYgZTkjA4UkwJUgGXng+6DX1zLfmoymdXo17xh5zmRJ6Q42BWCfc2oJfdAr+Yv+AP9Cb7OJ3H/2JG1HNGz/84klThPVCc=);strokeColor=#5880b3;strokeWidth=0;points=[];labelBackgroundColor=none;rounded=0;html=1;whiteSpace=wrap;" vertex="1" parent="1">
            <mxGeometry x="1367" y="767" width="163" height="219" as="geometry" />
          </mxCell>
        </UserObject>
        <UserObject label="" tags="流程图" id="lNSCyG1_joTPWja6P2LO-51">
          <mxCell style="vsdxID=203;fillColor=none;gradientColor=none;points=[[0.25,0,0],[0.5,0,0],[0.75,0,0],[1,0.25,0],[1,0.5,0],[1,0.75,0],[0.75,0.75,0],[0.5,0.75,0],[0.25,0.75,0]];labelBackgroundColor=none;rounded=1;strokeColor=none;html=1;whiteSpace=wrap;" vertex="1" parent="1">
            <mxGeometry x="1376" y="770" width="143" height="64" as="geometry" />
          </mxCell>
        </UserObject>
        <mxCell id="lNSCyG1_joTPWja6P2LO-52" style="vsdxID=204;fillColor=#ea700d;gradientColor=none;shape=stencil(nZFLDsIwDERP4y0KyQKxLuUCnCAihliEpEpL+ZyetANS6YJFs7JnXmxpTKZqvW2YtGq7nC58F9d5MjvSWqLnLF2pyNRkqlPKfM7pFh36xhZSq1Fhhz/rgdbK5uNBXgxts9r+PjAYck39sPwBVMF6foYp9HugQeIE/ZqL4D/oQnC2vhRjPAhOQkC6U38eZ5FwClO/AQ==);points=[[0,0.75,0],[0,0.5,0],[0,0.25,0],[0.25,0,0],[0.5,0,0],[0.75,0,0],[1,0.25,0],[1,0.5,0],[1,0.75,0],[0.75,1,0],[0.5,1,0],[0.25,1,0]];labelBackgroundColor=none;rounded=1;html=1;whiteSpace=wrap;" vertex="1" parent="lNSCyG1_joTPWja6P2LO-51">
          <mxGeometry width="143" height="64" as="geometry" />
        </mxCell>
        <mxCell id="lNSCyG1_joTPWja6P2LO-53" value="&lt;div style=&quot;font-size: 1px&quot;&gt;&lt;/div&gt;" style="verticalAlign=middle;align=center;vsdxID=208;fillColor=none;gradientColor=none;strokeColor=none;strokeWidth=2;spacingTop=-3;spacingBottom=-3;spacingLeft=-3;spacingRight=-3;points=[[0,0.75,0],[0,0.5,0],[0,0.25,0],[0.25,0,0],[0.5,0,0],[0.75,0,0],[1,0.25,0],[1,0.5,0],[1,0.75,0],[0.75,1,0],[0.5,1,0],[0.25,1,0]];labelBackgroundColor=none;rounded=0;html=1;whiteSpace=wrap;" vertex="1" parent="lNSCyG1_joTPWja6P2LO-51">
          <mxGeometry x="72" y="45" width="16" height="16" as="geometry" />
        </mxCell>
        <mxCell id="lNSCyG1_joTPWja6P2LO-54" value="&lt;div style=&quot;font-size: 1px&quot;&gt;&lt;/div&gt;" style="verticalAlign=middle;align=center;vsdxID=216;fillColor=none;gradientColor=none;strokeColor=none;spacingTop=-1;spacingBottom=-1;spacingLeft=-1;spacingRight=-1;points=[[0,0.75,0],[0,0.5,0],[0,0.25,0],[0.25,0,0],[0.5,0,0],[0.75,0,0],[1,0.25,0],[1,0.5,0],[1,0.75,0],[0.75,1,0],[0.5,1,0],[0.25,1,0]];labelBackgroundColor=none;rounded=0;html=1;whiteSpace=wrap;" vertex="1" parent="lNSCyG1_joTPWja6P2LO-51">
          <mxGeometry x="4" y="4" width="14" height="14" as="geometry" />
        </mxCell>
        <mxCell id="lNSCyG1_joTPWja6P2LO-55" value="&lt;div style=&quot;font-size: 1px&quot;&gt;&lt;font style=&quot;font-size:19.76px;font-family:Microsoft YaHei;color:#000000;direction:ltr;letter-spacing:0px;line-height:120%;opacity:1&quot;&gt;利益分配&lt;br/&gt;机制&lt;br/&gt;&lt;/font&gt;&lt;/div&gt;" style="text;vsdxID=203;fillColor=none;gradientColor=none;points=[[0.25,0,0],[0.5,0,0],[0.75,0,0],[1,0.25,0],[1,0.5,0],[1,0.75,0],[0.75,0.75,0],[0.5,0.75,0],[0.25,0.75,0]];labelBackgroundColor=none;rounded=1;strokeColor=none;html=1;whiteSpace=wrap;verticalAlign=middle;align=center;;html=1;" vertex="1" parent="lNSCyG1_joTPWja6P2LO-51">
          <mxGeometry y="31.75" width="143.08" as="geometry" />
        </mxCell>
        <UserObject label="" tags="连接线" id="lNSCyG1_joTPWja6P2LO-56">
          <mxCell style="vsdxID=229;edgeStyle=none;dashed=1;startArrow=none;endArrow=block;startSize=5;endSize=5;strokeWidth=4;strokeColor=#c00000;spacingTop=0;spacingBottom=0;spacingLeft=0;spacingRight=0;verticalAlign=middle;html=1;labelBackgroundColor=#ffffff;rounded=0;" edge="1" parent="1">
            <mxGeometry relative="1" as="geometry">
              <mxPoint x="10" as="offset" />
              <Array as="points" />
              <mxPoint x="1215" y="453" as="sourcePoint" />
              <mxPoint x="1215" y="393" as="targetPoint" />
            </mxGeometry>
          </mxCell>
        </UserObject>
        <UserObject label="&lt;div style=&quot;font-size: 1px&quot;&gt;&lt;font style=&quot;font-size:16.93px;font-family:Microsoft YaHei;color:#000000;direction:ltr;letter-spacing:0px;line-height:120%;opacity:1&quot;&gt;&lt;b&gt;理论支撑&lt;br/&gt;&lt;/b&gt;&lt;/font&gt;&lt;/div&gt;" tags="背景" id="lNSCyG1_joTPWja6P2LO-57">
          <mxCell style="verticalAlign=middle;align=center;vsdxID=231;fillColor=none;gradientColor=none;shape=stencil(nZBLDoAgDERP0z3SIyjew0SURgSD+Lu9kMZoXLhwN9O+tukAlrNpJg1SzDH4QW/URgNYgZTkjA4UkwJUgGXng+6DX1zLfmoymdXo17xh5zmRJ6Q42BWCfc2oJfdAr+Yv+AP9Cb7OJ3H/2JG1HNGz/84klThPVCc=);strokeColor=none;points=[];labelBackgroundColor=none;rounded=0;html=1;whiteSpace=wrap;" vertex="1" parent="1">
            <mxGeometry x="944" y="409" width="214" height="28" as="geometry" />
          </mxCell>
        </UserObject>
        <UserObject label="&lt;div style=&quot;font-size: 1px&quot;&gt;&lt;font style=&quot;font-size:16.93px;font-family:Microsoft YaHei;color:#000000;direction:ltr;letter-spacing:0px;line-height:120%;opacity:1&quot;&gt;&lt;b&gt;最优模式&lt;br/&gt;&lt;/b&gt;&lt;/font&gt;&lt;/div&gt;" tags="背景" id="lNSCyG1_joTPWja6P2LO-58">
          <mxCell style="verticalAlign=middle;align=center;vsdxID=233;fillColor=none;gradientColor=none;shape=stencil(nZBLDoAgDERP0z3SIyjew0SURgSD+Lu9kMZoXLhwN9O+tukAlrNpJg1SzDH4QW/URgNYgZTkjA4UkwJUgGXng+6DX1zLfmoymdXo17xh5zmRJ6Q42BWCfc2oJfdAr+Yv+AP9Cb7OJ3H/2JG1HNGz/84klThPVCc=);strokeColor=none;points=[];labelBackgroundColor=none;rounded=0;html=1;whiteSpace=wrap;" vertex="1" parent="1">
            <mxGeometry x="951" y="707" width="214" height="28" as="geometry" />
          </mxCell>
        </UserObject>
        <UserObject label="&lt;div style=&quot;font-size: 1px&quot;&gt;&lt;font style=&quot;font-size:16.93px;font-family:Microsoft YaHei;color:#000000;direction:ltr;letter-spacing:0px;line-height:120%;opacity:1&quot;&gt;&lt;b&gt;效果反馈&lt;br/&gt;&lt;/b&gt;&lt;/font&gt;&lt;/div&gt;" tags="背景" id="lNSCyG1_joTPWja6P2LO-59">
          <mxCell style="verticalAlign=middle;align=center;vsdxID=234;fillColor=none;gradientColor=none;shape=stencil(nZBLDoAgDERP0z3SIyjew0SURgSD+Lu9kMZoXLhwN9O+tukAlrNpJg1SzDH4QW/URgNYgZTkjA4UkwJUgGXng+6DX1zLfmoymdXo17xh5zmRJ6Q42BWCfc2oJfdAr+Yv+AP9Cb7OJ3H/2JG1HNGz/84klThPVCc=);strokeColor=none;points=[];labelBackgroundColor=none;rounded=0;html=1;whiteSpace=wrap;" vertex="1" parent="1">
            <mxGeometry x="1160" y="412" width="214" height="28" as="geometry" />
          </mxCell>
        </UserObject>
        <UserObject label="" BpmnName="断面容量" tags="流程图" id="lNSCyG1_joTPWja6P2LO-60">
          <mxCell style="vsdxID=236;fillColor=none;gradientColor=none;fillOpacity=85;strokeOpacity=65;strokeColor=none;points=[[0.25,0,0],[0.5,0,0],[0.75,0,0],[1,0.25,0],[1,0.5,0],[1,0.75,0],[0.75,0.75,0],[0.5,0.75,0],[0.25,0.75,0]];labelBackgroundColor=none;rounded=1;html=1;whiteSpace=wrap;" vertex="1" parent="1">
            <mxGeometry x="869" y="280" width="143" height="35" as="geometry" />
          </mxCell>
        </UserObject>
        <mxCell id="lNSCyG1_joTPWja6P2LO-61" style="vsdxID=237;fillColor=#eaeff5;gradientColor=none;fillOpacity=85;shape=stencil(nZFLDsIwDERP4y0KyQKxLuUCnCAihliEpEpL+ZyetANS6YJFs7JnXmxpTKZqvW2YtGq7nC58F9d5MjvSWqLnLF2pyNRkqlPKfM7pFh36xhZSq1Fhhz/rgdbK5uNBXgxts9r+PjAYck39sPwBVMF6foYp9HugQeIE/ZqL4D/oQnC2vhRjPAhOQkC6U38eZ5FwClO/AQ==);strokeColor=#1f477d;points=[[0,0.75,0],[0,0.5,0],[0,0.25,0],[0.25,0,0],[0.5,0,0],[0.75,0,0],[1,0.25,0],[1,0.5,0],[1,0.75,0],[0.75,1,0],[0.5,1,0],[0.25,1,0]];labelBackgroundColor=none;rounded=1;html=1;whiteSpace=wrap;" vertex="1" parent="lNSCyG1_joTPWja6P2LO-60">
          <mxGeometry width="143" height="35" as="geometry" />
        </mxCell>
        <mxCell id="lNSCyG1_joTPWja6P2LO-62" value="&lt;div style=&quot;font-size: 1px&quot;&gt;&lt;/div&gt;" style="verticalAlign=middle;align=center;vsdxID=241;fillColor=none;gradientColor=none;strokeOpacity=65;strokeColor=none;strokeWidth=2;spacingTop=-3;spacingBottom=-3;spacingLeft=-3;spacingRight=-3;points=[[0,0.75,0],[0,0.5,0],[0,0.25,0],[0.25,0,0],[0.5,0,0],[0.75,0,0],[1,0.25,0],[1,0.5,0],[1,0.75,0],[0.75,1,0],[0.5,1,0],[0.25,1,0]];labelBackgroundColor=none;rounded=0;html=1;whiteSpace=wrap;" vertex="1" parent="lNSCyG1_joTPWja6P2LO-60">
          <mxGeometry x="72" y="16" width="16" height="16" as="geometry" />
        </mxCell>
        <mxCell id="lNSCyG1_joTPWja6P2LO-63" value="&lt;div style=&quot;font-size: 1px&quot;&gt;&lt;/div&gt;" style="verticalAlign=middle;align=center;vsdxID=249;fillColor=none;gradientColor=none;strokeOpacity=65;strokeColor=none;spacingTop=-1;spacingBottom=-1;spacingLeft=-1;spacingRight=-1;points=[[0,0.75,0],[0,0.5,0],[0,0.25,0],[0.25,0,0],[0.5,0,0],[0.75,0,0],[1,0.25,0],[1,0.5,0],[1,0.75,0],[0.75,1,0],[0.5,1,0],[0.25,1,0]];labelBackgroundColor=none;rounded=0;html=1;whiteSpace=wrap;" vertex="1" parent="lNSCyG1_joTPWja6P2LO-60">
          <mxGeometry x="4" y="4" width="14" height="14" as="geometry" />
        </mxCell>
        <mxCell id="lNSCyG1_joTPWja6P2LO-64" value="&lt;div style=&quot;font-size: 1px&quot;&gt;&lt;font style=&quot;font-size:19.76px;font-family:Microsoft YaHei;color:#000000;direction:ltr;letter-spacing:0px;line-height:120%;opacity:1&quot;&gt;断面容量&lt;br/&gt;&lt;/font&gt;&lt;/div&gt;" style="text;vsdxID=236;fillColor=none;gradientColor=none;fillOpacity=85;strokeOpacity=65;strokeColor=none;points=[[0.25,0,0],[0.5,0,0],[0.75,0,0],[1,0.25,0],[1,0.5,0],[1,0.75,0],[0.75,0.75,0],[0.5,0.75,0],[0.25,0.75,0]];labelBackgroundColor=none;rounded=1;html=1;whiteSpace=wrap;verticalAlign=middle;align=center;;html=1;" vertex="1" parent="lNSCyG1_joTPWja6P2LO-60">
          <mxGeometry y="17.18" width="143.08" as="geometry" />
        </mxCell>
        <UserObject label="" BpmnName="场站自用" tags="流程图" id="lNSCyG1_joTPWja6P2LO-65">
          <mxCell style="vsdxID=259;fillColor=none;gradientColor=none;fillOpacity=85;strokeOpacity=65;strokeColor=none;points=[[0.25,0,0],[0.5,0,0],[0.75,0,0],[1,0.25,0],[1,0.5,0],[1,0.75,0],[0.75,0.75,0],[0.5,0.75,0],[0.25,0.75,0]];labelBackgroundColor=none;rounded=1;html=1;whiteSpace=wrap;" vertex="1" parent="1">
            <mxGeometry x="1138" y="258" width="143" height="35" as="geometry" />
          </mxCell>
        </UserObject>
        <mxCell id="lNSCyG1_joTPWja6P2LO-66" style="vsdxID=260;fillColor=#eaeff5;gradientColor=none;fillOpacity=85;shape=stencil(nZFLDsIwDERP4y0KyQKxLuUCnCAihliEpEpL+ZyetANS6YJFs7JnXmxpTKZqvW2YtGq7nC58F9d5MjvSWqLnLF2pyNRkqlPKfM7pFh36xhZSq1Fhhz/rgdbK5uNBXgxts9r+PjAYck39sPwBVMF6foYp9HugQeIE/ZqL4D/oQnC2vhRjPAhOQkC6U38eZ5FwClO/AQ==);strokeColor=#1f477d;points=[[0,0.75,0],[0,0.5,0],[0,0.25,0],[0.25,0,0],[0.5,0,0],[0.75,0,0],[1,0.25,0],[1,0.5,0],[1,0.75,0],[0.75,1,0],[0.5,1,0],[0.25,1,0]];labelBackgroundColor=none;rounded=1;html=1;whiteSpace=wrap;" vertex="1" parent="lNSCyG1_joTPWja6P2LO-65">
          <mxGeometry width="143" height="35" as="geometry" />
        </mxCell>
        <mxCell id="lNSCyG1_joTPWja6P2LO-67" value="&lt;div style=&quot;font-size: 1px&quot;&gt;&lt;/div&gt;" style="verticalAlign=middle;align=center;vsdxID=264;fillColor=none;gradientColor=none;strokeOpacity=65;strokeColor=none;strokeWidth=2;spacingTop=-3;spacingBottom=-3;spacingLeft=-3;spacingRight=-3;points=[[0,0.75,0],[0,0.5,0],[0,0.25,0],[0.25,0,0],[0.5,0,0],[0.75,0,0],[1,0.25,0],[1,0.5,0],[1,0.75,0],[0.75,1,0],[0.5,1,0],[0.25,1,0]];labelBackgroundColor=none;rounded=0;html=1;whiteSpace=wrap;" vertex="1" parent="lNSCyG1_joTPWja6P2LO-65">
          <mxGeometry x="72" y="16" width="16" height="16" as="geometry" />
        </mxCell>
        <mxCell id="lNSCyG1_joTPWja6P2LO-68" value="&lt;div style=&quot;font-size: 1px&quot;&gt;&lt;/div&gt;" style="verticalAlign=middle;align=center;vsdxID=272;fillColor=none;gradientColor=none;strokeOpacity=65;strokeColor=none;spacingTop=-1;spacingBottom=-1;spacingLeft=-1;spacingRight=-1;points=[[0,0.75,0],[0,0.5,0],[0,0.25,0],[0.25,0,0],[0.5,0,0],[0.75,0,0],[1,0.25,0],[1,0.5,0],[1,0.75,0],[0.75,1,0],[0.5,1,0],[0.25,1,0]];labelBackgroundColor=none;rounded=0;html=1;whiteSpace=wrap;" vertex="1" parent="lNSCyG1_joTPWja6P2LO-65">
          <mxGeometry x="4" y="4" width="14" height="14" as="geometry" />
        </mxCell>
        <mxCell id="lNSCyG1_joTPWja6P2LO-69" value="&lt;div style=&quot;font-size: 1px&quot;&gt;&lt;font style=&quot;font-size:19.76px;font-family:Microsoft YaHei;color:#000000;direction:ltr;letter-spacing:0px;line-height:120%;opacity:1&quot;&gt;场站自用&lt;br/&gt;&lt;/font&gt;&lt;/div&gt;" style="text;vsdxID=259;fillColor=none;gradientColor=none;fillOpacity=85;strokeOpacity=65;strokeColor=none;points=[[0.25,0,0],[0.5,0,0],[0.75,0,0],[1,0.25,0],[1,0.5,0],[1,0.75,0],[0.75,0.75,0],[0.5,0.75,0],[0.25,0.75,0]];labelBackgroundColor=none;rounded=1;html=1;whiteSpace=wrap;verticalAlign=middle;align=center;;html=1;" vertex="1" parent="lNSCyG1_joTPWja6P2LO-65">
          <mxGeometry y="17.18" width="143.08" as="geometry" />
        </mxCell>
        <UserObject label="" BpmnName="部分共享" tags="流程图" id="lNSCyG1_joTPWja6P2LO-70">
          <mxCell style="vsdxID=282;fillColor=none;gradientColor=none;fillOpacity=85;strokeOpacity=65;strokeColor=none;points=[[0.25,0,0],[0.5,0,0],[0.75,0,0],[1,0.25,0],[1,0.5,0],[1,0.75,0],[0.75,0.75,0],[0.5,0.75,0],[0.25,0.75,0]];labelBackgroundColor=none;rounded=1;html=1;whiteSpace=wrap;" vertex="1" parent="1">
            <mxGeometry x="1138" y="298" width="143" height="35" as="geometry" />
          </mxCell>
        </UserObject>
        <mxCell id="lNSCyG1_joTPWja6P2LO-71" style="vsdxID=283;fillColor=#eaeff5;gradientColor=none;fillOpacity=85;shape=stencil(nZFLDsIwDERP4y0KyQKxLuUCnCAihliEpEpL+ZyetANS6YJFs7JnXmxpTKZqvW2YtGq7nC58F9d5MjvSWqLnLF2pyNRkqlPKfM7pFh36xhZSq1Fhhz/rgdbK5uNBXgxts9r+PjAYck39sPwBVMF6foYp9HugQeIE/ZqL4D/oQnC2vhRjPAhOQkC6U38eZ5FwClO/AQ==);strokeColor=#1f477d;points=[[0,0.75,0],[0,0.5,0],[0,0.25,0],[0.25,0,0],[0.5,0,0],[0.75,0,0],[1,0.25,0],[1,0.5,0],[1,0.75,0],[0.75,1,0],[0.5,1,0],[0.25,1,0]];labelBackgroundColor=none;rounded=1;html=1;whiteSpace=wrap;" vertex="1" parent="lNSCyG1_joTPWja6P2LO-70">
          <mxGeometry width="143" height="35" as="geometry" />
        </mxCell>
        <mxCell id="lNSCyG1_joTPWja6P2LO-72" value="&lt;div style=&quot;font-size: 1px&quot;&gt;&lt;/div&gt;" style="verticalAlign=middle;align=center;vsdxID=287;fillColor=none;gradientColor=none;strokeOpacity=65;strokeColor=none;strokeWidth=2;spacingTop=-3;spacingBottom=-3;spacingLeft=-3;spacingRight=-3;points=[[0,0.75,0],[0,0.5,0],[0,0.25,0],[0.25,0,0],[0.5,0,0],[0.75,0,0],[1,0.25,0],[1,0.5,0],[1,0.75,0],[0.75,1,0],[0.5,1,0],[0.25,1,0]];labelBackgroundColor=none;rounded=0;html=1;whiteSpace=wrap;" vertex="1" parent="lNSCyG1_joTPWja6P2LO-70">
          <mxGeometry x="72" y="16" width="16" height="16" as="geometry" />
        </mxCell>
        <mxCell id="lNSCyG1_joTPWja6P2LO-73" value="&lt;div style=&quot;font-size: 1px&quot;&gt;&lt;/div&gt;" style="verticalAlign=middle;align=center;vsdxID=295;fillColor=none;gradientColor=none;strokeOpacity=65;strokeColor=none;spacingTop=-1;spacingBottom=-1;spacingLeft=-1;spacingRight=-1;points=[[0,0.75,0],[0,0.5,0],[0,0.25,0],[0.25,0,0],[0.5,0,0],[0.75,0,0],[1,0.25,0],[1,0.5,0],[1,0.75,0],[0.75,1,0],[0.5,1,0],[0.25,1,0]];labelBackgroundColor=none;rounded=0;html=1;whiteSpace=wrap;" vertex="1" parent="lNSCyG1_joTPWja6P2LO-70">
          <mxGeometry x="4" y="4" width="14" height="14" as="geometry" />
        </mxCell>
        <mxCell id="lNSCyG1_joTPWja6P2LO-74" value="&lt;div style=&quot;font-size: 1px&quot;&gt;&lt;font style=&quot;font-size:19.76px;font-family:Microsoft YaHei;color:#000000;direction:ltr;letter-spacing:0px;line-height:120%;opacity:1&quot;&gt;部分共享&lt;br/&gt;&lt;/font&gt;&lt;/div&gt;" style="text;vsdxID=282;fillColor=none;gradientColor=none;fillOpacity=85;strokeOpacity=65;strokeColor=none;points=[[0.25,0,0],[0.5,0,0],[0.75,0,0],[1,0.25,0],[1,0.5,0],[1,0.75,0],[0.75,0.75,0],[0.5,0.75,0],[0.25,0.75,0]];labelBackgroundColor=none;rounded=1;html=1;whiteSpace=wrap;verticalAlign=middle;align=center;;html=1;" vertex="1" parent="lNSCyG1_joTPWja6P2LO-70">
          <mxGeometry y="17.18" width="143.08" as="geometry" />
        </mxCell>
        <UserObject label="" tags="流程图" id="lNSCyG1_joTPWja6P2LO-75">
          <mxCell style="vsdxID=330;fillColor=none;gradientColor=none;fillOpacity=85;strokeOpacity=65;strokeColor=none;points=[[0.25,0,0],[0.5,0,0],[0.75,0,0],[1,0.25,0],[1,0.5,0],[1,0.75,0],[0.75,0.75,0],[0.5,0.75,0],[0.25,0.75,0]];labelBackgroundColor=none;rounded=1;html=1;whiteSpace=wrap;" vertex="1" parent="1">
            <mxGeometry x="923" y="503" width="143" height="59" as="geometry" />
          </mxCell>
        </UserObject>
        <mxCell id="lNSCyG1_joTPWja6P2LO-76" style="vsdxID=331;fillColor=#eaeff5;gradientColor=none;fillOpacity=85;shape=stencil(nZFLDsIwDERP4y0KyQKxLuUCnCAihliEpEpL+ZyetANS6YJFs7JnXmxpTKZqvW2YtGq7nC58F9d5MjvSWqLnLF2pyNRkqlPKfM7pFh36xhZSq1Fhhz/rgdbK5uNBXgxts9r+PjAYck39sPwBVMF6foYp9HugQeIE/ZqL4D/oQnC2vhRjPAhOQkC6U38eZ5FwClO/AQ==);strokeColor=#1f477d;points=[[0,0.75,0],[0,0.5,0],[0,0.25,0],[0.25,0,0],[0.5,0,0],[0.75,0,0],[1,0.25,0],[1,0.5,0],[1,0.75,0],[0.75,1,0],[0.5,1,0],[0.25,1,0]];labelBackgroundColor=none;rounded=1;html=1;whiteSpace=wrap;" vertex="1" parent="lNSCyG1_joTPWja6P2LO-75">
          <mxGeometry width="143" height="59" as="geometry" />
        </mxCell>
        <mxCell id="lNSCyG1_joTPWja6P2LO-77" value="&lt;div style=&quot;font-size: 1px&quot;&gt;&lt;/div&gt;" style="verticalAlign=middle;align=center;vsdxID=335;fillColor=none;gradientColor=none;strokeOpacity=65;strokeColor=none;strokeWidth=2;spacingTop=-3;spacingBottom=-3;spacingLeft=-3;spacingRight=-3;points=[[0,0.75,0],[0,0.5,0],[0,0.25,0],[0.25,0,0],[0.5,0,0],[0.75,0,0],[1,0.25,0],[1,0.5,0],[1,0.75,0],[0.75,1,0],[0.5,1,0],[0.25,1,0]];labelBackgroundColor=none;rounded=0;html=1;whiteSpace=wrap;" vertex="1" parent="lNSCyG1_joTPWja6P2LO-75">
          <mxGeometry x="72" y="40" width="16" height="16" as="geometry" />
        </mxCell>
        <mxCell id="lNSCyG1_joTPWja6P2LO-78" value="&lt;div style=&quot;font-size: 1px&quot;&gt;&lt;/div&gt;" style="verticalAlign=middle;align=center;vsdxID=343;fillColor=none;gradientColor=none;strokeOpacity=65;strokeColor=none;spacingTop=-1;spacingBottom=-1;spacingLeft=-1;spacingRight=-1;points=[[0,0.75,0],[0,0.5,0],[0,0.25,0],[0.25,0,0],[0.5,0,0],[0.75,0,0],[1,0.25,0],[1,0.5,0],[1,0.75,0],[0.75,1,0],[0.5,1,0],[0.25,1,0]];labelBackgroundColor=none;rounded=0;html=1;whiteSpace=wrap;" vertex="1" parent="lNSCyG1_joTPWja6P2LO-75">
          <mxGeometry x="4" y="4" width="14" height="14" as="geometry" />
        </mxCell>
        <mxCell id="lNSCyG1_joTPWja6P2LO-79" value="&lt;div style=&quot;font-size: 1px&quot;&gt;&lt;p style=&quot;align:center;margin-left:0;margin-right:0;margin-top:0px;margin-bottom:0px;text-indent:0;valign:middle;direction:ltr;&quot;&gt;&lt;font style=&quot;font-size:19.76px;font-family:Microsoft YaHei;color:#000000;direction:ltr;letter-spacing:0px;line-height:120%;opacity:1&quot;&gt;新能源出力&lt;br/&gt;不确定性&lt;br/&gt;&lt;/font&gt;&lt;/p&gt;&lt;/div&gt;" style="text;vsdxID=330;fillColor=none;gradientColor=none;fillOpacity=85;strokeOpacity=65;strokeColor=none;points=[[0.25,0,0],[0.5,0,0],[0.75,0,0],[1,0.25,0],[1,0.5,0],[1,0.75,0],[0.75,0.75,0],[0.5,0.75,0],[0.25,0.75,0]];labelBackgroundColor=none;rounded=1;html=1;whiteSpace=wrap;verticalAlign=middle;align=center;;html=1;" vertex="1" parent="lNSCyG1_joTPWja6P2LO-75">
          <mxGeometry y="29.4" width="143.08" as="geometry" />
        </mxCell>
        <UserObject label="" BpmnName="新能源场站运行模型" tags="流程图" id="lNSCyG1_joTPWja6P2LO-80">
          <mxCell style="vsdxID=376;fillColor=none;gradientColor=none;fillOpacity=85;strokeOpacity=65;strokeColor=none;points=[[0.25,0,0],[0.5,0,0],[0.75,0,0],[1,0.25,0],[1,0.5,0],[1,0.75,0],[0.75,0.75,0],[0.5,0.75,0],[0.25,0.75,0]];labelBackgroundColor=none;rounded=1;html=1;whiteSpace=wrap;" vertex="1" parent="1">
            <mxGeometry x="1166" y="526" width="113" height="60" as="geometry" />
          </mxCell>
        </UserObject>
        <mxCell id="lNSCyG1_joTPWja6P2LO-81" style="vsdxID=377;fillColor=#eaeff5;gradientColor=none;fillOpacity=85;shape=stencil(nZFLDsIwDERP4y0KyQKxLuUCnCAihliEpEpL+ZyetANS6YJFs7JnXmxpTKZqvW2YtGq7nC58F9d5MjvSWqLnLF2pyNRkqlPKfM7pFh36xhZSq1Fhhz/rgdbK5uNBXgxts9r+PjAYck39sPwBVMF6foYp9HugQeIE/ZqL4D/oQnC2vhRjPAhOQkC6U38eZ5FwClO/AQ==);strokeColor=#1f477d;points=[[0,0.75,0],[0,0.5,0],[0,0.25,0],[0.25,0,0],[0.5,0,0],[0.75,0,0],[1,0.25,0],[1,0.5,0],[1,0.75,0],[0.75,1,0],[0.5,1,0],[0.25,1,0]];labelBackgroundColor=none;rounded=1;html=1;whiteSpace=wrap;" vertex="1" parent="lNSCyG1_joTPWja6P2LO-80">
          <mxGeometry width="113" height="60" as="geometry" />
        </mxCell>
        <mxCell id="lNSCyG1_joTPWja6P2LO-82" value="&lt;div style=&quot;font-size: 1px&quot;&gt;&lt;/div&gt;" style="verticalAlign=middle;align=center;vsdxID=381;fillColor=none;gradientColor=none;strokeOpacity=65;strokeColor=none;strokeWidth=2;spacingTop=-3;spacingBottom=-3;spacingLeft=-3;spacingRight=-3;points=[[0,0.75,0],[0,0.5,0],[0,0.25,0],[0.25,0,0],[0.5,0,0],[0.75,0,0],[1,0.25,0],[1,0.5,0],[1,0.75,0],[0.75,1,0],[0.5,1,0],[0.25,1,0]];labelBackgroundColor=none;rounded=0;html=1;whiteSpace=wrap;" vertex="1" parent="lNSCyG1_joTPWja6P2LO-80">
          <mxGeometry x="58" y="41" width="16" height="16" as="geometry" />
        </mxCell>
        <mxCell id="lNSCyG1_joTPWja6P2LO-83" value="&lt;div style=&quot;font-size: 1px&quot;&gt;&lt;/div&gt;" style="verticalAlign=middle;align=center;vsdxID=389;fillColor=none;gradientColor=none;strokeOpacity=65;strokeColor=none;spacingTop=-1;spacingBottom=-1;spacingLeft=-1;spacingRight=-1;points=[[0,0.75,0],[0,0.5,0],[0,0.25,0],[0.25,0,0],[0.5,0,0],[0.75,0,0],[1,0.25,0],[1,0.5,0],[1,0.75,0],[0.75,1,0],[0.5,1,0],[0.25,1,0]];labelBackgroundColor=none;rounded=0;html=1;whiteSpace=wrap;" vertex="1" parent="lNSCyG1_joTPWja6P2LO-80">
          <mxGeometry x="4" y="4" width="14" height="14" as="geometry" />
        </mxCell>
        <mxCell id="lNSCyG1_joTPWja6P2LO-84" value="&lt;div style=&quot;font-size: 1px&quot;&gt;&lt;font style=&quot;font-size:19.76px;font-family:Microsoft YaHei;color:#000000;direction:ltr;letter-spacing:0px;line-height:120%;opacity:1&quot;&gt;新能源场站运行模型&lt;br/&gt;&lt;/font&gt;&lt;/div&gt;" style="text;vsdxID=376;fillColor=none;gradientColor=none;fillOpacity=85;strokeOpacity=65;strokeColor=none;points=[[0.25,0,0],[0.5,0,0],[0.75,0,0],[1,0.25,0],[1,0.5,0],[1,0.75,0],[0.75,0.75,0],[0.5,0.75,0],[0.25,0.75,0]];labelBackgroundColor=none;rounded=1;html=1;whiteSpace=wrap;verticalAlign=middle;align=center;;html=1;" vertex="1" parent="lNSCyG1_joTPWja6P2LO-80">
          <mxGeometry y="30" width="113.85" as="geometry" />
        </mxCell>
        <UserObject label="" tags="流程图" id="lNSCyG1_joTPWja6P2LO-85">
          <mxCell style="vsdxID=399;fillColor=none;gradientColor=none;fillOpacity=85;strokeOpacity=65;strokeColor=none;points=[[0.25,0,0],[0.5,0,0],[0.75,0,0],[1,0.25,0],[1,0.5,0],[1,0.75,0],[0.75,0.75,0],[0.5,0.75,0],[0.25,0.75,0]];labelBackgroundColor=none;rounded=1;html=1;whiteSpace=wrap;" vertex="1" parent="1">
            <mxGeometry x="1166" y="595" width="113" height="52" as="geometry" />
          </mxCell>
        </UserObject>
        <mxCell id="lNSCyG1_joTPWja6P2LO-86" style="vsdxID=400;fillColor=#eaeff5;gradientColor=none;fillOpacity=85;shape=stencil(nZFLDsIwDERP4y0KyQKxLuUCnCAihliEpEpL+ZyetANS6YJFs7JnXmxpTKZqvW2YtGq7nC58F9d5MjvSWqLnLF2pyNRkqlPKfM7pFh36xhZSq1Fhhz/rgdbK5uNBXgxts9r+PjAYck39sPwBVMF6foYp9HugQeIE/ZqL4D/oQnC2vhRjPAhOQkC6U38eZ5FwClO/AQ==);strokeColor=#1f477d;points=[[0,0.75,0],[0,0.5,0],[0,0.25,0],[0.25,0,0],[0.5,0,0],[0.75,0,0],[1,0.25,0],[1,0.5,0],[1,0.75,0],[0.75,1,0],[0.5,1,0],[0.25,1,0]];labelBackgroundColor=none;rounded=1;html=1;whiteSpace=wrap;" vertex="1" parent="lNSCyG1_joTPWja6P2LO-85">
          <mxGeometry width="113" height="52" as="geometry" />
        </mxCell>
        <mxCell id="lNSCyG1_joTPWja6P2LO-87" value="&lt;div style=&quot;font-size: 1px&quot;&gt;&lt;/div&gt;" style="verticalAlign=middle;align=center;vsdxID=404;fillColor=none;gradientColor=none;strokeOpacity=65;strokeColor=none;strokeWidth=2;spacingTop=-3;spacingBottom=-3;spacingLeft=-3;spacingRight=-3;points=[[0,0.75,0],[0,0.5,0],[0,0.25,0],[0.25,0,0],[0.5,0,0],[0.75,0,0],[1,0.25,0],[1,0.5,0],[1,0.75,0],[0.75,1,0],[0.5,1,0],[0.25,1,0]];labelBackgroundColor=none;rounded=0;html=1;whiteSpace=wrap;" vertex="1" parent="lNSCyG1_joTPWja6P2LO-85">
          <mxGeometry x="58" y="33" width="16" height="16" as="geometry" />
        </mxCell>
        <mxCell id="lNSCyG1_joTPWja6P2LO-88" value="&lt;div style=&quot;font-size: 1px&quot;&gt;&lt;/div&gt;" style="verticalAlign=middle;align=center;vsdxID=412;fillColor=none;gradientColor=none;strokeOpacity=65;strokeColor=none;spacingTop=-1;spacingBottom=-1;spacingLeft=-1;spacingRight=-1;points=[[0,0.75,0],[0,0.5,0],[0,0.25,0],[0.25,0,0],[0.5,0,0],[0.75,0,0],[1,0.25,0],[1,0.5,0],[1,0.75,0],[0.75,1,0],[0.5,1,0],[0.25,1,0]];labelBackgroundColor=none;rounded=0;html=1;whiteSpace=wrap;" vertex="1" parent="lNSCyG1_joTPWja6P2LO-85">
          <mxGeometry x="4" y="4" width="14" height="14" as="geometry" />
        </mxCell>
        <mxCell id="lNSCyG1_joTPWja6P2LO-89" value="&lt;div style=&quot;font-size: 1px&quot;&gt;&lt;font style=&quot;font-size:19.76px;font-family:Microsoft YaHei;color:#000000;direction:ltr;letter-spacing:0px;line-height:120%;opacity:1&quot;&gt;储能&lt;br/&gt;运行模型&lt;br/&gt;&lt;/font&gt;&lt;/div&gt;" style="text;vsdxID=399;fillColor=none;gradientColor=none;fillOpacity=85;strokeOpacity=65;strokeColor=none;points=[[0.25,0,0],[0.5,0,0],[0.75,0,0],[1,0.25,0],[1,0.5,0],[1,0.75,0],[0.75,0.75,0],[0.5,0.75,0],[0.25,0.75,0]];labelBackgroundColor=none;rounded=1;html=1;whiteSpace=wrap;verticalAlign=middle;align=center;;html=1;" vertex="1" parent="lNSCyG1_joTPWja6P2LO-85">
          <mxGeometry y="26" width="113.85" as="geometry" />
        </mxCell>
        <UserObject label="" BpmnName="经济收益" tags="流程图" id="lNSCyG1_joTPWja6P2LO-90">
          <mxCell style="vsdxID=423;fillColor=none;gradientColor=none;fillOpacity=85;strokeOpacity=65;strokeColor=none;points=[[0.25,0,0],[0.5,0,0],[0.75,0,0],[1,0.25,0],[1,0.5,0],[1,0.75,0],[0.75,0.75,0],[0.5,0.75,0],[0.25,0.75,0]];labelBackgroundColor=none;rounded=1;html=1;whiteSpace=wrap;" vertex="1" parent="1">
            <mxGeometry x="874" y="849" width="143" height="35" as="geometry" />
          </mxCell>
        </UserObject>
        <mxCell id="lNSCyG1_joTPWja6P2LO-91" style="vsdxID=424;fillColor=#eaeff5;gradientColor=none;fillOpacity=85;shape=stencil(nZFLDsIwDERP4y0KyQKxLuUCnCAihliEpEpL+ZyetANS6YJFs7JnXmxpTKZqvW2YtGq7nC58F9d5MjvSWqLnLF2pyNRkqlPKfM7pFh36xhZSq1Fhhz/rgdbK5uNBXgxts9r+PjAYck39sPwBVMF6foYp9HugQeIE/ZqL4D/oQnC2vhRjPAhOQkC6U38eZ5FwClO/AQ==);strokeColor=#1f477d;points=[[0,0.75,0],[0,0.5,0],[0,0.25,0],[0.25,0,0],[0.5,0,0],[0.75,0,0],[1,0.25,0],[1,0.5,0],[1,0.75,0],[0.75,1,0],[0.5,1,0],[0.25,1,0]];labelBackgroundColor=none;rounded=1;html=1;whiteSpace=wrap;" vertex="1" parent="lNSCyG1_joTPWja6P2LO-90">
          <mxGeometry width="143" height="35" as="geometry" />
        </mxCell>
        <mxCell id="lNSCyG1_joTPWja6P2LO-92" value="&lt;div style=&quot;font-size: 1px&quot;&gt;&lt;/div&gt;" style="verticalAlign=middle;align=center;vsdxID=428;fillColor=none;gradientColor=none;strokeOpacity=65;strokeColor=none;strokeWidth=2;spacingTop=-3;spacingBottom=-3;spacingLeft=-3;spacingRight=-3;points=[[0,0.75,0],[0,0.5,0],[0,0.25,0],[0.25,0,0],[0.5,0,0],[0.75,0,0],[1,0.25,0],[1,0.5,0],[1,0.75,0],[0.75,1,0],[0.5,1,0],[0.25,1,0]];labelBackgroundColor=none;rounded=0;html=1;whiteSpace=wrap;" vertex="1" parent="lNSCyG1_joTPWja6P2LO-90">
          <mxGeometry x="72" y="16" width="16" height="16" as="geometry" />
        </mxCell>
        <mxCell id="lNSCyG1_joTPWja6P2LO-93" value="&lt;div style=&quot;font-size: 1px&quot;&gt;&lt;/div&gt;" style="verticalAlign=middle;align=center;vsdxID=436;fillColor=none;gradientColor=none;strokeOpacity=65;strokeColor=none;spacingTop=-1;spacingBottom=-1;spacingLeft=-1;spacingRight=-1;points=[[0,0.75,0],[0,0.5,0],[0,0.25,0],[0.25,0,0],[0.5,0,0],[0.75,0,0],[1,0.25,0],[1,0.5,0],[1,0.75,0],[0.75,1,0],[0.5,1,0],[0.25,1,0]];labelBackgroundColor=none;rounded=0;html=1;whiteSpace=wrap;" vertex="1" parent="lNSCyG1_joTPWja6P2LO-90">
          <mxGeometry x="4" y="4" width="14" height="14" as="geometry" />
        </mxCell>
        <mxCell id="lNSCyG1_joTPWja6P2LO-94" value="&lt;div style=&quot;font-size: 1px&quot;&gt;&lt;font style=&quot;font-size:19.76px;font-family:Microsoft YaHei;color:#000000;direction:ltr;letter-spacing:0px;line-height:120%;opacity:1&quot;&gt;经济收益&lt;br/&gt;&lt;/font&gt;&lt;/div&gt;" style="text;vsdxID=423;fillColor=none;gradientColor=none;fillOpacity=85;strokeOpacity=65;strokeColor=none;points=[[0.25,0,0],[0.5,0,0],[0.75,0,0],[1,0.25,0],[1,0.5,0],[1,0.75,0],[0.75,0.75,0],[0.5,0.75,0],[0.25,0.75,0]];labelBackgroundColor=none;rounded=1;html=1;whiteSpace=wrap;verticalAlign=middle;align=center;;html=1;" vertex="1" parent="lNSCyG1_joTPWja6P2LO-90">
          <mxGeometry y="17.18" width="143.08" as="geometry" />
        </mxCell>
        <UserObject label="" BpmnName="断面容量" tags="流程图" id="lNSCyG1_joTPWja6P2LO-95">
          <mxCell style="vsdxID=446;fillColor=none;gradientColor=none;fillOpacity=85;strokeOpacity=65;strokeColor=none;points=[[0.25,0,0],[0.5,0,0],[0.75,0,0],[1,0.25,0],[1,0.5,0],[1,0.75,0],[0.75,0.75,0],[0.5,0.75,0],[0.25,0.75,0]];labelBackgroundColor=none;rounded=1;html=1;whiteSpace=wrap;" vertex="1" parent="1">
            <mxGeometry x="874" y="894" width="143" height="35" as="geometry" />
          </mxCell>
        </UserObject>
        <mxCell id="lNSCyG1_joTPWja6P2LO-96" style="vsdxID=447;fillColor=#eaeff5;gradientColor=none;fillOpacity=85;shape=stencil(nZFLDsIwDERP4y0KyQKxLuUCnCAihliEpEpL+ZyetANS6YJFs7JnXmxpTKZqvW2YtGq7nC58F9d5MjvSWqLnLF2pyNRkqlPKfM7pFh36xhZSq1Fhhz/rgdbK5uNBXgxts9r+PjAYck39sPwBVMF6foYp9HugQeIE/ZqL4D/oQnC2vhRjPAhOQkC6U38eZ5FwClO/AQ==);strokeColor=#1f477d;points=[[0,0.75,0],[0,0.5,0],[0,0.25,0],[0.25,0,0],[0.5,0,0],[0.75,0,0],[1,0.25,0],[1,0.5,0],[1,0.75,0],[0.75,1,0],[0.5,1,0],[0.25,1,0]];labelBackgroundColor=none;rounded=1;html=1;whiteSpace=wrap;" vertex="1" parent="lNSCyG1_joTPWja6P2LO-95">
          <mxGeometry width="143" height="35" as="geometry" />
        </mxCell>
        <mxCell id="lNSCyG1_joTPWja6P2LO-97" value="&lt;div style=&quot;font-size: 1px&quot;&gt;&lt;/div&gt;" style="verticalAlign=middle;align=center;vsdxID=451;fillColor=none;gradientColor=none;strokeOpacity=65;strokeColor=none;strokeWidth=2;spacingTop=-3;spacingBottom=-3;spacingLeft=-3;spacingRight=-3;points=[[0,0.75,0],[0,0.5,0],[0,0.25,0],[0.25,0,0],[0.5,0,0],[0.75,0,0],[1,0.25,0],[1,0.5,0],[1,0.75,0],[0.75,1,0],[0.5,1,0],[0.25,1,0]];labelBackgroundColor=none;rounded=0;html=1;whiteSpace=wrap;" vertex="1" parent="lNSCyG1_joTPWja6P2LO-95">
          <mxGeometry x="72" y="16" width="16" height="16" as="geometry" />
        </mxCell>
        <mxCell id="lNSCyG1_joTPWja6P2LO-98" value="&lt;div style=&quot;font-size: 1px&quot;&gt;&lt;/div&gt;" style="verticalAlign=middle;align=center;vsdxID=459;fillColor=none;gradientColor=none;strokeOpacity=65;strokeColor=none;spacingTop=-1;spacingBottom=-1;spacingLeft=-1;spacingRight=-1;points=[[0,0.75,0],[0,0.5,0],[0,0.25,0],[0.25,0,0],[0.5,0,0],[0.75,0,0],[1,0.25,0],[1,0.5,0],[1,0.75,0],[0.75,1,0],[0.5,1,0],[0.25,1,0]];labelBackgroundColor=none;rounded=0;html=1;whiteSpace=wrap;" vertex="1" parent="lNSCyG1_joTPWja6P2LO-95">
          <mxGeometry x="4" y="4" width="14" height="14" as="geometry" />
        </mxCell>
        <mxCell id="lNSCyG1_joTPWja6P2LO-99" value="&lt;div style=&quot;font-size: 1px&quot;&gt;&lt;font style=&quot;font-size:19.76px;font-family:Microsoft YaHei;color:#000000;direction:ltr;letter-spacing:0px;line-height:120%;opacity:1&quot;&gt;断面容量&lt;br/&gt;&lt;/font&gt;&lt;/div&gt;" style="text;vsdxID=446;fillColor=none;gradientColor=none;fillOpacity=85;strokeOpacity=65;strokeColor=none;points=[[0.25,0,0],[0.5,0,0],[0.75,0,0],[1,0.25,0],[1,0.5,0],[1,0.75,0],[0.75,0.75,0],[0.5,0.75,0],[0.25,0.75,0]];labelBackgroundColor=none;rounded=1;html=1;whiteSpace=wrap;verticalAlign=middle;align=center;;html=1;" vertex="1" parent="lNSCyG1_joTPWja6P2LO-95">
          <mxGeometry y="17.18" width="143.08" as="geometry" />
        </mxCell>
        <UserObject label="" BpmnName="新能源消纳" tags="流程图" id="lNSCyG1_joTPWja6P2LO-100">
          <mxCell style="vsdxID=469;fillColor=none;gradientColor=none;fillOpacity=85;strokeOpacity=65;strokeColor=none;points=[[0.25,0,0],[0.5,0,0],[0.75,0,0],[1,0.25,0],[1,0.5,0],[1,0.75,0],[0.75,0.75,0],[0.5,0.75,0],[0.25,0.75,0]];labelBackgroundColor=none;rounded=1;html=1;whiteSpace=wrap;" vertex="1" parent="1">
            <mxGeometry x="874" y="936" width="143" height="35" as="geometry" />
          </mxCell>
        </UserObject>
        <mxCell id="lNSCyG1_joTPWja6P2LO-101" style="vsdxID=470;fillColor=#eaeff5;gradientColor=none;fillOpacity=85;shape=stencil(nZFLDsIwDERP4y0KyQKxLuUCnCAihliEpEpL+ZyetANS6YJFs7JnXmxpTKZqvW2YtGq7nC58F9d5MjvSWqLnLF2pyNRkqlPKfM7pFh36xhZSq1Fhhz/rgdbK5uNBXgxts9r+PjAYck39sPwBVMF6foYp9HugQeIE/ZqL4D/oQnC2vhRjPAhOQkC6U38eZ5FwClO/AQ==);strokeColor=#1f477d;points=[[0,0.75,0],[0,0.5,0],[0,0.25,0],[0.25,0,0],[0.5,0,0],[0.75,0,0],[1,0.25,0],[1,0.5,0],[1,0.75,0],[0.75,1,0],[0.5,1,0],[0.25,1,0]];labelBackgroundColor=none;rounded=1;html=1;whiteSpace=wrap;" vertex="1" parent="lNSCyG1_joTPWja6P2LO-100">
          <mxGeometry width="143" height="35" as="geometry" />
        </mxCell>
        <mxCell id="lNSCyG1_joTPWja6P2LO-102" value="&lt;div style=&quot;font-size: 1px&quot;&gt;&lt;/div&gt;" style="verticalAlign=middle;align=center;vsdxID=474;fillColor=none;gradientColor=none;strokeOpacity=65;strokeColor=none;strokeWidth=2;spacingTop=-3;spacingBottom=-3;spacingLeft=-3;spacingRight=-3;points=[[0,0.75,0],[0,0.5,0],[0,0.25,0],[0.25,0,0],[0.5,0,0],[0.75,0,0],[1,0.25,0],[1,0.5,0],[1,0.75,0],[0.75,1,0],[0.5,1,0],[0.25,1,0]];labelBackgroundColor=none;rounded=0;html=1;whiteSpace=wrap;" vertex="1" parent="lNSCyG1_joTPWja6P2LO-100">
          <mxGeometry x="72" y="16" width="16" height="16" as="geometry" />
        </mxCell>
        <mxCell id="lNSCyG1_joTPWja6P2LO-103" value="&lt;div style=&quot;font-size: 1px&quot;&gt;&lt;/div&gt;" style="verticalAlign=middle;align=center;vsdxID=482;fillColor=none;gradientColor=none;strokeOpacity=65;strokeColor=none;spacingTop=-1;spacingBottom=-1;spacingLeft=-1;spacingRight=-1;points=[[0,0.75,0],[0,0.5,0],[0,0.25,0],[0.25,0,0],[0.5,0,0],[0.75,0,0],[1,0.25,0],[1,0.5,0],[1,0.75,0],[0.75,1,0],[0.5,1,0],[0.25,1,0]];labelBackgroundColor=none;rounded=0;html=1;whiteSpace=wrap;" vertex="1" parent="lNSCyG1_joTPWja6P2LO-100">
          <mxGeometry x="4" y="4" width="14" height="14" as="geometry" />
        </mxCell>
        <mxCell id="lNSCyG1_joTPWja6P2LO-104" value="&lt;div style=&quot;font-size: 1px&quot;&gt;&lt;font style=&quot;font-size:19.76px;font-family:Microsoft YaHei;color:#000000;direction:ltr;letter-spacing:0px;line-height:120%;opacity:1&quot;&gt;新能源消纳&lt;br/&gt;&lt;/font&gt;&lt;/div&gt;" style="text;vsdxID=469;fillColor=none;gradientColor=none;fillOpacity=85;strokeOpacity=65;strokeColor=none;points=[[0.25,0,0],[0.5,0,0],[0.75,0,0],[1,0.25,0],[1,0.5,0],[1,0.75,0],[0.75,0.75,0],[0.5,0.75,0],[0.25,0.75,0]];labelBackgroundColor=none;rounded=1;html=1;whiteSpace=wrap;verticalAlign=middle;align=center;;html=1;" vertex="1" parent="lNSCyG1_joTPWja6P2LO-100">
          <mxGeometry y="17.18" width="143.08" as="geometry" />
        </mxCell>
        <UserObject label="" BpmnName="新能源发电量" tags="流程图" id="lNSCyG1_joTPWja6P2LO-105">
          <mxCell style="vsdxID=492;fillColor=none;gradientColor=none;fillOpacity=85;strokeOpacity=65;strokeColor=none;points=[[0.25,0,0],[0.5,0,0],[0.75,0,0],[1,0.25,0],[1,0.5,0],[1,0.75,0],[0.75,0.75,0],[0.5,0.75,0],[0.25,0.75,0]];labelBackgroundColor=none;rounded=1;html=1;whiteSpace=wrap;" vertex="1" parent="1">
            <mxGeometry x="1121" y="850" width="143" height="35" as="geometry" />
          </mxCell>
        </UserObject>
        <mxCell id="lNSCyG1_joTPWja6P2LO-106" style="vsdxID=493;fillColor=#eaeff5;gradientColor=none;fillOpacity=85;shape=stencil(nZFLDsIwDERP4y0KyQKxLuUCnCAihliEpEpL+ZyetANS6YJFs7JnXmxpTKZqvW2YtGq7nC58F9d5MjvSWqLnLF2pyNRkqlPKfM7pFh36xhZSq1Fhhz/rgdbK5uNBXgxts9r+PjAYck39sPwBVMF6foYp9HugQeIE/ZqL4D/oQnC2vhRjPAhOQkC6U38eZ5FwClO/AQ==);strokeColor=#1f477d;points=[[0,0.75,0],[0,0.5,0],[0,0.25,0],[0.25,0,0],[0.5,0,0],[0.75,0,0],[1,0.25,0],[1,0.5,0],[1,0.75,0],[0.75,1,0],[0.5,1,0],[0.25,1,0]];labelBackgroundColor=none;rounded=1;html=1;whiteSpace=wrap;" vertex="1" parent="lNSCyG1_joTPWja6P2LO-105">
          <mxGeometry width="143" height="35" as="geometry" />
        </mxCell>
        <mxCell id="lNSCyG1_joTPWja6P2LO-107" value="&lt;div style=&quot;font-size: 1px&quot;&gt;&lt;/div&gt;" style="verticalAlign=middle;align=center;vsdxID=497;fillColor=none;gradientColor=none;strokeOpacity=65;strokeColor=none;strokeWidth=2;spacingTop=-3;spacingBottom=-3;spacingLeft=-3;spacingRight=-3;points=[[0,0.75,0],[0,0.5,0],[0,0.25,0],[0.25,0,0],[0.5,0,0],[0.75,0,0],[1,0.25,0],[1,0.5,0],[1,0.75,0],[0.75,1,0],[0.5,1,0],[0.25,1,0]];labelBackgroundColor=none;rounded=0;html=1;whiteSpace=wrap;" vertex="1" parent="lNSCyG1_joTPWja6P2LO-105">
          <mxGeometry x="72" y="16" width="16" height="16" as="geometry" />
        </mxCell>
        <mxCell id="lNSCyG1_joTPWja6P2LO-108" value="&lt;div style=&quot;font-size: 1px&quot;&gt;&lt;/div&gt;" style="verticalAlign=middle;align=center;vsdxID=505;fillColor=none;gradientColor=none;strokeOpacity=65;strokeColor=none;spacingTop=-1;spacingBottom=-1;spacingLeft=-1;spacingRight=-1;points=[[0,0.75,0],[0,0.5,0],[0,0.25,0],[0.25,0,0],[0.5,0,0],[0.75,0,0],[1,0.25,0],[1,0.5,0],[1,0.75,0],[0.75,1,0],[0.5,1,0],[0.25,1,0]];labelBackgroundColor=none;rounded=0;html=1;whiteSpace=wrap;" vertex="1" parent="lNSCyG1_joTPWja6P2LO-105">
          <mxGeometry x="4" y="4" width="14" height="14" as="geometry" />
        </mxCell>
        <mxCell id="lNSCyG1_joTPWja6P2LO-109" value="&lt;div style=&quot;font-size: 1px&quot;&gt;&lt;font style=&quot;font-size:19.76px;font-family:Microsoft YaHei;color:#000000;direction:ltr;letter-spacing:0px;line-height:120%;opacity:1&quot;&gt;新能源发电量&lt;br/&gt;&lt;/font&gt;&lt;/div&gt;" style="text;vsdxID=492;fillColor=none;gradientColor=none;fillOpacity=85;strokeOpacity=65;strokeColor=none;points=[[0.25,0,0],[0.5,0,0],[0.75,0,0],[1,0.25,0],[1,0.5,0],[1,0.75,0],[0.75,0.75,0],[0.5,0.75,0],[0.25,0.75,0]];labelBackgroundColor=none;rounded=1;html=1;whiteSpace=wrap;verticalAlign=middle;align=center;;html=1;" vertex="1" parent="lNSCyG1_joTPWja6P2LO-105">
          <mxGeometry y="17.18" width="143.08" as="geometry" />
        </mxCell>
        <UserObject label="" BpmnName="送电容量提升" tags="流程图" id="lNSCyG1_joTPWja6P2LO-110">
          <mxCell style="vsdxID=515;fillColor=none;gradientColor=none;fillOpacity=85;strokeOpacity=65;strokeColor=none;points=[[0.25,0,0],[0.5,0,0],[0.75,0,0],[1,0.25,0],[1,0.5,0],[1,0.75,0],[0.75,0.75,0],[0.5,0.75,0],[0.25,0.75,0]];labelBackgroundColor=none;rounded=1;html=1;whiteSpace=wrap;" vertex="1" parent="1">
            <mxGeometry x="1121" y="892" width="143" height="35" as="geometry" />
          </mxCell>
        </UserObject>
        <mxCell id="lNSCyG1_joTPWja6P2LO-111" style="vsdxID=516;fillColor=#eaeff5;gradientColor=none;fillOpacity=85;shape=stencil(nZFLDsIwDERP4y0KyQKxLuUCnCAihliEpEpL+ZyetANS6YJFs7JnXmxpTKZqvW2YtGq7nC58F9d5MjvSWqLnLF2pyNRkqlPKfM7pFh36xhZSq1Fhhz/rgdbK5uNBXgxts9r+PjAYck39sPwBVMF6foYp9HugQeIE/ZqL4D/oQnC2vhRjPAhOQkC6U38eZ5FwClO/AQ==);strokeColor=#1f477d;points=[[0,0.75,0],[0,0.5,0],[0,0.25,0],[0.25,0,0],[0.5,0,0],[0.75,0,0],[1,0.25,0],[1,0.5,0],[1,0.75,0],[0.75,1,0],[0.5,1,0],[0.25,1,0]];labelBackgroundColor=none;rounded=1;html=1;whiteSpace=wrap;" vertex="1" parent="lNSCyG1_joTPWja6P2LO-110">
          <mxGeometry width="143" height="35" as="geometry" />
        </mxCell>
        <mxCell id="lNSCyG1_joTPWja6P2LO-112" value="&lt;div style=&quot;font-size: 1px&quot;&gt;&lt;/div&gt;" style="verticalAlign=middle;align=center;vsdxID=520;fillColor=none;gradientColor=none;strokeOpacity=65;strokeColor=none;strokeWidth=2;spacingTop=-3;spacingBottom=-3;spacingLeft=-3;spacingRight=-3;points=[[0,0.75,0],[0,0.5,0],[0,0.25,0],[0.25,0,0],[0.5,0,0],[0.75,0,0],[1,0.25,0],[1,0.5,0],[1,0.75,0],[0.75,1,0],[0.5,1,0],[0.25,1,0]];labelBackgroundColor=none;rounded=0;html=1;whiteSpace=wrap;" vertex="1" parent="lNSCyG1_joTPWja6P2LO-110">
          <mxGeometry x="72" y="16" width="16" height="16" as="geometry" />
        </mxCell>
        <mxCell id="lNSCyG1_joTPWja6P2LO-113" value="&lt;div style=&quot;font-size: 1px&quot;&gt;&lt;/div&gt;" style="verticalAlign=middle;align=center;vsdxID=528;fillColor=none;gradientColor=none;strokeOpacity=65;strokeColor=none;spacingTop=-1;spacingBottom=-1;spacingLeft=-1;spacingRight=-1;points=[[0,0.75,0],[0,0.5,0],[0,0.25,0],[0.25,0,0],[0.5,0,0],[0.75,0,0],[1,0.25,0],[1,0.5,0],[1,0.75,0],[0.75,1,0],[0.5,1,0],[0.25,1,0]];labelBackgroundColor=none;rounded=0;html=1;whiteSpace=wrap;" vertex="1" parent="lNSCyG1_joTPWja6P2LO-110">
          <mxGeometry x="4" y="4" width="14" height="14" as="geometry" />
        </mxCell>
        <mxCell id="lNSCyG1_joTPWja6P2LO-114" value="&lt;div style=&quot;font-size: 1px&quot;&gt;&lt;font style=&quot;font-size:19.76px;font-family:Microsoft YaHei;color:#000000;direction:ltr;letter-spacing:0px;line-height:120%;opacity:1&quot;&gt;送电容量提升&lt;br/&gt;&lt;/font&gt;&lt;/div&gt;" style="text;vsdxID=515;fillColor=none;gradientColor=none;fillOpacity=85;strokeOpacity=65;strokeColor=none;points=[[0.25,0,0],[0.5,0,0],[0.75,0,0],[1,0.25,0],[1,0.5,0],[1,0.75,0],[0.75,0.75,0],[0.5,0.75,0],[0.25,0.75,0]];labelBackgroundColor=none;rounded=1;html=1;whiteSpace=wrap;verticalAlign=middle;align=center;;html=1;" vertex="1" parent="lNSCyG1_joTPWja6P2LO-110">
          <mxGeometry y="17.18" width="143.08" as="geometry" />
        </mxCell>
        <UserObject label="" BpmnName="降低波动性" tags="流程图" id="lNSCyG1_joTPWja6P2LO-115">
          <mxCell style="vsdxID=538;fillColor=none;gradientColor=none;fillOpacity=85;strokeOpacity=65;strokeColor=none;points=[[0.25,0,0],[0.5,0,0],[0.75,0,0],[1,0.25,0],[1,0.5,0],[1,0.75,0],[0.75,0.75,0],[0.5,0.75,0],[0.25,0.75,0]];labelBackgroundColor=none;rounded=1;html=1;whiteSpace=wrap;" vertex="1" parent="1">
            <mxGeometry x="1121" y="936" width="143" height="35" as="geometry" />
          </mxCell>
        </UserObject>
        <mxCell id="lNSCyG1_joTPWja6P2LO-116" style="vsdxID=539;fillColor=#eaeff5;gradientColor=none;fillOpacity=85;shape=stencil(nZFLDsIwDERP4y0KyQKxLuUCnCAihliEpEpL+ZyetANS6YJFs7JnXmxpTKZqvW2YtGq7nC58F9d5MjvSWqLnLF2pyNRkqlPKfM7pFh36xhZSq1Fhhz/rgdbK5uNBXgxts9r+PjAYck39sPwBVMF6foYp9HugQeIE/ZqL4D/oQnC2vhRjPAhOQkC6U38eZ5FwClO/AQ==);strokeColor=#1f477d;points=[[0,0.75,0],[0,0.5,0],[0,0.25,0],[0.25,0,0],[0.5,0,0],[0.75,0,0],[1,0.25,0],[1,0.5,0],[1,0.75,0],[0.75,1,0],[0.5,1,0],[0.25,1,0]];labelBackgroundColor=none;rounded=1;html=1;whiteSpace=wrap;" vertex="1" parent="lNSCyG1_joTPWja6P2LO-115">
          <mxGeometry width="143" height="35" as="geometry" />
        </mxCell>
        <mxCell id="lNSCyG1_joTPWja6P2LO-117" value="&lt;div style=&quot;font-size: 1px&quot;&gt;&lt;/div&gt;" style="verticalAlign=middle;align=center;vsdxID=543;fillColor=none;gradientColor=none;strokeOpacity=65;strokeColor=none;strokeWidth=2;spacingTop=-3;spacingBottom=-3;spacingLeft=-3;spacingRight=-3;points=[[0,0.75,0],[0,0.5,0],[0,0.25,0],[0.25,0,0],[0.5,0,0],[0.75,0,0],[1,0.25,0],[1,0.5,0],[1,0.75,0],[0.75,1,0],[0.5,1,0],[0.25,1,0]];labelBackgroundColor=none;rounded=0;html=1;whiteSpace=wrap;" vertex="1" parent="lNSCyG1_joTPWja6P2LO-115">
          <mxGeometry x="72" y="16" width="16" height="16" as="geometry" />
        </mxCell>
        <mxCell id="lNSCyG1_joTPWja6P2LO-118" value="&lt;div style=&quot;font-size: 1px&quot;&gt;&lt;/div&gt;" style="verticalAlign=middle;align=center;vsdxID=551;fillColor=none;gradientColor=none;strokeOpacity=65;strokeColor=none;spacingTop=-1;spacingBottom=-1;spacingLeft=-1;spacingRight=-1;points=[[0,0.75,0],[0,0.5,0],[0,0.25,0],[0.25,0,0],[0.5,0,0],[0.75,0,0],[1,0.25,0],[1,0.5,0],[1,0.75,0],[0.75,1,0],[0.5,1,0],[0.25,1,0]];labelBackgroundColor=none;rounded=0;html=1;whiteSpace=wrap;" vertex="1" parent="lNSCyG1_joTPWja6P2LO-115">
          <mxGeometry x="4" y="4" width="14" height="14" as="geometry" />
        </mxCell>
        <mxCell id="lNSCyG1_joTPWja6P2LO-119" value="&lt;div style=&quot;font-size: 1px&quot;&gt;&lt;font style=&quot;font-size:19.76px;font-family:Microsoft YaHei;color:#000000;direction:ltr;letter-spacing:0px;line-height:120%;opacity:1&quot;&gt;降低波动性&lt;br/&gt;&lt;/font&gt;&lt;/div&gt;" style="text;vsdxID=538;fillColor=none;gradientColor=none;fillOpacity=85;strokeOpacity=65;strokeColor=none;points=[[0.25,0,0],[0.5,0,0],[0.75,0,0],[1,0.25,0],[1,0.5,0],[1,0.75,0],[0.75,0.75,0],[0.5,0.75,0],[0.25,0.75,0]];labelBackgroundColor=none;rounded=1;html=1;whiteSpace=wrap;verticalAlign=middle;align=center;;html=1;" vertex="1" parent="lNSCyG1_joTPWja6P2LO-115">
          <mxGeometry y="17.18" width="143.08" as="geometry" />
        </mxCell>
        <UserObject label="" BpmnName="系统阻塞管理" tags="流程图" id="lNSCyG1_joTPWja6P2LO-120">
          <mxCell style="vsdxID=561;fillColor=none;gradientColor=none;fillOpacity=85;strokeOpacity=65;strokeColor=none;points=[[0.25,0,0],[0.5,0,0],[0.75,0,0],[1,0.25,0],[1,0.5,0],[1,0.75,0],[0.75,0.75,0],[0.5,0.75,0],[0.25,0.75,0]];labelBackgroundColor=none;rounded=1;html=1;whiteSpace=wrap;" vertex="1" parent="1">
            <mxGeometry x="1379" y="846" width="143" height="45" as="geometry" />
          </mxCell>
        </UserObject>
        <mxCell id="lNSCyG1_joTPWja6P2LO-121" style="vsdxID=562;fillColor=#eaeff5;gradientColor=none;fillOpacity=85;shape=stencil(nZFLDsIwDERP4y0KyQKxLuUCnCAihliEpEpL+ZyetANS6YJFs7JnXmxpTKZqvW2YtGq7nC58F9d5MjvSWqLnLF2pyNRkqlPKfM7pFh36xhZSq1Fhhz/rgdbK5uNBXgxts9r+PjAYck39sPwBVMF6foYp9HugQeIE/ZqL4D/oQnC2vhRjPAhOQkC6U38eZ5FwClO/AQ==);strokeColor=#1f477d;points=[[0,0.75,0],[0,0.5,0],[0,0.25,0],[0.25,0,0],[0.5,0,0],[0.75,0,0],[1,0.25,0],[1,0.5,0],[1,0.75,0],[0.75,1,0],[0.5,1,0],[0.25,1,0]];labelBackgroundColor=none;rounded=1;html=1;whiteSpace=wrap;" vertex="1" parent="lNSCyG1_joTPWja6P2LO-120">
          <mxGeometry width="143" height="45" as="geometry" />
        </mxCell>
        <mxCell id="lNSCyG1_joTPWja6P2LO-122" value="&lt;div style=&quot;font-size: 1px&quot;&gt;&lt;/div&gt;" style="verticalAlign=middle;align=center;vsdxID=566;fillColor=none;gradientColor=none;strokeOpacity=65;strokeColor=none;strokeWidth=2;spacingTop=-3;spacingBottom=-3;spacingLeft=-3;spacingRight=-3;points=[[0,0.75,0],[0,0.5,0],[0,0.25,0],[0.25,0,0],[0.5,0,0],[0.75,0,0],[1,0.25,0],[1,0.5,0],[1,0.75,0],[0.75,1,0],[0.5,1,0],[0.25,1,0]];labelBackgroundColor=none;rounded=0;html=1;whiteSpace=wrap;" vertex="1" parent="lNSCyG1_joTPWja6P2LO-120">
          <mxGeometry x="72" y="26" width="16" height="16" as="geometry" />
        </mxCell>
        <mxCell id="lNSCyG1_joTPWja6P2LO-123" value="&lt;div style=&quot;font-size: 1px&quot;&gt;&lt;/div&gt;" style="verticalAlign=middle;align=center;vsdxID=574;fillColor=none;gradientColor=none;strokeOpacity=65;strokeColor=none;spacingTop=-1;spacingBottom=-1;spacingLeft=-1;spacingRight=-1;points=[[0,0.75,0],[0,0.5,0],[0,0.25,0],[0.25,0,0],[0.5,0,0],[0.75,0,0],[1,0.25,0],[1,0.5,0],[1,0.75,0],[0.75,1,0],[0.5,1,0],[0.25,1,0]];labelBackgroundColor=none;rounded=0;html=1;whiteSpace=wrap;" vertex="1" parent="lNSCyG1_joTPWja6P2LO-120">
          <mxGeometry x="4" y="4" width="14" height="14" as="geometry" />
        </mxCell>
        <mxCell id="lNSCyG1_joTPWja6P2LO-124" value="&lt;div style=&quot;font-size: 1px&quot;&gt;&lt;font style=&quot;font-size:19.76px;font-family:Microsoft YaHei;color:#000000;direction:ltr;letter-spacing:0px;line-height:120%;opacity:1&quot;&gt;系统阻塞管理&lt;br/&gt;&lt;/font&gt;&lt;/div&gt;" style="text;vsdxID=561;fillColor=none;gradientColor=none;fillOpacity=85;strokeOpacity=65;strokeColor=none;points=[[0.25,0,0],[0.5,0,0],[0.75,0,0],[1,0.25,0],[1,0.5,0],[1,0.75,0],[0.75,0.75,0],[0.5,0.75,0],[0.25,0.75,0]];labelBackgroundColor=none;rounded=1;html=1;whiteSpace=wrap;verticalAlign=middle;align=center;;html=1;" vertex="1" parent="lNSCyG1_joTPWja6P2LO-120">
          <mxGeometry y="22.37" width="143.08" as="geometry" />
        </mxCell>
        <UserObject label="" BpmnName="运行成本控制" tags="流程图" id="lNSCyG1_joTPWja6P2LO-125">
          <mxCell style="vsdxID=584;fillColor=none;gradientColor=none;fillOpacity=85;strokeOpacity=65;strokeColor=none;points=[[0.25,0,0],[0.5,0,0],[0.75,0,0],[1,0.25,0],[1,0.5,0],[1,0.75,0],[0.75,0.75,0],[0.5,0.75,0],[0.25,0.75,0]];labelBackgroundColor=none;rounded=1;html=1;whiteSpace=wrap;" vertex="1" parent="1">
            <mxGeometry x="1379" y="898" width="143" height="45" as="geometry" />
          </mxCell>
        </UserObject>
        <mxCell id="lNSCyG1_joTPWja6P2LO-126" style="vsdxID=585;fillColor=#eaeff5;gradientColor=none;fillOpacity=85;shape=stencil(nZFLDsIwDERP4y0KyQKxLuUCnCAihliEpEpL+ZyetANS6YJFs7JnXmxpTKZqvW2YtGq7nC58F9d5MjvSWqLnLF2pyNRkqlPKfM7pFh36xhZSq1Fhhz/rgdbK5uNBXgxts9r+PjAYck39sPwBVMF6foYp9HugQeIE/ZqL4D/oQnC2vhRjPAhOQkC6U38eZ5FwClO/AQ==);strokeColor=#1f477d;points=[[0,0.75,0],[0,0.5,0],[0,0.25,0],[0.25,0,0],[0.5,0,0],[0.75,0,0],[1,0.25,0],[1,0.5,0],[1,0.75,0],[0.75,1,0],[0.5,1,0],[0.25,1,0]];labelBackgroundColor=none;rounded=1;html=1;whiteSpace=wrap;" vertex="1" parent="lNSCyG1_joTPWja6P2LO-125">
          <mxGeometry width="143" height="45" as="geometry" />
        </mxCell>
        <mxCell id="lNSCyG1_joTPWja6P2LO-127" value="&lt;div style=&quot;font-size: 1px&quot;&gt;&lt;/div&gt;" style="verticalAlign=middle;align=center;vsdxID=589;fillColor=none;gradientColor=none;strokeOpacity=65;strokeColor=none;strokeWidth=2;spacingTop=-3;spacingBottom=-3;spacingLeft=-3;spacingRight=-3;points=[[0,0.75,0],[0,0.5,0],[0,0.25,0],[0.25,0,0],[0.5,0,0],[0.75,0,0],[1,0.25,0],[1,0.5,0],[1,0.75,0],[0.75,1,0],[0.5,1,0],[0.25,1,0]];labelBackgroundColor=none;rounded=0;html=1;whiteSpace=wrap;" vertex="1" parent="lNSCyG1_joTPWja6P2LO-125">
          <mxGeometry x="72" y="26" width="16" height="16" as="geometry" />
        </mxCell>
        <mxCell id="lNSCyG1_joTPWja6P2LO-128" value="&lt;div style=&quot;font-size: 1px&quot;&gt;&lt;/div&gt;" style="verticalAlign=middle;align=center;vsdxID=597;fillColor=none;gradientColor=none;strokeOpacity=65;strokeColor=none;spacingTop=-1;spacingBottom=-1;spacingLeft=-1;spacingRight=-1;points=[[0,0.75,0],[0,0.5,0],[0,0.25,0],[0.25,0,0],[0.5,0,0],[0.75,0,0],[1,0.25,0],[1,0.5,0],[1,0.75,0],[0.75,1,0],[0.5,1,0],[0.25,1,0]];labelBackgroundColor=none;rounded=0;html=1;whiteSpace=wrap;" vertex="1" parent="lNSCyG1_joTPWja6P2LO-125">
          <mxGeometry x="4" y="4" width="14" height="14" as="geometry" />
        </mxCell>
        <mxCell id="lNSCyG1_joTPWja6P2LO-129" value="&lt;div style=&quot;font-size: 1px&quot;&gt;&lt;font style=&quot;font-size:19.76px;font-family:Microsoft YaHei;color:#000000;direction:ltr;letter-spacing:0px;line-height:120%;opacity:1&quot;&gt;运行成本控制&lt;br/&gt;&lt;/font&gt;&lt;/div&gt;" style="text;vsdxID=584;fillColor=none;gradientColor=none;fillOpacity=85;strokeOpacity=65;strokeColor=none;points=[[0.25,0,0],[0.5,0,0],[0.75,0,0],[1,0.25,0],[1,0.5,0],[1,0.75,0],[0.75,0.75,0],[0.5,0.75,0],[0.25,0.75,0]];labelBackgroundColor=none;rounded=1;html=1;whiteSpace=wrap;verticalAlign=middle;align=center;;html=1;" vertex="1" parent="lNSCyG1_joTPWja6P2LO-125">
          <mxGeometry y="22.37" width="143.08" as="geometry" />
        </mxCell>
        <UserObject label="" BpmnName="工作状态" tags="流程图" id="lNSCyG1_joTPWja6P2LO-130">
          <mxCell style="vsdxID=607;fillColor=none;gradientColor=none;fillOpacity=85;strokeOpacity=65;strokeColor=none;points=[[0.25,0,0],[0.5,0,0],[0.75,0,0],[1,0.25,0],[1,0.5,0],[1,0.75,0],[0.75,0.75,0],[0.5,0.75,0],[0.25,0.75,0]];labelBackgroundColor=none;rounded=1;html=1;whiteSpace=wrap;" vertex="1" parent="1">
            <mxGeometry x="869" y="320" width="143" height="35" as="geometry" />
          </mxCell>
        </UserObject>
        <mxCell id="lNSCyG1_joTPWja6P2LO-131" style="vsdxID=608;fillColor=#eaeff5;gradientColor=none;fillOpacity=85;shape=stencil(nZFLDsIwDERP4y0KyQKxLuUCnCAihliEpEpL+ZyetANS6YJFs7JnXmxpTKZqvW2YtGq7nC58F9d5MjvSWqLnLF2pyNRkqlPKfM7pFh36xhZSq1Fhhz/rgdbK5uNBXgxts9r+PjAYck39sPwBVMF6foYp9HugQeIE/ZqL4D/oQnC2vhRjPAhOQkC6U38eZ5FwClO/AQ==);strokeColor=#1f477d;points=[[0,0.75,0],[0,0.5,0],[0,0.25,0],[0.25,0,0],[0.5,0,0],[0.75,0,0],[1,0.25,0],[1,0.5,0],[1,0.75,0],[0.75,1,0],[0.5,1,0],[0.25,1,0]];labelBackgroundColor=none;rounded=1;html=1;whiteSpace=wrap;" vertex="1" parent="lNSCyG1_joTPWja6P2LO-130">
          <mxGeometry width="143" height="35" as="geometry" />
        </mxCell>
        <mxCell id="lNSCyG1_joTPWja6P2LO-132" value="&lt;div style=&quot;font-size: 1px&quot;&gt;&lt;/div&gt;" style="verticalAlign=middle;align=center;vsdxID=612;fillColor=none;gradientColor=none;strokeOpacity=65;strokeColor=none;strokeWidth=2;spacingTop=-3;spacingBottom=-3;spacingLeft=-3;spacingRight=-3;points=[[0,0.75,0],[0,0.5,0],[0,0.25,0],[0.25,0,0],[0.5,0,0],[0.75,0,0],[1,0.25,0],[1,0.5,0],[1,0.75,0],[0.75,1,0],[0.5,1,0],[0.25,1,0]];labelBackgroundColor=none;rounded=0;html=1;whiteSpace=wrap;" vertex="1" parent="lNSCyG1_joTPWja6P2LO-130">
          <mxGeometry x="72" y="16" width="16" height="16" as="geometry" />
        </mxCell>
        <mxCell id="lNSCyG1_joTPWja6P2LO-133" value="&lt;div style=&quot;font-size: 1px&quot;&gt;&lt;/div&gt;" style="verticalAlign=middle;align=center;vsdxID=620;fillColor=none;gradientColor=none;strokeOpacity=65;strokeColor=none;spacingTop=-1;spacingBottom=-1;spacingLeft=-1;spacingRight=-1;points=[[0,0.75,0],[0,0.5,0],[0,0.25,0],[0.25,0,0],[0.5,0,0],[0.75,0,0],[1,0.25,0],[1,0.5,0],[1,0.75,0],[0.75,1,0],[0.5,1,0],[0.25,1,0]];labelBackgroundColor=none;rounded=0;html=1;whiteSpace=wrap;" vertex="1" parent="lNSCyG1_joTPWja6P2LO-130">
          <mxGeometry x="4" y="4" width="14" height="14" as="geometry" />
        </mxCell>
        <mxCell id="lNSCyG1_joTPWja6P2LO-134" value="&lt;div style=&quot;font-size: 1px&quot;&gt;&lt;font style=&quot;font-size:19.76px;font-family:Microsoft YaHei;color:#000000;direction:ltr;letter-spacing:0px;line-height:120%;opacity:1&quot;&gt;工作状态&lt;br/&gt;&lt;/font&gt;&lt;/div&gt;" style="text;vsdxID=607;fillColor=none;gradientColor=none;fillOpacity=85;strokeOpacity=65;strokeColor=none;points=[[0.25,0,0],[0.5,0,0],[0.75,0,0],[1,0.25,0],[1,0.5,0],[1,0.75,0],[0.75,0.75,0],[0.5,0.75,0],[0.25,0.75,0]];labelBackgroundColor=none;rounded=1;html=1;whiteSpace=wrap;verticalAlign=middle;align=center;;html=1;" vertex="1" parent="lNSCyG1_joTPWja6P2LO-130">
          <mxGeometry y="17.18" width="143.08" as="geometry" />
        </mxCell>
        <UserObject label="" BpmnName="运营模式" tags="流程图" id="lNSCyG1_joTPWja6P2LO-135">
          <mxCell style="vsdxID=630;fillColor=none;gradientColor=none;fillOpacity=85;strokeOpacity=65;strokeColor=none;points=[[0.25,0,0],[0.5,0,0],[0.75,0,0],[1,0.25,0],[1,0.5,0],[1,0.75,0],[0.75,0.75,0],[0.5,0.75,0],[0.25,0.75,0]];labelBackgroundColor=none;rounded=1;html=1;whiteSpace=wrap;" vertex="1" parent="1">
            <mxGeometry x="725" y="446" width="59" height="254" as="geometry" />
          </mxCell>
        </UserObject>
        <mxCell id="lNSCyG1_joTPWja6P2LO-136" style="vsdxID=631;fillColor=#eeb300;gradientColor=none;fillOpacity=85;shape=stencil(nZFLDsIwDERP4y0KyQKxLuUCnCAihliEpEpL+ZyetANS6YJFs7JnXmxpTKZqvW2YtGq7nC58F9d5MjvSWqLnLF2pyNRkqlPKfM7pFh36xhZSq1Fhhz/rgdbK5uNBXgxts9r+PjAYck39sPwBVMF6foYp9HugQeIE/ZqL4D/oQnC2vhRjPAhOQkC6U38eZ5FwClO/AQ==);strokeColor=#1f477d;points=[[0,0.75,0],[0,0.5,0],[0,0.25,0],[0.25,0,0],[0.5,0,0],[0.75,0,0],[1,0.25,0],[1,0.5,0],[1,0.75,0],[0.75,1,0],[0.5,1,0],[0.25,1,0]];labelBackgroundColor=none;rounded=1;html=1;whiteSpace=wrap;" vertex="1" parent="lNSCyG1_joTPWja6P2LO-135">
          <mxGeometry width="59" height="254" as="geometry" />
        </mxCell>
        <mxCell id="lNSCyG1_joTPWja6P2LO-137" value="&lt;div style=&quot;font-size: 1px&quot;&gt;&lt;/div&gt;" style="verticalAlign=middle;align=center;vsdxID=635;fillColor=none;gradientColor=none;strokeOpacity=65;strokeColor=none;strokeWidth=2;spacingTop=-3;spacingBottom=-3;spacingLeft=-3;spacingRight=-3;points=[[0,0.75,0],[0,0.5,0],[0,0.25,0],[0.25,0,0],[0.5,0,0],[0.75,0,0],[1,0.25,0],[1,0.5,0],[1,0.75,0],[0.75,1,0],[0.5,1,0],[0.25,1,0]];labelBackgroundColor=none;rounded=0;html=1;whiteSpace=wrap;" vertex="1" parent="lNSCyG1_joTPWja6P2LO-135">
          <mxGeometry x="30" y="235" width="16" height="16" as="geometry" />
        </mxCell>
        <mxCell id="lNSCyG1_joTPWja6P2LO-138" value="&lt;div style=&quot;font-size: 1px&quot;&gt;&lt;/div&gt;" style="verticalAlign=middle;align=center;vsdxID=643;fillColor=none;gradientColor=none;strokeOpacity=65;strokeColor=none;spacingTop=-1;spacingBottom=-1;spacingLeft=-1;spacingRight=-1;points=[[0,0.75,0],[0,0.5,0],[0,0.25,0],[0.25,0,0],[0.5,0,0],[0.75,0,0],[1,0.25,0],[1,0.5,0],[1,0.75,0],[0.75,1,0],[0.5,1,0],[0.25,1,0]];labelBackgroundColor=none;rounded=0;html=1;whiteSpace=wrap;" vertex="1" parent="lNSCyG1_joTPWja6P2LO-135">
          <mxGeometry x="4" y="4" width="14" height="14" as="geometry" />
        </mxCell>
        <mxCell id="lNSCyG1_joTPWja6P2LO-139" value="&lt;div style=&quot;font-size: 1px&quot;&gt;&lt;font style=&quot;font-size:33.87px;font-family:Microsoft YaHei;color:#000000;direction:ltr;letter-spacing:0px;line-height:120%;opacity:1&quot;&gt;&lt;b&gt;运营模式&lt;br/&gt;&lt;/b&gt;&lt;/font&gt;&lt;/div&gt;" style="text;vsdxID=630;fillColor=none;gradientColor=none;fillOpacity=85;strokeOpacity=65;strokeColor=none;points=[[0.25,0,0],[0.5,0,0],[0.75,0,0],[1,0.25,0],[1,0.5,0],[1,0.75,0],[0.75,0.75,0],[0.5,0.75,0],[0.25,0.75,0]];labelBackgroundColor=none;rounded=1;html=1;whiteSpace=wrap;verticalAlign=middle;align=center;;html=1;" vertex="1" parent="lNSCyG1_joTPWja6P2LO-135">
          <mxGeometry y="126.74" width="59.59" as="geometry" />
        </mxCell>
        <UserObject label="" BpmnName="集中调控" tags="流程图" id="lNSCyG1_joTPWja6P2LO-140">
          <mxCell style="vsdxID=655;fillColor=none;gradientColor=none;fillOpacity=85;strokeOpacity=65;strokeColor=none;points=[[0.25,0,0],[0.5,0,0],[0.75,0,0],[1,0.25,0],[1,0.5,0],[1,0.75,0],[0.75,0.75,0],[0.5,0.75,0],[0.25,0.75,0]];labelBackgroundColor=none;rounded=1;html=1;whiteSpace=wrap;" vertex="1" parent="1">
            <mxGeometry x="1138" y="338" width="143" height="35" as="geometry" />
          </mxCell>
        </UserObject>
        <mxCell id="lNSCyG1_joTPWja6P2LO-141" style="vsdxID=656;fillColor=#eaeff5;gradientColor=none;fillOpacity=85;shape=stencil(nZFLDsIwDERP4y0KyQKxLuUCnCAihliEpEpL+ZyetANS6YJFs7JnXmxpTKZqvW2YtGq7nC58F9d5MjvSWqLnLF2pyNRkqlPKfM7pFh36xhZSq1Fhhz/rgdbK5uNBXgxts9r+PjAYck39sPwBVMF6foYp9HugQeIE/ZqL4D/oQnC2vhRjPAhOQkC6U38eZ5FwClO/AQ==);strokeColor=#1f477d;points=[[0,0.75,0],[0,0.5,0],[0,0.25,0],[0.25,0,0],[0.5,0,0],[0.75,0,0],[1,0.25,0],[1,0.5,0],[1,0.75,0],[0.75,1,0],[0.5,1,0],[0.25,1,0]];labelBackgroundColor=none;rounded=1;html=1;whiteSpace=wrap;" vertex="1" parent="lNSCyG1_joTPWja6P2LO-140">
          <mxGeometry width="143" height="35" as="geometry" />
        </mxCell>
        <mxCell id="lNSCyG1_joTPWja6P2LO-142" value="&lt;div style=&quot;font-size: 1px&quot;&gt;&lt;/div&gt;" style="verticalAlign=middle;align=center;vsdxID=660;fillColor=none;gradientColor=none;strokeOpacity=65;strokeColor=none;strokeWidth=2;spacingTop=-3;spacingBottom=-3;spacingLeft=-3;spacingRight=-3;points=[[0,0.75,0],[0,0.5,0],[0,0.25,0],[0.25,0,0],[0.5,0,0],[0.75,0,0],[1,0.25,0],[1,0.5,0],[1,0.75,0],[0.75,1,0],[0.5,1,0],[0.25,1,0]];labelBackgroundColor=none;rounded=0;html=1;whiteSpace=wrap;" vertex="1" parent="lNSCyG1_joTPWja6P2LO-140">
          <mxGeometry x="72" y="16" width="16" height="16" as="geometry" />
        </mxCell>
        <mxCell id="lNSCyG1_joTPWja6P2LO-143" value="&lt;div style=&quot;font-size: 1px&quot;&gt;&lt;/div&gt;" style="verticalAlign=middle;align=center;vsdxID=668;fillColor=none;gradientColor=none;strokeOpacity=65;strokeColor=none;spacingTop=-1;spacingBottom=-1;spacingLeft=-1;spacingRight=-1;points=[[0,0.75,0],[0,0.5,0],[0,0.25,0],[0.25,0,0],[0.5,0,0],[0.75,0,0],[1,0.25,0],[1,0.5,0],[1,0.75,0],[0.75,1,0],[0.5,1,0],[0.25,1,0]];labelBackgroundColor=none;rounded=0;html=1;whiteSpace=wrap;" vertex="1" parent="lNSCyG1_joTPWja6P2LO-140">
          <mxGeometry x="4" y="4" width="14" height="14" as="geometry" />
        </mxCell>
        <mxCell id="lNSCyG1_joTPWja6P2LO-144" value="&lt;div style=&quot;font-size: 1px&quot;&gt;&lt;font style=&quot;font-size:19.76px;font-family:Microsoft YaHei;color:#000000;direction:ltr;letter-spacing:0px;line-height:120%;opacity:1&quot;&gt;集中调控&lt;br/&gt;&lt;/font&gt;&lt;/div&gt;" style="text;vsdxID=655;fillColor=none;gradientColor=none;fillOpacity=85;strokeOpacity=65;strokeColor=none;points=[[0.25,0,0],[0.5,0,0],[0.75,0,0],[1,0.25,0],[1,0.5,0],[1,0.75,0],[0.75,0.75,0],[0.5,0.75,0],[0.25,0.75,0]];labelBackgroundColor=none;rounded=1;html=1;whiteSpace=wrap;verticalAlign=middle;align=center;;html=1;" vertex="1" parent="lNSCyG1_joTPWja6P2LO-140">
          <mxGeometry y="17.18" width="143.08" as="geometry" />
        </mxCell>
        <UserObject label="&lt;div style=&quot;font-size: 1px&quot;&gt;&lt;/div&gt;" tags="背景" id="lNSCyG1_joTPWja6P2LO-145">
          <mxCell style="verticalAlign=middle;align=center;vsdxID=679;fillColor=#FFFFFF;gradientColor=none;shape=stencil(UzV2Ls5ILEhVNTIoLinKz04tz0wpyVA1dlE1MsrMy0gtyiwBslSNXVWNndPyi1LTi/JL81Ig/IJEkEoQKze/DGRCBUSfAUiHkUElhGdoAOG7QZTmZOYhKTUy1TM2RFGua2hKogbzgVQP8x15qvGGDbpiS9LcPaiUG+INFryBAmQgElpaZk4OJJ0iy6MnTKAQJFEbuwIA);strokeColor=#4bacc6;flipH=1;flipV=1;points=[];labelBackgroundColor=none;rounded=0;html=1;whiteSpace=wrap;" vertex="1" parent="1">
            <mxGeometry x="1317" y="292" width="63" height="1" as="geometry" />
          </mxCell>
        </UserObject>
        <UserObject label="" tags="背景" id="lNSCyG1_joTPWja6P2LO-146">
          <mxCell style="vsdxID=680;fillColor=none;gradientColor=none;shape=stencil(nZBLDoAgDERP0z3SIyjew0SURgSD+Lu9kMZoXLhwN9O+tukAlrNpJg1SzDH4QW/URgNYgZTkjA4UkwJUgGXng+6DX1zLfmoymdXo17xh5zmRJ6Q42BWCfc2oJfdAr+Yv+AP9Cb7OJ3H/2JG1HNGz/84klThPVCc=);strokeColor=#4bacc6;strokeWidth=0;points=[];labelBackgroundColor=none;rounded=0;html=1;whiteSpace=wrap;" vertex="1" parent="1">
            <mxGeometry x="1386" y="202" width="143" height="171" as="geometry" />
          </mxCell>
        </UserObject>
        <UserObject label="" tags="流程图" id="lNSCyG1_joTPWja6P2LO-147">
          <mxCell style="vsdxID=681;fillColor=none;gradientColor=none;points=[[0.25,0,0],[0.5,0,0],[0.75,0,0],[1,0.25,0],[1,0.5,0],[1,0.75,0],[0.75,0.75,0],[0.5,0.75,0],[0.25,0.75,0]];labelBackgroundColor=none;rounded=1;strokeColor=none;html=1;whiteSpace=wrap;" vertex="1" parent="1">
            <mxGeometry x="1401" y="206" width="113" height="60" as="geometry" />
          </mxCell>
        </UserObject>
        <mxCell id="lNSCyG1_joTPWja6P2LO-148" style="vsdxID=682;fillColor=#9dbb61;gradientColor=none;shape=stencil(nZFLDsIwDERP4y0KyQKxLuUCnCAihliEpEpL+ZyetANS6YJFs7JnXmxpTKZqvW2YtGq7nC58F9d5MjvSWqLnLF2pyNRkqlPKfM7pFh36xhZSq1Fhhz/rgdbK5uNBXgxts9r+PjAYck39sPwBVMF6foYp9HugQeIE/ZqL4D/oQnC2vhRjPAhOQkC6U38eZ5FwClO/AQ==);points=[[0,0.75,0],[0,0.5,0],[0,0.25,0],[0.25,0,0],[0.5,0,0],[0.75,0,0],[1,0.25,0],[1,0.5,0],[1,0.75,0],[0.75,1,0],[0.5,1,0],[0.25,1,0]];labelBackgroundColor=none;rounded=1;html=1;whiteSpace=wrap;" vertex="1" parent="lNSCyG1_joTPWja6P2LO-147">
          <mxGeometry width="113" height="60" as="geometry" />
        </mxCell>
        <mxCell id="lNSCyG1_joTPWja6P2LO-149" value="&lt;div style=&quot;font-size: 1px&quot;&gt;&lt;/div&gt;" style="verticalAlign=middle;align=center;vsdxID=686;fillColor=none;gradientColor=none;strokeColor=none;strokeWidth=2;spacingTop=-3;spacingBottom=-3;spacingLeft=-3;spacingRight=-3;points=[[0,0.75,0],[0,0.5,0],[0,0.25,0],[0.25,0,0],[0.5,0,0],[0.75,0,0],[1,0.25,0],[1,0.5,0],[1,0.75,0],[0.75,1,0],[0.5,1,0],[0.25,1,0]];labelBackgroundColor=none;rounded=0;html=1;whiteSpace=wrap;" vertex="1" parent="lNSCyG1_joTPWja6P2LO-147">
          <mxGeometry x="58" y="41" width="16" height="16" as="geometry" />
        </mxCell>
        <mxCell id="lNSCyG1_joTPWja6P2LO-150" value="&lt;div style=&quot;font-size: 1px&quot;&gt;&lt;/div&gt;" style="verticalAlign=middle;align=center;vsdxID=694;fillColor=none;gradientColor=none;strokeColor=none;spacingTop=-1;spacingBottom=-1;spacingLeft=-1;spacingRight=-1;points=[[0,0.75,0],[0,0.5,0],[0,0.25,0],[0.25,0,0],[0.5,0,0],[0.75,0,0],[1,0.25,0],[1,0.5,0],[1,0.75,0],[0.75,1,0],[0.5,1,0],[0.25,1,0]];labelBackgroundColor=none;rounded=0;html=1;whiteSpace=wrap;" vertex="1" parent="lNSCyG1_joTPWja6P2LO-147">
          <mxGeometry x="4" y="4" width="14" height="14" as="geometry" />
        </mxCell>
        <mxCell id="lNSCyG1_joTPWja6P2LO-151" value="&lt;div style=&quot;font-size: 1px&quot;&gt;&lt;p style=&quot;align:center;margin-left:0;margin-right:0;margin-top:0px;margin-bottom:0px;text-indent:0;valign:middle;direction:ltr;&quot;&gt;&lt;font style=&quot;font-size:19.76px;font-family:Microsoft YaHei;color:#000000;direction:ltr;letter-spacing:0px;line-height:120%;opacity:1&quot;&gt;综合效益&lt;br/&gt;分析&lt;br/&gt;&lt;/font&gt;&lt;/p&gt;&lt;/div&gt;" style="text;vsdxID=681;fillColor=none;gradientColor=none;points=[[0.25,0,0],[0.5,0,0],[0.75,0,0],[1,0.25,0],[1,0.5,0],[1,0.75,0],[0.75,0.75,0],[0.5,0.75,0],[0.25,0.75,0]];labelBackgroundColor=none;rounded=1;strokeColor=none;html=1;whiteSpace=wrap;verticalAlign=middle;align=center;;html=1;" vertex="1" parent="lNSCyG1_joTPWja6P2LO-147">
          <mxGeometry y="30" width="113.85" as="geometry" />
        </mxCell>
        <UserObject label="" BpmnName="经济" tags="流程图" id="lNSCyG1_joTPWja6P2LO-152">
          <mxCell style="vsdxID=704;fillColor=none;gradientColor=none;fillOpacity=85;strokeOpacity=65;strokeColor=none;points=[[0.25,0,0],[0.5,0,0],[0.75,0,0],[1,0.25,0],[1,0.5,0],[1,0.75,0],[0.75,0.75,0],[0.5,0.75,0],[0.25,0.75,0]];labelBackgroundColor=none;rounded=1;html=1;whiteSpace=wrap;" vertex="1" parent="1">
            <mxGeometry x="1394" y="272" width="60" height="35" as="geometry" />
          </mxCell>
        </UserObject>
        <mxCell id="lNSCyG1_joTPWja6P2LO-153" style="vsdxID=705;fillColor=#eaeff5;gradientColor=none;fillOpacity=85;shape=stencil(nZFLDsIwDERP4y0KyQKxLuUCnCAihliEpEpL+ZyetANS6YJFs7JnXmxpTKZqvW2YtGq7nC58F9d5MjvSWqLnLF2pyNRkqlPKfM7pFh36xhZSq1Fhhz/rgdbK5uNBXgxts9r+PjAYck39sPwBVMF6foYp9HugQeIE/ZqL4D/oQnC2vhRjPAhOQkC6U38eZ5FwClO/AQ==);strokeColor=#1f477d;points=[[0,0.75,0],[0,0.5,0],[0,0.25,0],[0.25,0,0],[0.5,0,0],[0.75,0,0],[1,0.25,0],[1,0.5,0],[1,0.75,0],[0.75,1,0],[0.5,1,0],[0.25,1,0]];labelBackgroundColor=none;rounded=1;html=1;whiteSpace=wrap;" vertex="1" parent="lNSCyG1_joTPWja6P2LO-152">
          <mxGeometry width="60" height="35" as="geometry" />
        </mxCell>
        <mxCell id="lNSCyG1_joTPWja6P2LO-154" value="&lt;div style=&quot;font-size: 1px&quot;&gt;&lt;/div&gt;" style="verticalAlign=middle;align=center;vsdxID=709;fillColor=none;gradientColor=none;strokeOpacity=65;strokeColor=none;strokeWidth=2;spacingTop=-3;spacingBottom=-3;spacingLeft=-3;spacingRight=-3;points=[[0,0.75,0],[0,0.5,0],[0,0.25,0],[0.25,0,0],[0.5,0,0],[0.75,0,0],[1,0.25,0],[1,0.5,0],[1,0.75,0],[0.75,1,0],[0.5,1,0],[0.25,1,0]];labelBackgroundColor=none;rounded=0;html=1;whiteSpace=wrap;" vertex="1" parent="lNSCyG1_joTPWja6P2LO-152">
          <mxGeometry x="31" y="16" width="16" height="16" as="geometry" />
        </mxCell>
        <mxCell id="lNSCyG1_joTPWja6P2LO-155" value="&lt;div style=&quot;font-size: 1px&quot;&gt;&lt;/div&gt;" style="verticalAlign=middle;align=center;vsdxID=717;fillColor=none;gradientColor=none;strokeOpacity=65;strokeColor=none;spacingTop=-1;spacingBottom=-1;spacingLeft=-1;spacingRight=-1;points=[[0,0.75,0],[0,0.5,0],[0,0.25,0],[0.25,0,0],[0.5,0,0],[0.75,0,0],[1,0.25,0],[1,0.5,0],[1,0.75,0],[0.75,1,0],[0.5,1,0],[0.25,1,0]];labelBackgroundColor=none;rounded=0;html=1;whiteSpace=wrap;" vertex="1" parent="lNSCyG1_joTPWja6P2LO-152">
          <mxGeometry x="4" y="4" width="14" height="14" as="geometry" />
        </mxCell>
        <mxCell id="lNSCyG1_joTPWja6P2LO-156" value="&lt;div style=&quot;font-size: 1px&quot;&gt;&lt;font style=&quot;font-size:19.76px;font-family:Microsoft YaHei;color:#000000;direction:ltr;letter-spacing:0px;line-height:120%;opacity:1&quot;&gt;经济&lt;br/&gt;&lt;/font&gt;&lt;/div&gt;" style="text;vsdxID=704;fillColor=none;gradientColor=none;fillOpacity=85;strokeOpacity=65;strokeColor=none;points=[[0.25,0,0],[0.5,0,0],[0.75,0,0],[1,0.25,0],[1,0.5,0],[1,0.75,0],[0.75,0.75,0],[0.5,0.75,0],[0.25,0.75,0]];labelBackgroundColor=none;rounded=1;html=1;whiteSpace=wrap;verticalAlign=middle;align=center;;html=1;" vertex="1" parent="lNSCyG1_joTPWja6P2LO-152">
          <mxGeometry y="17.18" width="60.87" as="geometry" />
        </mxCell>
        <UserObject label="" BpmnName="环境" tags="流程图" id="lNSCyG1_joTPWja6P2LO-157">
          <mxCell style="vsdxID=750;fillColor=none;gradientColor=none;fillOpacity=85;strokeOpacity=65;strokeColor=none;points=[[0.25,0,0],[0.5,0,0],[0.75,0,0],[1,0.25,0],[1,0.5,0],[1,0.75,0],[0.75,0.75,0],[0.5,0.75,0],[0.25,0.75,0]];labelBackgroundColor=none;rounded=1;html=1;whiteSpace=wrap;" vertex="1" parent="1">
            <mxGeometry x="1394" y="317" width="60" height="35" as="geometry" />
          </mxCell>
        </UserObject>
        <mxCell id="lNSCyG1_joTPWja6P2LO-158" style="vsdxID=751;fillColor=#eaeff5;gradientColor=none;fillOpacity=85;shape=stencil(nZFLDsIwDERP4y0KyQKxLuUCnCAihliEpEpL+ZyetANS6YJFs7JnXmxpTKZqvW2YtGq7nC58F9d5MjvSWqLnLF2pyNRkqlPKfM7pFh36xhZSq1Fhhz/rgdbK5uNBXgxts9r+PjAYck39sPwBVMF6foYp9HugQeIE/ZqL4D/oQnC2vhRjPAhOQkC6U38eZ5FwClO/AQ==);strokeColor=#1f477d;points=[[0,0.75,0],[0,0.5,0],[0,0.25,0],[0.25,0,0],[0.5,0,0],[0.75,0,0],[1,0.25,0],[1,0.5,0],[1,0.75,0],[0.75,1,0],[0.5,1,0],[0.25,1,0]];labelBackgroundColor=none;rounded=1;html=1;whiteSpace=wrap;" vertex="1" parent="lNSCyG1_joTPWja6P2LO-157">
          <mxGeometry width="60" height="35" as="geometry" />
        </mxCell>
        <mxCell id="lNSCyG1_joTPWja6P2LO-159" value="&lt;div style=&quot;font-size: 1px&quot;&gt;&lt;/div&gt;" style="verticalAlign=middle;align=center;vsdxID=755;fillColor=none;gradientColor=none;strokeOpacity=65;strokeColor=none;strokeWidth=2;spacingTop=-3;spacingBottom=-3;spacingLeft=-3;spacingRight=-3;points=[[0,0.75,0],[0,0.5,0],[0,0.25,0],[0.25,0,0],[0.5,0,0],[0.75,0,0],[1,0.25,0],[1,0.5,0],[1,0.75,0],[0.75,1,0],[0.5,1,0],[0.25,1,0]];labelBackgroundColor=none;rounded=0;html=1;whiteSpace=wrap;" vertex="1" parent="lNSCyG1_joTPWja6P2LO-157">
          <mxGeometry x="31" y="16" width="16" height="16" as="geometry" />
        </mxCell>
        <mxCell id="lNSCyG1_joTPWja6P2LO-160" value="&lt;div style=&quot;font-size: 1px&quot;&gt;&lt;/div&gt;" style="verticalAlign=middle;align=center;vsdxID=763;fillColor=none;gradientColor=none;strokeOpacity=65;strokeColor=none;spacingTop=-1;spacingBottom=-1;spacingLeft=-1;spacingRight=-1;points=[[0,0.75,0],[0,0.5,0],[0,0.25,0],[0.25,0,0],[0.5,0,0],[0.75,0,0],[1,0.25,0],[1,0.5,0],[1,0.75,0],[0.75,1,0],[0.5,1,0],[0.25,1,0]];labelBackgroundColor=none;rounded=0;html=1;whiteSpace=wrap;" vertex="1" parent="lNSCyG1_joTPWja6P2LO-157">
          <mxGeometry x="4" y="4" width="14" height="14" as="geometry" />
        </mxCell>
        <mxCell id="lNSCyG1_joTPWja6P2LO-161" value="&lt;div style=&quot;font-size: 1px&quot;&gt;&lt;font style=&quot;font-size:19.76px;font-family:Microsoft YaHei;color:#000000;direction:ltr;letter-spacing:0px;line-height:120%;opacity:1&quot;&gt;环境&lt;br/&gt;&lt;/font&gt;&lt;/div&gt;" style="text;vsdxID=750;fillColor=none;gradientColor=none;fillOpacity=85;strokeOpacity=65;strokeColor=none;points=[[0.25,0,0],[0.5,0,0],[0.75,0,0],[1,0.25,0],[1,0.5,0],[1,0.75,0],[0.75,0.75,0],[0.5,0.75,0],[0.25,0.75,0]];labelBackgroundColor=none;rounded=1;html=1;whiteSpace=wrap;verticalAlign=middle;align=center;;html=1;" vertex="1" parent="lNSCyG1_joTPWja6P2LO-157">
          <mxGeometry y="17.18" width="60.87" as="geometry" />
        </mxCell>
        <UserObject label="" BpmnName="稳定" tags="流程图" id="lNSCyG1_joTPWja6P2LO-162">
          <mxCell style="vsdxID=796;fillColor=none;gradientColor=none;fillOpacity=85;strokeOpacity=65;strokeColor=none;points=[[0.25,0,0],[0.5,0,0],[0.75,0,0],[1,0.25,0],[1,0.5,0],[1,0.75,0],[0.75,0.75,0],[0.5,0.75,0],[0.25,0.75,0]];labelBackgroundColor=none;rounded=1;html=1;whiteSpace=wrap;" vertex="1" parent="1">
            <mxGeometry x="1461" y="272" width="60" height="35" as="geometry" />
          </mxCell>
        </UserObject>
        <mxCell id="lNSCyG1_joTPWja6P2LO-163" style="vsdxID=797;fillColor=#eaeff5;gradientColor=none;fillOpacity=85;shape=stencil(nZFLDsIwDERP4y0KyQKxLuUCnCAihliEpEpL+ZyetANS6YJFs7JnXmxpTKZqvW2YtGq7nC58F9d5MjvSWqLnLF2pyNRkqlPKfM7pFh36xhZSq1Fhhz/rgdbK5uNBXgxts9r+PjAYck39sPwBVMF6foYp9HugQeIE/ZqL4D/oQnC2vhRjPAhOQkC6U38eZ5FwClO/AQ==);strokeColor=#1f477d;points=[[0,0.75,0],[0,0.5,0],[0,0.25,0],[0.25,0,0],[0.5,0,0],[0.75,0,0],[1,0.25,0],[1,0.5,0],[1,0.75,0],[0.75,1,0],[0.5,1,0],[0.25,1,0]];labelBackgroundColor=none;rounded=1;html=1;whiteSpace=wrap;" vertex="1" parent="lNSCyG1_joTPWja6P2LO-162">
          <mxGeometry width="60" height="35" as="geometry" />
        </mxCell>
        <mxCell id="lNSCyG1_joTPWja6P2LO-164" value="&lt;div style=&quot;font-size: 1px&quot;&gt;&lt;/div&gt;" style="verticalAlign=middle;align=center;vsdxID=801;fillColor=none;gradientColor=none;strokeOpacity=65;strokeColor=none;strokeWidth=2;spacingTop=-3;spacingBottom=-3;spacingLeft=-3;spacingRight=-3;points=[[0,0.75,0],[0,0.5,0],[0,0.25,0],[0.25,0,0],[0.5,0,0],[0.75,0,0],[1,0.25,0],[1,0.5,0],[1,0.75,0],[0.75,1,0],[0.5,1,0],[0.25,1,0]];labelBackgroundColor=none;rounded=0;html=1;whiteSpace=wrap;" vertex="1" parent="lNSCyG1_joTPWja6P2LO-162">
          <mxGeometry x="31" y="16" width="16" height="16" as="geometry" />
        </mxCell>
        <mxCell id="lNSCyG1_joTPWja6P2LO-165" value="&lt;div style=&quot;font-size: 1px&quot;&gt;&lt;/div&gt;" style="verticalAlign=middle;align=center;vsdxID=809;fillColor=none;gradientColor=none;strokeOpacity=65;strokeColor=none;spacingTop=-1;spacingBottom=-1;spacingLeft=-1;spacingRight=-1;points=[[0,0.75,0],[0,0.5,0],[0,0.25,0],[0.25,0,0],[0.5,0,0],[0.75,0,0],[1,0.25,0],[1,0.5,0],[1,0.75,0],[0.75,1,0],[0.5,1,0],[0.25,1,0]];labelBackgroundColor=none;rounded=0;html=1;whiteSpace=wrap;" vertex="1" parent="lNSCyG1_joTPWja6P2LO-162">
          <mxGeometry x="4" y="4" width="14" height="14" as="geometry" />
        </mxCell>
        <mxCell id="lNSCyG1_joTPWja6P2LO-166" value="&lt;div style=&quot;font-size: 1px&quot;&gt;&lt;font style=&quot;font-size:19.76px;font-family:Microsoft YaHei;color:#000000;direction:ltr;letter-spacing:0px;line-height:120%;opacity:1&quot;&gt;稳定&lt;br/&gt;&lt;/font&gt;&lt;/div&gt;" style="text;vsdxID=796;fillColor=none;gradientColor=none;fillOpacity=85;strokeOpacity=65;strokeColor=none;points=[[0.25,0,0],[0.5,0,0],[0.75,0,0],[1,0.25,0],[1,0.5,0],[1,0.75,0],[0.75,0.75,0],[0.5,0.75,0],[0.25,0.75,0]];labelBackgroundColor=none;rounded=1;html=1;whiteSpace=wrap;verticalAlign=middle;align=center;;html=1;" vertex="1" parent="lNSCyG1_joTPWja6P2LO-162">
          <mxGeometry y="17.18" width="60.87" as="geometry" />
        </mxCell>
        <UserObject label="" BpmnName="节能" tags="流程图" id="lNSCyG1_joTPWja6P2LO-167">
          <mxCell style="vsdxID=819;fillColor=none;gradientColor=none;fillOpacity=85;strokeOpacity=65;strokeColor=none;points=[[0.25,0,0],[0.5,0,0],[0.75,0,0],[1,0.25,0],[1,0.5,0],[1,0.75,0],[0.75,0.75,0],[0.5,0.75,0],[0.25,0.75,0]];labelBackgroundColor=none;rounded=1;html=1;whiteSpace=wrap;" vertex="1" parent="1">
            <mxGeometry x="1462" y="318" width="60" height="35" as="geometry" />
          </mxCell>
        </UserObject>
        <mxCell id="lNSCyG1_joTPWja6P2LO-168" style="vsdxID=820;fillColor=#eaeff5;gradientColor=none;fillOpacity=85;shape=stencil(nZFLDsIwDERP4y0KyQKxLuUCnCAihliEpEpL+ZyetANS6YJFs7JnXmxpTKZqvW2YtGq7nC58F9d5MjvSWqLnLF2pyNRkqlPKfM7pFh36xhZSq1Fhhz/rgdbK5uNBXgxts9r+PjAYck39sPwBVMF6foYp9HugQeIE/ZqL4D/oQnC2vhRjPAhOQkC6U38eZ5FwClO/AQ==);strokeColor=#1f477d;points=[[0,0.75,0],[0,0.5,0],[0,0.25,0],[0.25,0,0],[0.5,0,0],[0.75,0,0],[1,0.25,0],[1,0.5,0],[1,0.75,0],[0.75,1,0],[0.5,1,0],[0.25,1,0]];labelBackgroundColor=none;rounded=1;html=1;whiteSpace=wrap;" vertex="1" parent="lNSCyG1_joTPWja6P2LO-167">
          <mxGeometry width="60" height="35" as="geometry" />
        </mxCell>
        <mxCell id="lNSCyG1_joTPWja6P2LO-169" value="&lt;div style=&quot;font-size: 1px&quot;&gt;&lt;/div&gt;" style="verticalAlign=middle;align=center;vsdxID=824;fillColor=none;gradientColor=none;strokeOpacity=65;strokeColor=none;strokeWidth=2;spacingTop=-3;spacingBottom=-3;spacingLeft=-3;spacingRight=-3;points=[[0,0.75,0],[0,0.5,0],[0,0.25,0],[0.25,0,0],[0.5,0,0],[0.75,0,0],[1,0.25,0],[1,0.5,0],[1,0.75,0],[0.75,1,0],[0.5,1,0],[0.25,1,0]];labelBackgroundColor=none;rounded=0;html=1;whiteSpace=wrap;" vertex="1" parent="lNSCyG1_joTPWja6P2LO-167">
          <mxGeometry x="31" y="16" width="16" height="16" as="geometry" />
        </mxCell>
        <mxCell id="lNSCyG1_joTPWja6P2LO-170" value="&lt;div style=&quot;font-size: 1px&quot;&gt;&lt;/div&gt;" style="verticalAlign=middle;align=center;vsdxID=832;fillColor=none;gradientColor=none;strokeOpacity=65;strokeColor=none;spacingTop=-1;spacingBottom=-1;spacingLeft=-1;spacingRight=-1;points=[[0,0.75,0],[0,0.5,0],[0,0.25,0],[0.25,0,0],[0.5,0,0],[0.75,0,0],[1,0.25,0],[1,0.5,0],[1,0.75,0],[0.75,1,0],[0.5,1,0],[0.25,1,0]];labelBackgroundColor=none;rounded=0;html=1;whiteSpace=wrap;" vertex="1" parent="lNSCyG1_joTPWja6P2LO-167">
          <mxGeometry x="4" y="4" width="14" height="14" as="geometry" />
        </mxCell>
        <mxCell id="lNSCyG1_joTPWja6P2LO-171" value="&lt;div style=&quot;font-size: 1px&quot;&gt;&lt;font style=&quot;font-size:19.76px;font-family:Microsoft YaHei;color:#000000;direction:ltr;letter-spacing:0px;line-height:120%;opacity:1&quot;&gt;节能&lt;br/&gt;&lt;/font&gt;&lt;/div&gt;" style="text;vsdxID=819;fillColor=none;gradientColor=none;fillOpacity=85;strokeOpacity=65;strokeColor=none;points=[[0.25,0,0],[0.5,0,0],[0.75,0,0],[1,0.25,0],[1,0.5,0],[1,0.75,0],[0.75,0.75,0],[0.5,0.75,0],[0.25,0.75,0]];labelBackgroundColor=none;rounded=1;html=1;whiteSpace=wrap;verticalAlign=middle;align=center;;html=1;" vertex="1" parent="lNSCyG1_joTPWja6P2LO-167">
          <mxGeometry y="17.18" width="60.87" as="geometry" />
        </mxCell>
        <UserObject label="" BpmnName="考虑多级断面动态极限" tags="流程图" id="lNSCyG1_joTPWja6P2LO-172">
          <mxCell style="vsdxID=842;fillColor=none;gradientColor=none;points=[[0.25,0,0],[0.5,0,0],[0.75,0,0],[1,0.25,0],[1,0.5,0],[1,0.75,0],[0.75,0.75,0],[0.5,0.75,0],[0.25,0.75,0]];labelBackgroundColor=none;rounded=1;strokeColor=none;html=1;whiteSpace=wrap;" vertex="1" parent="1">
            <mxGeometry x="845" y="486" width="60" height="171" as="geometry" />
          </mxCell>
        </UserObject>
        <mxCell id="lNSCyG1_joTPWja6P2LO-173" style="vsdxID=843;fillColor=#00b0f0;gradientColor=none;shape=stencil(nZFLDsIwDERP4y0KyQKxLuUCnCAihliEpEpL+ZyetANS6YJFs7JnXmxpTKZqvW2YtGq7nC58F9d5MjvSWqLnLF2pyNRkqlPKfM7pFh36xhZSq1Fhhz/rgdbK5uNBXgxts9r+PjAYck39sPwBVMF6foYp9HugQeIE/ZqL4D/oQnC2vhRjPAhOQkC6U38eZ5FwClO/AQ==);points=[[0,0.75,0],[0,0.5,0],[0,0.25,0],[0.25,0,0],[0.5,0,0],[0.75,0,0],[1,0.25,0],[1,0.5,0],[1,0.75,0],[0.75,1,0],[0.5,1,0],[0.25,1,0]];labelBackgroundColor=none;rounded=1;html=1;whiteSpace=wrap;" vertex="1" parent="lNSCyG1_joTPWja6P2LO-172">
          <mxGeometry width="60" height="171" as="geometry" />
        </mxCell>
        <mxCell id="lNSCyG1_joTPWja6P2LO-174" value="&lt;div style=&quot;font-size: 1px&quot;&gt;&lt;/div&gt;" style="verticalAlign=middle;align=center;vsdxID=847;fillColor=none;gradientColor=none;strokeColor=none;strokeWidth=2;spacingTop=-3;spacingBottom=-3;spacingLeft=-3;spacingRight=-3;points=[[0,0.75,0],[0,0.5,0],[0,0.25,0],[0.25,0,0],[0.5,0,0],[0.75,0,0],[1,0.25,0],[1,0.5,0],[1,0.75,0],[0.75,1,0],[0.5,1,0],[0.25,1,0]];labelBackgroundColor=none;rounded=0;html=1;whiteSpace=wrap;" vertex="1" parent="lNSCyG1_joTPWja6P2LO-172">
          <mxGeometry x="31" y="152" width="16" height="16" as="geometry" />
        </mxCell>
        <mxCell id="lNSCyG1_joTPWja6P2LO-175" value="&lt;div style=&quot;font-size: 1px&quot;&gt;&lt;/div&gt;" style="verticalAlign=middle;align=center;vsdxID=855;fillColor=none;gradientColor=none;strokeColor=none;spacingTop=-1;spacingBottom=-1;spacingLeft=-1;spacingRight=-1;points=[[0,0.75,0],[0,0.5,0],[0,0.25,0],[0.25,0,0],[0.5,0,0],[0.75,0,0],[1,0.25,0],[1,0.5,0],[1,0.75,0],[0.75,1,0],[0.5,1,0],[0.25,1,0]];labelBackgroundColor=none;rounded=0;html=1;whiteSpace=wrap;" vertex="1" parent="lNSCyG1_joTPWja6P2LO-172">
          <mxGeometry x="4" y="4" width="14" height="14" as="geometry" />
        </mxCell>
        <mxCell id="lNSCyG1_joTPWja6P2LO-176" value="&lt;div style=&quot;font-size: 1px&quot;&gt;&lt;font style=&quot;font-size:19.76px;font-family:Microsoft YaHei;color:#000000;direction:ltr;letter-spacing:0px;line-height:120%;opacity:1&quot;&gt;考虑多级断面动态极限&lt;br/&gt;&lt;/font&gt;&lt;/div&gt;" style="text;vsdxID=842;fillColor=none;gradientColor=none;points=[[0.25,0,0],[0.5,0,0],[0.75,0,0],[1,0.25,0],[1,0.5,0],[1,0.75,0],[0.75,0.75,0],[0.5,0.75,0],[0.25,0.75,0]];labelBackgroundColor=none;rounded=1;strokeColor=none;html=1;whiteSpace=wrap;verticalAlign=middle;align=center;;html=1;" vertex="1" parent="lNSCyG1_joTPWja6P2LO-172">
          <mxGeometry y="85.37" width="60.87" as="geometry" />
        </mxCell>
        <UserObject label="" tags="流程图" id="lNSCyG1_joTPWja6P2LO-177">
          <mxCell style="vsdxID=865;fillColor=none;gradientColor=none;fillOpacity=85;strokeOpacity=65;strokeColor=none;points=[[0.25,0,0],[0.5,0,0],[0.75,0,0],[1,0.25,0],[1,0.5,0],[1,0.75,0],[0.75,0.75,0],[0.5,0.75,0],[0.25,0.75,0]];labelBackgroundColor=none;rounded=1;html=1;whiteSpace=wrap;" vertex="1" parent="1">
            <mxGeometry x="923" y="583" width="143" height="59" as="geometry" />
          </mxCell>
        </UserObject>
        <mxCell id="lNSCyG1_joTPWja6P2LO-178" style="vsdxID=866;fillColor=#eaeff5;gradientColor=none;fillOpacity=85;shape=stencil(nZFLDsIwDERP4y0KyQKxLuUCnCAihliEpEpL+ZyetANS6YJFs7JnXmxpTKZqvW2YtGq7nC58F9d5MjvSWqLnLF2pyNRkqlPKfM7pFh36xhZSq1Fhhz/rgdbK5uNBXgxts9r+PjAYck39sPwBVMF6foYp9HugQeIE/ZqL4D/oQnC2vhRjPAhOQkC6U38eZ5FwClO/AQ==);strokeColor=#1f477d;points=[[0,0.75,0],[0,0.5,0],[0,0.25,0],[0.25,0,0],[0.5,0,0],[0.75,0,0],[1,0.25,0],[1,0.5,0],[1,0.75,0],[0.75,1,0],[0.5,1,0],[0.25,1,0]];labelBackgroundColor=none;rounded=1;html=1;whiteSpace=wrap;" vertex="1" parent="lNSCyG1_joTPWja6P2LO-177">
          <mxGeometry width="143" height="59" as="geometry" />
        </mxCell>
        <mxCell id="lNSCyG1_joTPWja6P2LO-179" value="&lt;div style=&quot;font-size: 1px&quot;&gt;&lt;/div&gt;" style="verticalAlign=middle;align=center;vsdxID=870;fillColor=none;gradientColor=none;strokeOpacity=65;strokeColor=none;strokeWidth=2;spacingTop=-3;spacingBottom=-3;spacingLeft=-3;spacingRight=-3;points=[[0,0.75,0],[0,0.5,0],[0,0.25,0],[0.25,0,0],[0.5,0,0],[0.75,0,0],[1,0.25,0],[1,0.5,0],[1,0.75,0],[0.75,1,0],[0.5,1,0],[0.25,1,0]];labelBackgroundColor=none;rounded=0;html=1;whiteSpace=wrap;" vertex="1" parent="lNSCyG1_joTPWja6P2LO-177">
          <mxGeometry x="72" y="40" width="16" height="16" as="geometry" />
        </mxCell>
        <mxCell id="lNSCyG1_joTPWja6P2LO-180" value="&lt;div style=&quot;font-size: 1px&quot;&gt;&lt;/div&gt;" style="verticalAlign=middle;align=center;vsdxID=878;fillColor=none;gradientColor=none;strokeOpacity=65;strokeColor=none;spacingTop=-1;spacingBottom=-1;spacingLeft=-1;spacingRight=-1;points=[[0,0.75,0],[0,0.5,0],[0,0.25,0],[0.25,0,0],[0.5,0,0],[0.75,0,0],[1,0.25,0],[1,0.5,0],[1,0.75,0],[0.75,1,0],[0.5,1,0],[0.25,1,0]];labelBackgroundColor=none;rounded=0;html=1;whiteSpace=wrap;" vertex="1" parent="lNSCyG1_joTPWja6P2LO-177">
          <mxGeometry x="4" y="4" width="14" height="14" as="geometry" />
        </mxCell>
        <mxCell id="lNSCyG1_joTPWja6P2LO-181" value="&lt;div style=&quot;font-size: 1px&quot;&gt;&lt;p style=&quot;align:center;margin-left:0;margin-right:0;margin-top:0px;margin-bottom:0px;text-indent:0;valign:middle;direction:ltr;&quot;&gt;&lt;font style=&quot;font-size:19.76px;font-family:Microsoft YaHei;color:#000000;direction:ltr;letter-spacing:0px;line-height:120%;opacity:1&quot;&gt;多类型储能&lt;br/&gt;运行特点&lt;br/&gt;&lt;/font&gt;&lt;/p&gt;&lt;/div&gt;" style="text;vsdxID=865;fillColor=none;gradientColor=none;fillOpacity=85;strokeOpacity=65;strokeColor=none;points=[[0.25,0,0],[0.5,0,0],[0.75,0,0],[1,0.25,0],[1,0.5,0],[1,0.75,0],[0.75,0.75,0],[0.5,0.75,0],[0.25,0.75,0]];labelBackgroundColor=none;rounded=1;html=1;whiteSpace=wrap;verticalAlign=middle;align=center;;html=1;" vertex="1" parent="lNSCyG1_joTPWja6P2LO-177">
          <mxGeometry y="29.4" width="143.08" as="geometry" />
        </mxCell>
        <UserObject label="&lt;div style=&quot;font-size: 1px&quot;&gt;&lt;/div&gt;" tags="背景" id="lNSCyG1_joTPWja6P2LO-182">
          <mxCell style="verticalAlign=middle;align=center;vsdxID=888;fillColor=#FFFFFF;gradientColor=none;shape=stencil(UzV2Ls5ILEhVNTIoLinKz04tz0wpyVA1dlE1MsrMy0gtyiwBslSNXVWNndPyi1LTi/JL81Ig/IJEkEoQKze/DGRCBUSfAUiHkUElhGdoAOG7QZTmZOYhKTUy1TM2RFGua2hKogbzgVQP8x15qvGGDbpiS9LcPaiUG+INFryBAmQgElpaZk4OJJ0iy6MnTKAQJFEbuwIA);strokeColor=#4bacc6;flipH=1;flipV=1;points=[];labelBackgroundColor=none;rounded=0;html=1;whiteSpace=wrap;" vertex="1" parent="1">
            <mxGeometry x="1089" y="568" width="63" height="1" as="geometry" />
          </mxCell>
        </UserObject>
        <UserObject label="&lt;div style=&quot;font-size: 1px&quot;&gt;&lt;p style=&quot;align:center;margin-left:0;margin-right:0;margin-top:0px;margin-bottom:0px;text-indent:0;valign:middle;direction:ltr;&quot;&gt;&lt;font style=&quot;font-size:19.76px;font-family:Microsoft YaHei;color:#000000;direction:ltr;letter-spacing:0px;line-height:120%;opacity:1&quot;&gt;结合运行特性&lt;br/&gt;&lt;/font&gt;&lt;/p&gt;&lt;/div&gt;" tags="背景" id="lNSCyG1_joTPWja6P2LO-183">
          <mxCell style="verticalAlign=middle;align=center;vsdxID=889;fillColor=none;gradientColor=none;shape=stencil(nZBLDoAgDERP0z3SIyjew0SURgSD+Lu9kMZoXLhwN9O+tukAlrNpJg1SzDH4QW/URgNYgZTkjA4UkwJUgGXng+6DX1zLfmoymdXo17xh5zmRJ6Q42BWCfc2oJfdAr+Yv+AP9Cb7OJ3H/2JG1HNGz/84klThPVCc=);strokeColor=none;points=[];labelBackgroundColor=none;rounded=0;html=1;whiteSpace=wrap;" vertex="1" parent="1">
            <mxGeometry x="1317" y="216" width="60" height="52" as="geometry" />
          </mxCell>
        </UserObject>
        <UserObject label="&lt;div style=&quot;font-size: 1px&quot;&gt;&lt;/div&gt;" tags="背景" id="lNSCyG1_joTPWja6P2LO-184">
          <mxCell style="verticalAlign=middle;align=center;vsdxID=891;fillColor=#FFFFFF;gradientColor=none;shape=stencil(UzV2Ls5ILEhVNTIoLinKz04tz0wpyVA1dlE1MsrMy0gtyiwBslSNXVWNndPyi1LTi/JL81Ig/IJEkEoQKze/DGRCBUSfAUiHkUElhGdoAOG7QZTmZOYhKTUy1TM2RFGua2hKogbzgVQP8x15qvGGDbpiS9LcPaiUG+INFryBAmQgElpaZk4OJJ0iy6MnTKAQJFEbuwIA);strokeColor=#4bacc6;flipH=1;flipV=1;points=[];labelBackgroundColor=none;rounded=0;html=1;whiteSpace=wrap;" vertex="1" parent="1">
            <mxGeometry x="1397" y="568" width="63" height="1" as="geometry" />
          </mxCell>
        </UserObject>
        <UserObject label="" BpmnName="最优协同运营模式" tags="流程图" id="lNSCyG1_joTPWja6P2LO-185">
          <mxCell style="vsdxID=892;fillColor=none;gradientColor=none;points=[[0.25,0,0],[0.5,0,0],[0.75,0,0],[1,0.25,0],[1,0.5,0],[1,0.75,0],[0.75,0.75,0],[0.5,0.75,0],[0.25,0.75,0]];labelBackgroundColor=none;rounded=1;strokeColor=none;html=1;whiteSpace=wrap;" vertex="1" parent="1">
            <mxGeometry x="1468" y="488" width="60" height="171" as="geometry" />
          </mxCell>
        </UserObject>
        <mxCell id="lNSCyG1_joTPWja6P2LO-186" style="vsdxID=893;fillColor=#00b0f0;gradientColor=none;shape=stencil(nZFLDsIwDERP4y0KyQKxLuUCnCAihliEpEpL+ZyetANS6YJFs7JnXmxpTKZqvW2YtGq7nC58F9d5MjvSWqLnLF2pyNRkqlPKfM7pFh36xhZSq1Fhhz/rgdbK5uNBXgxts9r+PjAYck39sPwBVMF6foYp9HugQeIE/ZqL4D/oQnC2vhRjPAhOQkC6U38eZ5FwClO/AQ==);points=[[0,0.75,0],[0,0.5,0],[0,0.25,0],[0.25,0,0],[0.5,0,0],[0.75,0,0],[1,0.25,0],[1,0.5,0],[1,0.75,0],[0.75,1,0],[0.5,1,0],[0.25,1,0]];labelBackgroundColor=none;rounded=1;html=1;whiteSpace=wrap;" vertex="1" parent="lNSCyG1_joTPWja6P2LO-185">
          <mxGeometry width="60" height="171" as="geometry" />
        </mxCell>
        <mxCell id="lNSCyG1_joTPWja6P2LO-187" value="&lt;div style=&quot;font-size: 1px&quot;&gt;&lt;/div&gt;" style="verticalAlign=middle;align=center;vsdxID=897;fillColor=none;gradientColor=none;strokeColor=none;strokeWidth=2;spacingTop=-3;spacingBottom=-3;spacingLeft=-3;spacingRight=-3;points=[[0,0.75,0],[0,0.5,0],[0,0.25,0],[0.25,0,0],[0.5,0,0],[0.75,0,0],[1,0.25,0],[1,0.5,0],[1,0.75,0],[0.75,1,0],[0.5,1,0],[0.25,1,0]];labelBackgroundColor=none;rounded=0;html=1;whiteSpace=wrap;" vertex="1" parent="lNSCyG1_joTPWja6P2LO-185">
          <mxGeometry x="31" y="152" width="16" height="16" as="geometry" />
        </mxCell>
        <mxCell id="lNSCyG1_joTPWja6P2LO-188" value="&lt;div style=&quot;font-size: 1px&quot;&gt;&lt;/div&gt;" style="verticalAlign=middle;align=center;vsdxID=905;fillColor=none;gradientColor=none;strokeColor=none;spacingTop=-1;spacingBottom=-1;spacingLeft=-1;spacingRight=-1;points=[[0,0.75,0],[0,0.5,0],[0,0.25,0],[0.25,0,0],[0.5,0,0],[0.75,0,0],[1,0.25,0],[1,0.5,0],[1,0.75,0],[0.75,1,0],[0.5,1,0],[0.25,1,0]];labelBackgroundColor=none;rounded=0;html=1;whiteSpace=wrap;" vertex="1" parent="lNSCyG1_joTPWja6P2LO-185">
          <mxGeometry x="4" y="4" width="14" height="14" as="geometry" />
        </mxCell>
        <mxCell id="lNSCyG1_joTPWja6P2LO-189" value="&lt;div style=&quot;font-size: 1px&quot;&gt;&lt;font style=&quot;font-size:19.76px;font-family:Microsoft YaHei;color:#000000;direction:ltr;letter-spacing:0px;line-height:120%;opacity:1&quot;&gt;最优协同运营模式&lt;br/&gt;&lt;/font&gt;&lt;/div&gt;" style="text;vsdxID=892;fillColor=none;gradientColor=none;points=[[0.25,0,0],[0.5,0,0],[0.75,0,0],[1,0.25,0],[1,0.5,0],[1,0.75,0],[0.75,0.75,0],[0.5,0.75,0],[0.25,0.75,0]];labelBackgroundColor=none;rounded=1;strokeColor=none;html=1;whiteSpace=wrap;verticalAlign=middle;align=center;;html=1;" vertex="1" parent="lNSCyG1_joTPWja6P2LO-185">
          <mxGeometry y="85.37" width="60.87" as="geometry" />
        </mxCell>
        <UserObject label="" BpmnName="个体理性" tags="流程图" id="lNSCyG1_joTPWja6P2LO-190">
          <mxCell style="vsdxID=915;fillColor=none;gradientColor=none;fillOpacity=85;strokeOpacity=65;strokeColor=none;points=[[0.25,0,0],[0.5,0,0],[0.75,0,0],[1,0.25,0],[1,0.5,0],[1,0.75,0],[0.75,0.75,0],[0.5,0.75,0],[0.25,0.75,0]];labelBackgroundColor=none;rounded=1;html=1;whiteSpace=wrap;" vertex="1" parent="1">
            <mxGeometry x="1286" y="526" width="94" height="35" as="geometry" />
          </mxCell>
        </UserObject>
        <mxCell id="lNSCyG1_joTPWja6P2LO-191" style="vsdxID=916;fillColor=#eaeff5;gradientColor=none;fillOpacity=85;shape=stencil(nZFLDsIwDERP4y0KyQKxLuUCnCAihliEpEpL+ZyetANS6YJFs7JnXmxpTKZqvW2YtGq7nC58F9d5MjvSWqLnLF2pyNRkqlPKfM7pFh36xhZSq1Fhhz/rgdbK5uNBXgxts9r+PjAYck39sPwBVMF6foYp9HugQeIE/ZqL4D/oQnC2vhRjPAhOQkC6U38eZ5FwClO/AQ==);strokeColor=#1f477d;points=[[0,0.75,0],[0,0.5,0],[0,0.25,0],[0.25,0,0],[0.5,0,0],[0.75,0,0],[1,0.25,0],[1,0.5,0],[1,0.75,0],[0.75,1,0],[0.5,1,0],[0.25,1,0]];labelBackgroundColor=none;rounded=1;html=1;whiteSpace=wrap;" vertex="1" parent="lNSCyG1_joTPWja6P2LO-190">
          <mxGeometry width="94" height="35" as="geometry" />
        </mxCell>
        <mxCell id="lNSCyG1_joTPWja6P2LO-192" value="&lt;div style=&quot;font-size: 1px&quot;&gt;&lt;/div&gt;" style="verticalAlign=middle;align=center;vsdxID=920;fillColor=none;gradientColor=none;strokeOpacity=65;strokeColor=none;strokeWidth=2;spacingTop=-3;spacingBottom=-3;spacingLeft=-3;spacingRight=-3;points=[[0,0.75,0],[0,0.5,0],[0,0.25,0],[0.25,0,0],[0.5,0,0],[0.75,0,0],[1,0.25,0],[1,0.5,0],[1,0.75,0],[0.75,1,0],[0.5,1,0],[0.25,1,0]];labelBackgroundColor=none;rounded=0;html=1;whiteSpace=wrap;" vertex="1" parent="lNSCyG1_joTPWja6P2LO-190">
          <mxGeometry x="48" y="16" width="16" height="16" as="geometry" />
        </mxCell>
        <mxCell id="lNSCyG1_joTPWja6P2LO-193" value="&lt;div style=&quot;font-size: 1px&quot;&gt;&lt;/div&gt;" style="verticalAlign=middle;align=center;vsdxID=928;fillColor=none;gradientColor=none;strokeOpacity=65;strokeColor=none;spacingTop=-1;spacingBottom=-1;spacingLeft=-1;spacingRight=-1;points=[[0,0.75,0],[0,0.5,0],[0,0.25,0],[0.25,0,0],[0.5,0,0],[0.75,0,0],[1,0.25,0],[1,0.5,0],[1,0.75,0],[0.75,1,0],[0.5,1,0],[0.25,1,0]];labelBackgroundColor=none;rounded=0;html=1;whiteSpace=wrap;" vertex="1" parent="lNSCyG1_joTPWja6P2LO-190">
          <mxGeometry x="4" y="4" width="14" height="14" as="geometry" />
        </mxCell>
        <mxCell id="lNSCyG1_joTPWja6P2LO-194" value="&lt;div style=&quot;font-size: 1px&quot;&gt;&lt;font style=&quot;font-size:19.76px;font-family:Microsoft YaHei;color:#000000;direction:ltr;letter-spacing:0px;line-height:120%;opacity:1&quot;&gt;个体理性&lt;br/&gt;&lt;/font&gt;&lt;/div&gt;" style="text;vsdxID=915;fillColor=none;gradientColor=none;fillOpacity=85;strokeOpacity=65;strokeColor=none;points=[[0.25,0,0],[0.5,0,0],[0.75,0,0],[1,0.25,0],[1,0.5,0],[1,0.75,0],[0.75,0.75,0],[0.5,0.75,0],[0.25,0.75,0]];labelBackgroundColor=none;rounded=1;html=1;whiteSpace=wrap;verticalAlign=middle;align=center;;html=1;" vertex="1" parent="lNSCyG1_joTPWja6P2LO-190">
          <mxGeometry y="17.18" width="94.5" as="geometry" />
        </mxCell>
        <UserObject label="" BpmnName="整体理性" tags="流程图" id="lNSCyG1_joTPWja6P2LO-195">
          <mxCell style="vsdxID=938;fillColor=none;gradientColor=none;fillOpacity=85;strokeOpacity=65;strokeColor=none;points=[[0.25,0,0],[0.5,0,0],[0.75,0,0],[1,0.25,0],[1,0.5,0],[1,0.75,0],[0.75,0.75,0],[0.5,0.75,0],[0.25,0.75,0]];labelBackgroundColor=none;rounded=1;html=1;whiteSpace=wrap;" vertex="1" parent="1">
            <mxGeometry x="1286" y="568" width="94" height="35" as="geometry" />
          </mxCell>
        </UserObject>
        <mxCell id="lNSCyG1_joTPWja6P2LO-196" style="vsdxID=939;fillColor=#eaeff5;gradientColor=none;fillOpacity=85;shape=stencil(nZFLDsIwDERP4y0KyQKxLuUCnCAihliEpEpL+ZyetANS6YJFs7JnXmxpTKZqvW2YtGq7nC58F9d5MjvSWqLnLF2pyNRkqlPKfM7pFh36xhZSq1Fhhz/rgdbK5uNBXgxts9r+PjAYck39sPwBVMF6foYp9HugQeIE/ZqL4D/oQnC2vhRjPAhOQkC6U38eZ5FwClO/AQ==);strokeColor=#1f477d;points=[[0,0.75,0],[0,0.5,0],[0,0.25,0],[0.25,0,0],[0.5,0,0],[0.75,0,0],[1,0.25,0],[1,0.5,0],[1,0.75,0],[0.75,1,0],[0.5,1,0],[0.25,1,0]];labelBackgroundColor=none;rounded=1;html=1;whiteSpace=wrap;" vertex="1" parent="lNSCyG1_joTPWja6P2LO-195">
          <mxGeometry width="94" height="35" as="geometry" />
        </mxCell>
        <mxCell id="lNSCyG1_joTPWja6P2LO-197" value="&lt;div style=&quot;font-size: 1px&quot;&gt;&lt;/div&gt;" style="verticalAlign=middle;align=center;vsdxID=943;fillColor=none;gradientColor=none;strokeOpacity=65;strokeColor=none;strokeWidth=2;spacingTop=-3;spacingBottom=-3;spacingLeft=-3;spacingRight=-3;points=[[0,0.75,0],[0,0.5,0],[0,0.25,0],[0.25,0,0],[0.5,0,0],[0.75,0,0],[1,0.25,0],[1,0.5,0],[1,0.75,0],[0.75,1,0],[0.5,1,0],[0.25,1,0]];labelBackgroundColor=none;rounded=0;html=1;whiteSpace=wrap;" vertex="1" parent="lNSCyG1_joTPWja6P2LO-195">
          <mxGeometry x="48" y="16" width="16" height="16" as="geometry" />
        </mxCell>
        <mxCell id="lNSCyG1_joTPWja6P2LO-198" value="&lt;div style=&quot;font-size: 1px&quot;&gt;&lt;/div&gt;" style="verticalAlign=middle;align=center;vsdxID=951;fillColor=none;gradientColor=none;strokeOpacity=65;strokeColor=none;spacingTop=-1;spacingBottom=-1;spacingLeft=-1;spacingRight=-1;points=[[0,0.75,0],[0,0.5,0],[0,0.25,0],[0.25,0,0],[0.5,0,0],[0.75,0,0],[1,0.25,0],[1,0.5,0],[1,0.75,0],[0.75,1,0],[0.5,1,0],[0.25,1,0]];labelBackgroundColor=none;rounded=0;html=1;whiteSpace=wrap;" vertex="1" parent="lNSCyG1_joTPWja6P2LO-195">
          <mxGeometry x="4" y="4" width="14" height="14" as="geometry" />
        </mxCell>
        <mxCell id="lNSCyG1_joTPWja6P2LO-199" value="&lt;div style=&quot;font-size: 1px&quot;&gt;&lt;font style=&quot;font-size:19.76px;font-family:Microsoft YaHei;color:#000000;direction:ltr;letter-spacing:0px;line-height:120%;opacity:1&quot;&gt;整体理性&lt;br/&gt;&lt;/font&gt;&lt;/div&gt;" style="text;vsdxID=938;fillColor=none;gradientColor=none;fillOpacity=85;strokeOpacity=65;strokeColor=none;points=[[0.25,0,0],[0.5,0,0],[0.75,0,0],[1,0.25,0],[1,0.5,0],[1,0.75,0],[0.75,0.75,0],[0.5,0.75,0],[0.25,0.75,0]];labelBackgroundColor=none;rounded=1;html=1;whiteSpace=wrap;verticalAlign=middle;align=center;;html=1;" vertex="1" parent="lNSCyG1_joTPWja6P2LO-195">
          <mxGeometry y="17.18" width="94.5" as="geometry" />
        </mxCell>
        <UserObject label="" BpmnName="最大获利" tags="流程图" id="lNSCyG1_joTPWja6P2LO-200">
          <mxCell style="vsdxID=961;fillColor=none;gradientColor=none;fillOpacity=85;strokeOpacity=65;strokeColor=none;points=[[0.25,0,0],[0.5,0,0],[0.75,0,0],[1,0.25,0],[1,0.5,0],[1,0.75,0],[0.75,0.75,0],[0.5,0.75,0],[0.25,0.75,0]];labelBackgroundColor=none;rounded=1;html=1;whiteSpace=wrap;" vertex="1" parent="1">
            <mxGeometry x="1287" y="608" width="94" height="35" as="geometry" />
          </mxCell>
        </UserObject>
        <mxCell id="lNSCyG1_joTPWja6P2LO-201" style="vsdxID=962;fillColor=#eaeff5;gradientColor=none;fillOpacity=85;shape=stencil(nZFLDsIwDERP4y0KyQKxLuUCnCAihliEpEpL+ZyetANS6YJFs7JnXmxpTKZqvW2YtGq7nC58F9d5MjvSWqLnLF2pyNRkqlPKfM7pFh36xhZSq1Fhhz/rgdbK5uNBXgxts9r+PjAYck39sPwBVMF6foYp9HugQeIE/ZqL4D/oQnC2vhRjPAhOQkC6U38eZ5FwClO/AQ==);strokeColor=#1f477d;points=[[0,0.75,0],[0,0.5,0],[0,0.25,0],[0.25,0,0],[0.5,0,0],[0.75,0,0],[1,0.25,0],[1,0.5,0],[1,0.75,0],[0.75,1,0],[0.5,1,0],[0.25,1,0]];labelBackgroundColor=none;rounded=1;html=1;whiteSpace=wrap;" vertex="1" parent="lNSCyG1_joTPWja6P2LO-200">
          <mxGeometry width="94" height="35" as="geometry" />
        </mxCell>
        <mxCell id="lNSCyG1_joTPWja6P2LO-202" value="&lt;div style=&quot;font-size: 1px&quot;&gt;&lt;/div&gt;" style="verticalAlign=middle;align=center;vsdxID=966;fillColor=none;gradientColor=none;strokeOpacity=65;strokeColor=none;strokeWidth=2;spacingTop=-3;spacingBottom=-3;spacingLeft=-3;spacingRight=-3;points=[[0,0.75,0],[0,0.5,0],[0,0.25,0],[0.25,0,0],[0.5,0,0],[0.75,0,0],[1,0.25,0],[1,0.5,0],[1,0.75,0],[0.75,1,0],[0.5,1,0],[0.25,1,0]];labelBackgroundColor=none;rounded=0;html=1;whiteSpace=wrap;" vertex="1" parent="lNSCyG1_joTPWja6P2LO-200">
          <mxGeometry x="48" y="16" width="16" height="16" as="geometry" />
        </mxCell>
        <mxCell id="lNSCyG1_joTPWja6P2LO-203" value="&lt;div style=&quot;font-size: 1px&quot;&gt;&lt;/div&gt;" style="verticalAlign=middle;align=center;vsdxID=974;fillColor=none;gradientColor=none;strokeOpacity=65;strokeColor=none;spacingTop=-1;spacingBottom=-1;spacingLeft=-1;spacingRight=-1;points=[[0,0.75,0],[0,0.5,0],[0,0.25,0],[0.25,0,0],[0.5,0,0],[0.75,0,0],[1,0.25,0],[1,0.5,0],[1,0.75,0],[0.75,1,0],[0.5,1,0],[0.25,1,0]];labelBackgroundColor=none;rounded=0;html=1;whiteSpace=wrap;" vertex="1" parent="lNSCyG1_joTPWja6P2LO-200">
          <mxGeometry x="4" y="4" width="14" height="14" as="geometry" />
        </mxCell>
        <mxCell id="lNSCyG1_joTPWja6P2LO-204" value="&lt;div style=&quot;font-size: 1px&quot;&gt;&lt;font style=&quot;font-size:19.76px;font-family:Microsoft YaHei;color:#000000;direction:ltr;letter-spacing:0px;line-height:120%;opacity:1&quot;&gt;最大获利&lt;br/&gt;&lt;/font&gt;&lt;/div&gt;" style="text;vsdxID=961;fillColor=none;gradientColor=none;fillOpacity=85;strokeOpacity=65;strokeColor=none;points=[[0.25,0,0],[0.5,0,0],[0.75,0,0],[1,0.25,0],[1,0.5,0],[1,0.75,0],[0.75,0.75,0],[0.5,0.75,0],[0.25,0.75,0]];labelBackgroundColor=none;rounded=1;html=1;whiteSpace=wrap;verticalAlign=middle;align=center;;html=1;" vertex="1" parent="lNSCyG1_joTPWja6P2LO-200">
          <mxGeometry y="17.18" width="94.5" as="geometry" />
        </mxCell>
        <UserObject label="&lt;div style=&quot;font-size: 1px&quot;&gt;&lt;p style=&quot;align:center;margin-left:0;margin-right:0;margin-top:0px;margin-bottom:0px;text-indent:0;valign:middle;direction:ltr;&quot;&gt;&lt;font style=&quot;font-size:19.76px;font-family:Microsoft YaHei;color:#000000;direction:ltr;letter-spacing:0px;line-height:120%;opacity:1&quot;&gt;形成约束&lt;br/&gt;&lt;/font&gt;&lt;/p&gt;&lt;/div&gt;" tags="背景" id="lNSCyG1_joTPWja6P2LO-205">
          <mxCell style="verticalAlign=middle;align=center;vsdxID=984;fillColor=none;gradientColor=none;shape=stencil(nZBLDoAgDERP0z3SIyjew0SURgSD+Lu9kMZoXLhwN9O+tukAlrNpJg1SzDH4QW/URgNYgZTkjA4UkwJUgGXng+6DX1zLfmoymdXo17xh5zmRJ6Q42BWCfc2oJfdAr+Yv+AP9Cb7OJ3H/2JG1HNGz/84klThPVCc=);strokeColor=none;points=[];labelBackgroundColor=none;rounded=0;html=1;whiteSpace=wrap;" vertex="1" parent="1">
            <mxGeometry x="1091" y="488" width="60" height="52" as="geometry" />
          </mxCell>
        </UserObject>
        <UserObject label="&lt;div style=&quot;font-size: 1px&quot;&gt;&lt;p style=&quot;align:center;margin-left:0;margin-right:0;margin-top:0px;margin-bottom:0px;text-indent:0;valign:middle;direction:ltr;&quot;&gt;&lt;font style=&quot;font-size:19.76px;font-family:Microsoft YaHei;color:#000000;direction:ltr;letter-spacing:0px;line-height:120%;opacity:1&quot;&gt;求解&lt;br/&gt;&lt;/font&gt;&lt;/p&gt;&lt;/div&gt;" tags="背景" id="lNSCyG1_joTPWja6P2LO-206">
          <mxCell style="verticalAlign=middle;align=center;vsdxID=985;fillColor=none;gradientColor=none;shape=stencil(nZBLDoAgDERP0z3SIyjew0SURgSD+Lu9kMZoXLhwN9O+tukAlrNpJg1SzDH4QW/URgNYgZTkjA4UkwJUgGXng+6DX1zLfmoymdXo17xh5zmRJ6Q42BWCfc2oJfdAr+Yv+AP9Cb7OJ3H/2JG1HNGz/84klThPVCc=);strokeColor=none;points=[];labelBackgroundColor=none;rounded=0;html=1;whiteSpace=wrap;" vertex="1" parent="1">
            <mxGeometry x="1398" y="488" width="60" height="52" as="geometry" />
          </mxCell>
        </UserObject>
        <UserObject label="" tags="连接线" id="lNSCyG1_joTPWja6P2LO-207">
          <mxCell style="vsdxID=986;edgeStyle=none;dashed=1;startArrow=none;endArrow=block;startSize=5;endSize=5;strokeWidth=4;strokeColor=#c00000;spacingTop=0;spacingBottom=0;spacingLeft=0;spacingRight=0;verticalAlign=middle;html=1;labelBackgroundColor=#ffffff;rounded=0;" edge="1" parent="1">
            <mxGeometry relative="1" as="geometry">
              <mxPoint x="10" as="offset" />
              <Array as="points" />
              <mxPoint x="1223" y="748" as="sourcePoint" />
              <mxPoint x="1223" y="688" as="targetPoint" />
            </mxGeometry>
          </mxCell>
        </UserObject>
        <UserObject label="&lt;div style=&quot;font-size: 1px&quot;&gt;&lt;font style=&quot;font-size:16.93px;font-family:Microsoft YaHei;color:#000000;direction:ltr;letter-spacing:0px;line-height:120%;opacity:1&quot;&gt;&lt;b&gt;激励相容&lt;br/&gt;&lt;/b&gt;&lt;/font&gt;&lt;/div&gt;" tags="背景" id="lNSCyG1_joTPWja6P2LO-208">
          <mxCell style="verticalAlign=middle;align=center;vsdxID=987;fillColor=none;gradientColor=none;shape=stencil(nZBLDoAgDERP0z3SIyjew0SURgSD+Lu9kMZoXLhwN9O+tukAlrNpJg1SzDH4QW/URgNYgZTkjA4UkwJUgGXng+6DX1zLfmoymdXo17xh5zmRJ6Q42BWCfc2oJfdAr+Yv+AP9Cb7OJ3H/2JG1HNGz/84klThPVCc=);strokeColor=none;points=[];labelBackgroundColor=none;rounded=0;html=1;whiteSpace=wrap;" vertex="1" parent="1">
            <mxGeometry x="1169" y="706" width="214" height="28" as="geometry" />
          </mxCell>
        </UserObject>
        <UserObject label="&lt;div style=&quot;font-size: 1px&quot;&gt;&lt;/div&gt;" tags="背景" id="lNSCyG1_joTPWja6P2LO-209">
          <mxCell style="verticalAlign=middle;align=center;vsdxID=988;fillColor=#FFFFFF;gradientColor=none;shape=stencil(UzV2Ls5ILEhVNTIoLinKz04tz0wpyVA1dlE1MsrMy0gtyiwBslSNXVWNndPyi1LTi/JL81Ig/IJEkEoQKze/DGRCBUSfAUiHkUElhGdoAOG7QZTmZOYhKTUy1TM2RFGua2hKogbzgVQP8x15qvGGDbpiS9LcPaiUG+INFryBAmQgElpaZk4OJJ0iy6MnTKAQJFEbuwIA);strokeColor=#4bacc6;flipH=1;flipV=1;points=[];labelBackgroundColor=none;rounded=0;html=1;whiteSpace=wrap;" vertex="1" parent="1">
            <mxGeometry x="1037" y="888" width="63" height="1" as="geometry" />
          </mxCell>
        </UserObject>
        <UserObject label="&lt;div style=&quot;font-size: 1px&quot;&gt;&lt;/div&gt;" tags="背景" id="lNSCyG1_joTPWja6P2LO-210">
          <mxCell style="verticalAlign=middle;align=center;vsdxID=989;fillColor=#FFFFFF;gradientColor=none;shape=stencil(UzV2Ls5ILEhVNTIoLinKz04tz0wpyVA1dlE1MsrMy0gtyiwBslSNXVWNndPyi1LTi/JL81Ig/IJEkEoQKze/DGRCBUSfAUiHkUElhGdoAOG7QZTmZOYhKTUy1TM2RFGua2hKogbzgVQP8x15qvGGDbpiS9LcPaiUG+INFryBAmQgElpaZk4OJJ0iy6MnTKAQJFEbuwIA);strokeColor=#4bacc6;flipH=1;flipV=1;points=[];labelBackgroundColor=none;rounded=0;html=1;whiteSpace=wrap;" vertex="1" parent="1">
            <mxGeometry x="1285" y="888" width="63" height="1" as="geometry" />
          </mxCell>
        </UserObject>
        <UserObject label="&lt;div style=&quot;font-size: 1px&quot;&gt;&lt;p style=&quot;align:center;margin-left:0;margin-right:0;margin-top:0px;margin-bottom:0px;text-indent:0;valign:middle;direction:ltr;&quot;&gt;&lt;font style=&quot;font-size:19.76px;font-family:Microsoft YaHei;color:#000000;direction:ltr;letter-spacing:0px;line-height:120%;opacity:1&quot;&gt;保障协同运营意愿&lt;br/&gt;&lt;/font&gt;&lt;/p&gt;&lt;/div&gt;" tags="背景" id="lNSCyG1_joTPWja6P2LO-211">
          <mxCell style="verticalAlign=middle;align=center;vsdxID=990;fillColor=none;gradientColor=none;shape=stencil(nZBLDoAgDERP0z3SIyjew0SURgSD+Lu9kMZoXLhwN9O+tukAlrNpJg1SzDH4QW/URgNYgZTkjA4UkwJUgGXng+6DX1zLfmoymdXo17xh5zmRJ6Q42BWCfc2oJfdAr+Yv+AP9Cb7OJ3H/2JG1HNGz/84klThPVCc=);strokeColor=none;points=[];labelBackgroundColor=none;rounded=0;html=1;whiteSpace=wrap;" vertex="1" parent="1">
            <mxGeometry x="1358" y="936" width="181" height="52" as="geometry" />
          </mxCell>
        </UserObject>
      </root>
    </mxGraphModel>
  </diagram>
</mxfile>
